<svg width="102" height="76" viewBox="0 0 102 76" fill="none" xmlns="http://www.w3.org/2000/svg">
<path fill-rule="evenodd" clip-rule="evenodd" d="M59.9936 19.1859C60.3181 18.3651 60.5595 17.502 60.7078 16.6029C61.9661 8.97585 56.0504 1.64857 47.4946 0.237006C40.0697 -0.987982 33.0965 2.64478 30.5604 8.61134C28.6655 7.56749 26.4772 6.97187 24.1464 6.97187C17.1908 6.97187 11.504 12.2761 11.0968 18.9681H10.766C4.82009 18.9681 0 23.7882 0 29.7341C0 35.68 4.82008 40.5001 10.766 40.5001H57.8287C63.7746 40.5001 68.5947 35.68 68.5947 29.7341C68.5947 24.5298 64.9019 20.1879 59.9936 19.1859Z" fill="#EBECEC"/>
<path d="M7.88867 33V23.0469H11.375C12.5827 23.0469 13.4987 23.2793 14.123 23.7441C14.7474 24.2044 15.0596 24.8812 15.0596 25.7744C15.0596 26.262 14.9342 26.6927 14.6836 27.0664C14.4329 27.4355 14.0843 27.7067 13.6377 27.8799C14.1481 28.0075 14.5492 28.265 14.8408 28.6523C15.137 29.0397 15.2852 29.5137 15.2852 30.0742C15.2852 31.0312 14.9798 31.7559 14.3691 32.248C13.7585 32.7402 12.888 32.9909 11.7578 33H7.88867ZM9.93945 28.666V31.3525H11.6963C12.1794 31.3525 12.5553 31.2386 12.8242 31.0107C13.0977 30.7783 13.2344 30.4593 13.2344 30.0537C13.2344 29.1423 12.7627 28.6797 11.8193 28.666H9.93945ZM9.93945 27.2168H11.457C12.4915 27.1986 13.0088 26.7861 13.0088 25.9795C13.0088 25.5283 12.8766 25.2048 12.6123 25.0088C12.3525 24.8083 11.9401 24.708 11.375 24.708H9.93945V27.2168ZM18.7852 33H16.8027V25.6035H18.7852V33ZM16.6865 23.6895C16.6865 23.3932 16.7845 23.1494 16.9805 22.958C17.181 22.7666 17.4521 22.6709 17.7939 22.6709C18.1312 22.6709 18.4001 22.7666 18.6006 22.958C18.8011 23.1494 18.9014 23.3932 18.9014 23.6895C18.9014 23.9902 18.7988 24.2363 18.5938 24.4277C18.3932 24.6191 18.1266 24.7148 17.7939 24.7148C17.4613 24.7148 17.1924 24.6191 16.9873 24.4277C16.7868 24.2363 16.6865 23.9902 16.6865 23.6895ZM22.7842 23.7852V25.6035H24.0488V27.0527H22.7842V30.7441C22.7842 31.0176 22.8366 31.2135 22.9414 31.332C23.0462 31.4505 23.2467 31.5098 23.543 31.5098C23.7617 31.5098 23.9554 31.4938 24.124 31.4619V32.959C23.7367 33.0775 23.3379 33.1367 22.9277 33.1367C21.5423 33.1367 20.8359 32.4372 20.8086 31.0381V27.0527H19.7285V25.6035H20.8086V23.7852H22.7842ZM29.3057 27.4561C29.0368 27.4196 28.7998 27.4014 28.5947 27.4014C27.8473 27.4014 27.3574 27.6543 27.125 28.1602V33H25.1494V25.6035H27.0156L27.0703 26.4854C27.4668 25.8063 28.016 25.4668 28.7178 25.4668C28.9365 25.4668 29.1416 25.4964 29.333 25.5557L29.3057 27.4561ZM32.3477 33H30.3652V25.6035H32.3477V33ZM30.249 23.6895C30.249 23.3932 30.347 23.1494 30.543 22.958C30.7435 22.7666 31.0146 22.6709 31.3564 22.6709C31.6937 22.6709 31.9626 22.7666 32.1631 22.958C32.3636 23.1494 32.4639 23.3932 32.4639 23.6895C32.4639 23.9902 32.3613 24.2363 32.1562 24.4277C31.9557 24.6191 31.6891 24.7148 31.3564 24.7148C31.0238 24.7148 30.7549 24.6191 30.5498 24.4277C30.3493 24.2363 30.249 23.9902 30.249 23.6895ZM36.7979 27.8115L38.042 25.6035H40.1543L38.0488 29.2266L40.2432 33H38.124L36.8047 30.6758L35.4922 33H33.3662L35.5605 29.2266L33.4619 25.6035H35.5811L36.7979 27.8115ZM51.3687 33H44.0591V31.5498L47.5088 27.873C47.9824 27.3555 48.3315 26.9038 48.5562 26.5181C48.7856 26.1323 48.9004 25.7661 48.9004 25.4194C48.9004 24.9458 48.7808 24.5747 48.5415 24.3062C48.3022 24.0327 47.9604 23.896 47.5161 23.896C47.0376 23.896 46.6592 24.062 46.3809 24.394C46.1074 24.7212 45.9707 25.1533 45.9707 25.6904H43.8467C43.8467 25.041 44.0005 24.4478 44.3081 23.9106C44.6206 23.3735 45.0601 22.9536 45.6265 22.6509C46.1929 22.3433 46.835 22.1895 47.5527 22.1895C48.6514 22.1895 49.5034 22.4531 50.1089 22.9805C50.7192 23.5078 51.0244 24.2524 51.0244 25.2144C51.0244 25.7417 50.8877 26.2788 50.6143 26.8257C50.3408 27.3726 49.8721 28.0098 49.208 28.7373L46.7837 31.2935H51.3687V33ZM58.9346 28.9863H60.1431V30.6929H58.9346V33H56.8179V30.6929H52.4453L52.3501 29.3599L56.7959 22.3359H58.9346V28.9863ZM54.4595 28.9863H56.8179V25.2217L56.6787 25.4634L54.4595 28.9863Z" fill="white"/>
<path d="M98.9998 34.9001H21.7998V35.9001H98.9998V34.9001Z" fill="#593085"/>
<path d="M99.2 73H22V76H99.2V73Z" fill="#2B2A29"/>
<path d="M72.8679 17H22V20H72.8679V17Z" fill="#2B2A29"/>
<path d="M101.948 17H82V20H101.948V17Z" fill="#2B2A29"/>
<path d="M102 17H99V76H102V17Z" fill="#2B2A29"/>
<path d="M85.5001 27.4003C86.0001 27.4003 86.4001 27.0003 86.4001 26.5003C86.4001 26.0003 86.0001 25.6003 85.5001 25.6003C85.0001 25.6003 84.6001 26.0003 84.6001 26.5003C84.6001 27.0003 85.0001 27.4003 85.5001 27.4003Z" fill="#593085"/>
<path d="M89.0001 27.4003C89.5001 27.4003 89.9001 27.0003 89.9001 26.5003C89.9001 26.0003 89.5001 25.6003 89.0001 25.6003C88.5001 25.6003 88.1001 26.0003 88.1001 26.5003C88.1001 27.0003 88.5001 27.4003 89.0001 27.4003Z" fill="#593085"/>
<path d="M92.6002 27.4003C93.1002 27.4003 93.5002 27.0003 93.5002 26.5003C93.5002 26.0003 93.1002 25.6003 92.6002 25.6003C92.1002 25.6003 91.7002 26.0003 91.7002 26.5003C91.7002 27.0003 92.1002 27.4003 92.6002 27.4003Z" fill="#593085"/>
<path d="M40 50.3832C40 52.2332 38.5 53.7332 36.65 53.7332C34.8 53.7332 33.3 52.2332 33.3 50.3832C33.3 48.5331 34.8 47.0332 36.65 47.0332C38.5 47.0332 40 48.5331 40 50.3832ZM38.1667 50.3832C38.1667 49.5456 37.4876 48.8665 36.65 48.8665C35.8124 48.8665 35.1333 49.5456 35.1333 50.3832C35.1333 51.2207 35.8124 51.8998 36.65 51.8998C37.4876 51.8998 38.1667 51.2207 38.1667 50.3832Z" fill="#593085" stroke="white" stroke-width="0.6"/>
<path d="M63 50.65C63 52.5 61.5 54 59.65 54C57.8 54 56.3 52.5 56.3 50.65C56.3 48.8 57.8 47.3 59.65 47.3C61.5 47.3 63 48.8 63 50.65ZM61.1667 50.65C61.1667 49.8124 60.4876 49.1333 59.65 49.1333C58.8124 49.1333 58.1333 49.8124 58.1333 50.65C58.1333 51.4876 58.8124 52.1667 59.65 52.1667C60.4876 52.1667 61.1667 51.4876 61.1667 50.65Z" fill="#593085" stroke="white" stroke-width="0.6"/>
<path d="M86 50.65C86 52.5 84.5 54 82.65 54C80.8 54 79.3 52.5 79.3 50.65C79.3 48.8 80.8 47.3 82.65 47.3C84.5 47.3 86 48.8 86 50.65ZM84.1667 50.65C84.1667 49.8124 83.4876 49.1333 82.65 49.1333C81.8124 49.1333 81.1333 49.8124 81.1333 50.65C81.1333 51.4876 81.8124 52.1667 82.65 52.1667C83.4876 52.1667 84.1667 51.4876 84.1667 50.65Z" fill="#593085" stroke="white" stroke-width="0.6"/>
<path d="M31.2 57.2H42.8V58.8H31.2V57.2Z" fill="#593085" stroke="white" stroke-width="0.4"/>
<path d="M54.2 57.4668H65.8V59.0668H54.2V57.4668Z" fill="#593085" stroke="white" stroke-width="0.4"/>
<path d="M77.2 57.4668H88.8V59.0668H77.2V57.4668Z" fill="#593085" stroke="white" stroke-width="0.4"/>
<path d="M31.2 62.2H42.8V63.8H31.2V62.2Z" fill="#593085" stroke="white" stroke-width="0.4"/>
<path d="M54.2 62.4668H65.8V64.0668H54.2V62.4668Z" fill="#593085" stroke="white" stroke-width="0.4"/>
<path d="M77.2 62.4668H88.8V64.0668H77.2V62.4668Z" fill="#593085" stroke="white" stroke-width="0.4"/>
<path fill-rule="evenodd" clip-rule="evenodd" d="M19 17H22V56.1515L19 53V17ZM19 66V76H22V66H19Z" fill="#2B2A29"/>
<path d="M2.64981 62.6388L2.6498 62.6388C2.32944 62.9503 1.80775 62.9503 1.48736 62.6392C1.17088 62.3314 1.17088 61.8355 1.48736 61.5277L10.9764 52.2996C11.672 51.6231 12.5968 51.25 13.5829 51.25C14.5659 51.25 15.4868 51.6204 16.1812 52.292L16.1909 52.3013L16.1948 52.3044L23.9412 59.8382L23.9413 59.8383C24.5164 60.3972 24.8314 61.1382 24.8314 61.9261C24.8314 62.384 24.7243 62.8253 24.523 63.2246L24.4404 63.3885L24.5719 63.5164L27.5126 66.3766L27.5127 66.3767C27.829 66.684 27.8292 67.1798 27.5126 67.4876C27.3531 67.6428 27.1434 67.7213 26.9314 67.7213C26.7195 67.7213 26.5097 67.6428 26.3502 67.4876L26.3502 67.4876L23.4091 64.6278L23.2843 64.5065L23.1271 64.5814C22.7151 64.778 22.2585 64.883 21.7843 64.883C20.9677 64.883 20.2023 64.5741 19.6269 64.0145L14.6559 59.1802L14.4816 59.0107L14.3073 59.1802L2.65064 70.5163C2.49113 70.6714 2.28135 70.75 2.06941 70.75C1.85701 70.75 1.64724 70.6714 1.48777 70.5163C1.17164 70.2085 1.1718 69.7126 1.48777 69.4053L12.573 58.6249L12.8752 58.331L12.4724 58.2068C11.9295 58.0393 11.4202 57.7481 10.9919 57.3316C10.5648 56.9162 10.2668 56.4235 10.095 55.9004L9.97018 55.5201L9.68323 55.7992L2.64981 62.6388ZM16.2036 52.3112C16.2034 52.3111 16.2026 52.3104 16.2016 52.3096L16.203 52.3108L16.2036 52.3112ZM22.7792 62.903L22.7794 62.9029C23.0456 62.6435 23.1943 62.2964 23.1943 61.9261C23.1943 61.5564 23.0456 61.2087 22.7788 60.9493L17.5019 55.8174L17.2152 55.5387L17.0901 55.9184C16.9146 56.4513 16.6104 56.9408 16.1899 57.3498L15.8188 57.7107L15.6345 57.8899L15.8188 58.0692L20.7898 62.9034C21.0563 63.1626 21.4105 63.3046 21.7843 63.3046C22.1582 63.3046 22.5128 63.1621 22.7792 62.903ZM15.0265 53.4102L15.0265 53.4101C14.6398 53.0346 14.1267 52.8284 13.5834 52.8284C13.0705 52.8284 12.5862 53.014 12.2091 53.3484L12.1976 53.3586L12.1874 53.3702L12.1837 53.3744C12.168 53.3921 12.1627 53.3982 12.1566 53.404L12.1566 53.404L12.1543 53.4062C11.3571 54.1814 11.3571 55.4453 12.1543 56.2205L12.1544 56.2206C12.9476 56.9915 14.2349 56.9921 15.0283 56.2205C15.0499 56.1995 15.071 56.1809 15.0918 56.1647L15.1096 56.1509L15.1246 56.1341C15.4485 55.7719 15.6287 55.3123 15.6287 54.8247C15.6287 54.2897 15.414 53.7874 15.0275 53.4112L15.0274 53.411L15.0265 53.4102Z" fill="#593085" stroke="white" stroke-width="0.5"/>
<mask id="path-22-inside-1" fill="white">
<path fill-rule="evenodd" clip-rule="evenodd" d="M78.4844 28.8696V26.2149L80.5245 20.7186C80.5703 20.5956 80.5938 20.465 80.5938 20.3336V12.2221H91.78C92.3622 12.2221 92.8347 11.7378 92.8347 11.1403C92.8347 10.5427 92.3622 10.0584 91.78 10.0584H81.6052C81.7691 9.58426 81.859 9.07461 81.859 8.54382C81.859 8.01303 81.7691 7.50337 81.6052 7.02921H96.0338C96.6163 7.02921 97.0885 6.54491 97.0885 5.94735C97.0885 5.34979 96.6163 4.86549 96.0338 4.86549H80.1455C80.1076 4.86549 80.0705 4.8676 80.0339 4.87183C79.3026 4.32414 78.4024 4 77.4297 4C74.987 4 73 6.03821 73 8.54382C73 9.79514 73.4956 10.9298 74.2957 11.7522C74.2767 11.8338 74.2656 11.9183 74.2656 12.0058V20.3336C74.2656 20.465 74.2887 20.5956 74.3344 20.7186L76.375 26.2149V28.8696H78.4844ZM78.4844 12.9562C78.1461 13.0416 77.7931 13.0876 77.4297 13.0876C77.0659 13.0876 76.7132 13.0416 76.375 12.9566V18.6951H78.4844V12.9562ZM77.4297 22.9757L78.2153 20.8593H76.6436L77.4297 22.9757ZM79.75 8.54382C79.75 7.23122 78.7089 6.16372 77.4297 6.16372C76.1501 6.16372 75.1094 7.23122 75.1094 8.54382C75.1094 9.85642 76.1501 10.9239 77.4297 10.9239C78.7089 10.9239 79.75 9.85642 79.75 8.54382Z"/>
</mask>
<path fill-rule="evenodd" clip-rule="evenodd" d="M78.4844 28.8696V26.2149L80.5245 20.7186C80.5703 20.5956 80.5938 20.465 80.5938 20.3336V12.2221H91.78C92.3622 12.2221 92.8347 11.7378 92.8347 11.1403C92.8347 10.5427 92.3622 10.0584 91.78 10.0584H81.6052C81.7691 9.58426 81.859 9.07461 81.859 8.54382C81.859 8.01303 81.7691 7.50337 81.6052 7.02921H96.0338C96.6163 7.02921 97.0885 6.54491 97.0885 5.94735C97.0885 5.34979 96.6163 4.86549 96.0338 4.86549H80.1455C80.1076 4.86549 80.0705 4.8676 80.0339 4.87183C79.3026 4.32414 78.4024 4 77.4297 4C74.987 4 73 6.03821 73 8.54382C73 9.79514 73.4956 10.9298 74.2957 11.7522C74.2767 11.8338 74.2656 11.9183 74.2656 12.0058V20.3336C74.2656 20.465 74.2887 20.5956 74.3344 20.7186L76.375 26.2149V28.8696H78.4844ZM78.4844 12.9562C78.1461 13.0416 77.7931 13.0876 77.4297 13.0876C77.0659 13.0876 76.7132 13.0416 76.375 12.9566V18.6951H78.4844V12.9562ZM77.4297 22.9757L78.2153 20.8593H76.6436L77.4297 22.9757ZM79.75 8.54382C79.75 7.23122 78.7089 6.16372 77.4297 6.16372C76.1501 6.16372 75.1094 7.23122 75.1094 8.54382C75.1094 9.85642 76.1501 10.9239 77.4297 10.9239C78.7089 10.9239 79.75 9.85642 79.75 8.54382Z" fill="#593085"/>
<path d="M78.4844 28.8696V29.2696H78.8844V28.8696H78.4844ZM78.4844 26.2149L78.1094 26.0757L78.0844 26.1431V26.2149H78.4844ZM80.5245 20.7186L80.1496 20.5791L80.1495 20.5794L80.5245 20.7186ZM80.5938 12.2221V11.8221H80.1937V12.2221H80.5938ZM81.6052 10.0584L81.2271 9.92769L81.0436 10.4584H81.6052V10.0584ZM81.6052 7.02921V6.62921H81.0436L81.2271 7.15994L81.6052 7.02921ZM80.0339 4.87183L79.7941 5.19199L79.9215 5.28743L80.0797 5.2692L80.0339 4.87183ZM74.2957 11.7522L74.6853 11.8427L74.7348 11.6299L74.5824 11.4733L74.2957 11.7522ZM74.3344 20.7186L74.7094 20.5793L74.7093 20.5791L74.3344 20.7186ZM76.375 26.2149H76.775V26.1431L76.75 26.0757L76.375 26.2149ZM76.375 28.8696H75.975V29.2696H76.375V28.8696ZM78.4844 12.9562H78.8844V12.4427L78.3865 12.5684L78.4844 12.9562ZM76.375 12.9566L76.4724 12.5687L75.975 12.4438V12.9566H76.375ZM76.375 18.6951H75.975V19.0951H76.375V18.6951ZM78.4844 18.6951V19.0951H78.8844V18.6951H78.4844ZM78.2153 20.8593L78.5903 20.9985L78.7905 20.4593H78.2153V20.8593ZM77.4297 22.9757L77.0547 23.115L77.4298 24.1248L77.8047 23.1149L77.4297 22.9757ZM76.6436 20.8593V20.4593H76.0683L76.2686 20.9986L76.6436 20.8593ZM78.8844 28.8696V26.2149H78.0844V28.8696H78.8844ZM78.8594 26.3541L80.8995 20.8578L80.1495 20.5794L78.1094 26.0757L78.8594 26.3541ZM80.8995 20.858C80.9618 20.6903 80.9938 20.5125 80.9938 20.3336H80.1937C80.1937 20.4175 80.1787 20.5008 80.1496 20.5791L80.8995 20.858ZM80.9938 20.3336V12.2221H80.1937V20.3336H80.9938ZM80.5938 12.6221H91.78V11.8221H80.5938V12.6221ZM91.78 12.6221C92.5925 12.6221 93.2347 11.9492 93.2347 11.1403H92.4347C92.4347 11.5265 92.1318 11.8221 91.78 11.8221V12.6221ZM93.2347 11.1403C93.2347 10.3314 92.5925 9.65842 91.78 9.65842V10.4584C92.1318 10.4584 92.4347 10.7541 92.4347 11.1403H93.2347ZM91.78 9.65842H81.6052V10.4584H91.78V9.65842ZM81.9832 10.1892C82.1614 9.6738 82.259 9.12 82.259 8.54382H81.459C81.459 9.02921 81.3769 9.49473 81.2271 9.92769L81.9832 10.1892ZM82.259 8.54382C82.259 7.96764 82.1614 7.41384 81.9832 6.89848L81.2271 7.15994C81.3769 7.59291 81.459 8.05842 81.459 8.54382H82.259ZM81.6052 7.42921H96.0338V6.62921H81.6052V7.42921ZM96.0338 7.42921C96.8468 7.42921 97.4885 6.75617 97.4885 5.94735H96.6885C96.6885 6.33365 96.3859 6.62921 96.0338 6.62921V7.42921ZM97.4885 5.94735C97.4885 5.13853 96.8468 4.46549 96.0338 4.46549V5.26549C96.3859 5.26549 96.6885 5.56105 96.6885 5.94735H97.4885ZM96.0338 4.46549H80.1455V5.26549H96.0338V4.46549ZM80.1455 4.46549C80.0926 4.46549 80.0403 4.46844 79.9881 4.47446L80.0797 5.2692C80.1008 5.26676 80.1226 5.26549 80.1455 5.26549V4.46549ZM80.2736 4.55167C79.4766 3.95469 78.493 3.6 77.4297 3.6V4.4C78.3118 4.4 79.1286 4.69358 79.7941 5.19199L80.2736 4.55167ZM77.4297 3.6C74.7566 3.6 72.6 5.82695 72.6 8.54382H73.4C73.4 6.24947 75.2175 4.4 77.4297 4.4V3.6ZM72.6 8.54382C72.6 9.9024 73.1384 11.1363 74.009 12.0311L74.5824 11.4733C73.8528 10.7233 73.4 9.68789 73.4 8.54382H72.6ZM73.9061 11.6617C73.8811 11.7691 73.8656 11.8841 73.8656 12.0058H74.6656C74.6656 11.9525 74.6724 11.8985 74.6853 11.8427L73.9061 11.6617ZM73.8656 12.0058V20.3336H74.6656V12.0058H73.8656ZM73.8656 20.3336C73.8656 20.5117 73.8969 20.6896 73.9595 20.858L74.7093 20.5791C74.6805 20.5016 74.6656 20.4183 74.6656 20.3336H73.8656ZM73.9594 20.8578L76 26.3541L76.75 26.0757L74.7094 20.5793L73.9594 20.8578ZM75.975 26.2149V28.8696H76.775V26.2149H75.975ZM76.375 29.2696H78.4844V28.4696H76.375V29.2696ZM77.4297 13.4876C77.827 13.4876 78.213 13.4372 78.5823 13.344L78.3865 12.5684C78.0793 12.6459 77.7591 12.6876 77.4297 12.6876V13.4876ZM76.2776 13.3446C76.6465 13.4372 77.0319 13.4876 77.4297 13.4876V12.6876C77.0999 12.6876 76.7799 12.6459 76.4724 12.5687L76.2776 13.3446ZM76.775 18.6951V12.9566H75.975V18.6951H76.775ZM78.4844 18.2951H76.375V19.0951H78.4844V18.2951ZM78.0844 12.9562V18.6951H78.8844V12.9562H78.0844ZM77.8404 20.7201L77.0547 22.8365L77.8047 23.1149L78.5903 20.9985L77.8404 20.7201ZM76.6436 21.2593H78.2153V20.4593H76.6436V21.2593ZM77.8047 22.8364L77.0186 20.72L76.2686 20.9986L77.0547 23.115L77.8047 22.8364ZM77.4297 6.56372C78.4785 6.56372 79.35 7.44252 79.35 8.54382H80.15C80.15 7.01991 78.9393 5.76372 77.4297 5.76372V6.56372ZM75.5094 8.54382C75.5094 7.44248 76.3805 6.56372 77.4297 6.56372V5.76372C75.9196 5.76372 74.7094 7.01996 74.7094 8.54382H75.5094ZM77.4297 10.5239C76.3805 10.5239 75.5094 9.64516 75.5094 8.54382H74.7094C74.7094 10.0677 75.9196 11.3239 77.4297 11.3239V10.5239ZM79.35 8.54382C79.35 9.64511 78.4785 10.5239 77.4297 10.5239V11.3239C78.9393 11.3239 80.15 10.0677 80.15 8.54382H79.35Z" fill="white" mask="url(#path-22-inside-1)"/>
</svg>
