<svg width="116" height="23" viewBox="0 0 116 23" fill="none" xmlns="http://www.w3.org/2000/svg">
<rect width="116" height="23" fill="black" fill-opacity="0"/>
<rect width="116" height="23" fill="black" fill-opacity="0"/>
<path d="M116 10.8377C116 11.9002 115.806 12.9035 115.417 13.8474C115.026 14.795 114.46 15.638 113.714 16.3799C112.965 17.122 112.116 17.6897 111.169 18.0833C110.225 18.477 109.234 18.6755 108.199 18.6755C107.146 18.6755 106.144 18.477 105.187 18.0798C104.233 17.6792 103.391 17.1149 102.659 16.3799C101.913 15.638 101.347 14.7984 100.962 13.8578C100.577 12.9208 100.383 11.9141 100.383 10.8377C100.383 9.76828 100.577 8.76157 100.962 7.81766C101.347 6.87018 101.913 6.02366 102.659 5.27478C103.405 4.53283 104.25 3.96848 105.194 3.5817C106.137 3.19509 107.139 3.00006 108.199 3.00006C109.248 3.00006 110.243 3.19509 111.186 3.5817C112.126 3.96848 112.971 4.53283 113.714 5.27478C114.46 6.0307 115.026 6.88413 115.417 7.83161C115.806 8.7825 116 9.78224 116 10.8377ZM50.9054 10.9005C50.8783 10.7855 50.8339 10.465 50.776 9.94256C50.7215 9.50716 50.6738 9.14478 50.6362 8.85909C50.575 9.20054 50.4898 9.54188 50.3807 9.87987C50.2718 10.2212 50.1321 10.5661 49.9651 10.9213L46.4337 18.2784H45.8578L42.3203 10.7577C42.1602 10.4233 42.0204 10.1028 41.9048 9.78921C41.789 9.47573 41.6866 9.16571 41.6016 8.85909C41.5946 9.17275 41.5708 9.50012 41.5265 9.84504C41.4824 10.1898 41.4175 10.5486 41.3325 10.9213L39.7652 18.2784H39.2799H37.5781L40.8939 3.33243H41.3184L45.3456 12.1371C45.4104 12.2834 45.5124 12.5342 45.6487 12.8791C45.785 13.2274 45.9484 13.6559 46.1428 14.1644C46.2824 13.736 46.5039 13.1926 46.8037 12.5342C46.882 12.3565 46.9432 12.2207 46.9808 12.1266L50.9153 3.33243H51.3368L54.7278 18.2784H52.5203L50.9054 10.9005ZM67.5422 18.2784L65.8865 14.4326H60.0949L58.3984 18.2784H55.9047L62.7147 3.33243H63.246L70.0496 18.2784H67.5422ZM60.9739 12.4053H65.0485L63.5495 8.99847C63.4642 8.7825 63.3723 8.53171 63.2804 8.24966C63.1884 7.96743 63.093 7.65394 63.001 7.30557C62.9226 7.63295 62.8374 7.93616 62.7455 8.21822C62.657 8.50045 62.565 8.76157 62.4728 8.99847L60.9739 12.4053ZM71.4225 18.2784V3.33243H72.0158L80.7094 11.8793C80.9615 12.1371 81.217 12.4123 81.4792 12.7049C81.7382 12.9976 82.0108 13.3284 82.2968 13.6942V3.33448H84.4841V18.2784H83.8884L75.0165 9.56281C74.7646 9.30855 74.5193 9.0438 74.2841 8.76521C74.0458 8.48638 73.8243 8.19383 73.6096 7.88721V18.2784H71.4225ZM97.4945 18.2784L95.8387 14.4326H90.0474L88.3509 18.2784H85.857L92.667 3.33243H93.1983L100.002 18.2784H97.4945ZM90.9262 12.4053H95.0008L93.5018 8.99847C93.4165 8.7825 93.3247 8.53171 93.2327 8.24966C93.1407 7.96743 93.0453 7.65394 92.9533 7.30557C92.8749 7.63295 92.7897 7.93616 92.6978 8.21822C92.6093 8.50045 92.5173 8.76157 92.4253 8.99847L90.9262 12.4053ZM113.527 10.8377C113.527 10.0818 113.39 9.36431 113.121 8.68498C112.852 8.00571 112.464 7.39968 111.959 6.87018C111.466 6.34418 110.897 5.9435 110.249 5.66139C109.599 5.37916 108.914 5.23637 108.199 5.23637C107.48 5.23637 106.795 5.37575 106.144 5.65435C105.497 5.933 104.918 6.33715 104.414 6.87018C103.909 7.39265 103.521 7.99522 103.255 8.67455C102.989 9.35388 102.857 10.0749 102.857 10.8377C102.857 11.5938 102.989 12.3078 103.255 12.9801C103.521 13.6523 103.909 14.2549 104.414 14.7846C104.918 15.3175 105.493 15.7216 106.141 16.0002C106.785 16.2788 107.473 16.4182 108.199 16.4182C108.91 16.4182 109.585 16.2788 110.229 16.0002C110.869 15.7216 111.449 15.3175 111.959 14.7846C112.464 14.2549 112.852 13.6523 113.121 12.9766C113.39 12.2973 113.527 11.5867 113.527 10.8377Z" fill="white"/>
<path fill-rule="evenodd" clip-rule="evenodd" d="M14.4923 6.86545L10.8654 0.00029686L-1.44515e-08 0.0450892L9.94723 15.8007V15.8007L14.4925 23L19.0373 15.8004V15.8004L28.9846 0.0448029L18.1191 -9.16233e-07L14.4923 6.86545Z" fill="white"/>
<path fill-rule="evenodd" clip-rule="evenodd" d="M0.688476 2.48193L6.01347 10.8988L0.688476 20.518V2.48193Z" fill="white"/>
<path fill-rule="evenodd" clip-rule="evenodd" d="M28.3113 2.48193L22.9863 10.8988L28.3113 20.518V2.48193Z" fill="white"/>
</svg>
