<svg width="48" height="65" viewBox="0 0 48 65" fill="none" xmlns="http://www.w3.org/2000/svg">
<path fill-rule="evenodd" clip-rule="evenodd" d="M6.42086 52.1756H8.51951C8.45494 52.0797 8.39037 51.9837 8.34193 51.8877C7.64777 50.5121 7.29261 48.9926 7.29261 47.4571V40.1474C7.29261 37.2363 9.39126 34.757 12.2648 34.2292L17.5437 33.2855H18.0442C15.6549 31.718 13.976 29.2227 13.5078 26.3277C11.9419 25.9918 10.7635 24.6162 10.7635 22.9687C10.7635 21.3052 11.9419 19.9296 13.5078 19.6097C14.2989 14.6993 18.593 10.9404 23.759 10.9404C28.941 10.9404 33.219 14.6993 34.0262 19.6097C35.5921 19.9296 36.7706 21.3052 36.7706 22.9687C36.7706 24.6162 35.5921 25.9918 34.0262 26.3277C33.558 29.2227 31.8791 31.718 29.506 33.2695H29.8289L35.2531 34.2292C38.1428 34.757 40.2414 37.2363 40.2414 40.1474V47.4571C40.2414 48.9926 39.8701 50.5121 39.1921 51.8877C39.1275 51.9837 39.0791 52.0797 39.0145 52.1756H41.097C44.4549 52.1756 47.167 54.8628 47.167 58.1898C47.167 61.5007 44.4549 64.2039 41.097 64.2039H24.6307C24.3078 64.2039 24.0173 64.1079 23.759 63.964C23.5007 64.1079 23.2101 64.2039 22.9033 64.2039H6.42086C3.07916 64.2039 0.350914 61.5007 0.350914 58.1898C0.350914 54.8628 3.07916 52.1756 6.42086 52.1756ZM16.8334 55.6146V56.4623H18.7222L19.1419 54.3829C19.4002 53.1033 20.5464 52.1756 21.854 52.1756C22.5966 52.1756 23.2585 52.4635 23.759 52.9274C24.2594 52.4635 24.9213 52.1756 25.6639 52.1756C26.9876 52.1756 28.1338 53.1033 28.3921 54.3829L28.8119 56.4623H30.7006V55.6146H33.2997V53.8871V52.8794L23.759 46.3374L14.2182 52.8794V55.6146H16.8334ZM12.7168 51.8237L22.9033 44.8499V40.7392C22.9033 40.4033 22.6289 40.1474 22.306 40.1474C22.0316 40.1474 21.7894 40.3233 21.7249 40.5952L21.0307 43.3624L13.5078 46.1615H9.01996V47.4571C9.01996 48.7207 9.32669 49.9843 9.89171 51.1199C10.2146 51.7598 10.8765 52.1756 11.6191 52.1756C12.0065 52.1756 12.3939 52.0477 12.7168 51.8237ZM12.4908 22.9687C12.4908 23.5925 12.846 24.1363 13.3626 24.4402V21.4812C12.846 21.7851 12.4908 22.3289 12.4908 22.9687ZM23.759 12.6519C19.5778 12.6519 16.0747 15.611 15.2675 19.5298H32.2666C31.4594 15.611 27.9563 12.6519 23.759 12.6519ZM35.0271 22.9687C35.0271 22.3289 34.6881 21.7851 34.1715 21.4812V24.4402C34.6881 24.1363 35.0271 23.5925 35.0271 22.9687ZM32.428 24.6802V21.2412H15.0899V24.6802C15.0899 29.4147 18.9805 33.2695 23.759 33.2695C28.5374 33.2695 32.428 29.4147 32.428 24.6802ZM20.6433 34.5171C21.0953 35.0929 22.0155 35.8447 23.759 35.8447C25.5024 35.8447 26.4226 35.0929 26.8908 34.5171C25.906 34.821 24.8567 34.997 23.759 34.997C22.6773 34.997 21.628 34.821 20.6433 34.5171ZM38.4979 40.1474C38.4979 38.068 37.0127 36.2926 34.9464 35.9247L29.7482 34.997H28.6343C28.1177 35.9087 26.7616 37.5722 23.759 37.5722C20.7724 37.5722 19.4002 35.9087 18.8836 34.997H17.7697L12.5877 35.9247C10.5213 36.2926 9.01996 38.068 9.01996 40.1474V44.434H12.4908V42.7226H14.2182V44.0661L19.5617 42.0828L20.046 40.1793C20.3043 39.1397 21.2244 38.4199 22.306 38.4199C22.8549 38.4199 23.3554 38.6278 23.759 38.9477C24.1625 38.6278 24.663 38.4199 25.228 38.4199C26.2935 38.4199 27.2298 39.1397 27.4881 40.1793L27.9563 42.0828L33.2997 44.0661V39.2836H35.0271V44.434H38.4979V40.1474ZM37.6262 51.1199C38.2074 49.9843 38.4979 48.7207 38.4979 47.4571V46.1615H34.0101L26.5033 43.3624L25.793 40.5952C25.7285 40.3233 25.5024 40.1474 25.228 40.1474C24.889 40.1474 24.6307 40.4033 24.6307 40.7392V44.8499L34.8172 51.8397C35.1401 52.0477 35.5114 52.1756 35.915 52.1756C36.6414 52.1756 37.3033 51.7598 37.6262 51.1199ZM45.4396 58.1898C45.4396 55.8225 43.5024 53.8871 41.097 53.8871H35.0271V55.6146H41.097V57.326H32.428V62.4764H41.097C43.5024 62.4764 45.4396 60.557 45.4396 58.1898ZM30.7006 62.4764V58.1898H27.3912L26.6809 54.7188C26.5841 54.239 26.1643 53.8871 25.6639 53.8871C25.0989 53.8871 24.6307 54.3509 24.6307 54.9268V62.4764H30.7006ZM22.9033 54.9268C22.9033 54.3509 22.4352 53.8871 21.854 53.8871C21.3697 53.8871 20.9338 54.239 20.837 54.7188L20.1428 58.1898H16.8334V62.4764H22.9033V54.9268ZM6.42086 62.4764H15.0899V57.326H6.42086V55.6146H12.4908V53.8871H6.42086C4.03163 53.8871 2.07827 55.8225 2.07827 58.1898C2.07827 60.557 4.03163 62.4764 6.42086 62.4764Z" fill="#593085"/>
<path fill-rule="evenodd" clip-rule="evenodd" d="M12.4907 40.0744H14.218V36.3796H12.4907V40.0744Z" fill="#593085"/>
<path d="M33.6719 10.2362L38.9023 5.21377L37.7884 4.07812L32.558 9.08457L33.6719 10.2362Z" fill="#593085"/>
<path d="M24.4854 7.13378V0H22.871V7.13378H24.4854Z" fill="#593085"/>
<path d="M15.6394 6.02112L10.0215 1.79844L9.05287 3.07804L14.6708 7.30073L15.6394 6.02112Z" fill="#593085"/>
</svg>
