<svg width="60" height="53" viewBox="0 0 60 53" fill="none" xmlns="http://www.w3.org/2000/svg">
<path d="M49.7658 35.9096C52.4316 35.7154 54.4962 36.57 56.0997 37.8131C57.6832 39.0173 58.7856 40.6101 59.6074 41.9503L59.9682 42.533L59.427 42.9797C56.4605 45.4465 53.8748 46.6119 51.1889 46.3399C48.5431 46.068 45.8973 44.3976 42.8105 41.2122L44.0332 40.0856C46.8594 42.9797 49.1645 44.4753 51.3693 44.7084C53.3737 44.9026 55.3982 44.0286 57.7633 42.1833C57.0818 41.1345 56.1799 39.9885 55.0574 39.095C53.7345 38.085 52.0508 37.3858 49.8861 37.5412L49.7658 35.9096Z" fill="#593085"/>
<path d="M36.6569 42.7665C35.9955 43.7571 35.6146 44.8642 35.3941 45.9519C35.1737 47.0396 35.1336 48.1273 35.1937 49.0985C37.7593 48.7877 39.443 48.2439 40.5454 47.1367C41.7882 45.8936 42.4095 43.8542 42.8906 40.5911L44.5743 40.8047C44.0531 44.4369 43.2915 46.7483 41.7681 48.2827C40.2247 49.8366 37.9798 50.497 34.4922 50.8272L33.6503 50.8854L33.5701 50.0891C33.4098 48.8266 33.3897 47.2533 33.7105 45.6411C33.971 44.3592 34.4521 43.0773 35.2338 41.873L36.6569 42.7665Z" fill="#593085"/>
<path d="M48.4429 16.1372C51.0687 16.9336 53.2535 17.963 54.7568 19.2061C56.2601 20.4686 57.1019 21.9254 57.1019 23.6346C57.1019 33.1909 49.7859 39.3481 40.4454 42.0285C36.8775 43.058 33.0291 43.563 29.1606 43.5824C25.3122 43.5824 21.4637 43.0774 17.916 42.048C8.71578 39.4064 1.54004 33.288 1.54004 23.6346C1.54004 22.139 2.26162 20.7988 3.56448 19.6334C4.86734 18.4874 6.73143 17.5163 9.01644 16.7005L9.59771 18.2544C7.51314 18.9924 5.82945 19.8665 4.70698 20.8571C3.76492 21.6923 3.24378 22.6246 3.24378 23.6346C3.24378 32.4334 9.87833 38.0273 18.397 40.4747C21.8045 41.4458 25.4725 41.9314 29.1606 41.9314C32.8487 41.9314 36.5568 41.4264 39.9643 40.4553C48.6233 37.9691 55.3982 32.3363 55.3982 23.6346C55.3982 22.4498 54.7768 21.4009 53.6543 20.4686C52.3314 19.3615 50.3671 18.4486 47.9418 17.7105L48.4429 16.1372Z" fill="#593085"/>
<path d="M5.4294 22.2164C14.2487 25.2658 22.3465 26.878 30.1636 26.878C37.9608 26.8586 45.5374 25.227 53.3345 21.7891L54.036 23.2847C46.0184 26.8197 38.2213 28.5095 30.1636 28.5095C22.126 28.529 13.8479 26.878 4.86816 23.7702L5.4294 22.2164Z" fill="#593085"/>
<path d="M57.9245 26.8784C55.86 28.7819 53.8155 30.1416 51.8111 31.035C49.7866 31.9479 47.8023 32.3752 45.8179 32.4335L45.7578 30.7825C47.5217 30.7437 49.2856 30.3552 51.1096 29.5394C52.9536 28.7236 54.8377 27.4611 56.7619 25.6936L57.9245 26.8784Z" fill="#593085"/>
<path d="M2.01624 26.1599C3.49949 27.0728 4.94265 27.7915 6.36578 28.3159C7.76885 28.8598 9.13184 29.2094 10.4948 29.3842L10.2543 31.0158C8.77105 30.8215 7.26775 30.4331 5.74441 29.8503C4.22107 29.2871 2.67769 28.5101 1.11426 27.5584L2.01624 26.1599Z" fill="#593085"/>
<path d="M51.5501 37.1136C45.2362 38.0071 38.9825 38.2985 32.809 38.0265C26.6154 37.7352 20.502 36.8417 14.4688 35.385L14.8696 33.7922C20.8026 35.2296 26.8158 36.0842 32.8892 36.3755C38.9424 36.6669 45.0959 36.3561 51.3096 35.4821L51.5501 37.1136Z" fill="#593085"/>
<path d="M11.1409 24.2171C11.0407 24.6638 10.5797 24.9358 10.1187 24.8387C9.65769 24.7221 9.37707 24.2948 9.47729 23.8481L10.7601 18.6232C11.2011 16.778 12.1632 15.127 13.5262 13.981C14.7889 12.9127 16.4125 12.3106 18.2565 12.4466C18.7576 12.466 19.2187 12.5631 19.6596 12.6991C19.9603 12.7962 20.2609 12.9127 20.5616 13.0487L23.1272 11.9416C23.5682 11.7473 24.0693 11.9416 24.2497 12.3494C24.3299 12.5437 24.3499 12.7573 24.2898 12.9321L23.4279 15.9428C23.6083 16.3312 23.7486 16.7585 23.8488 17.1859C23.9691 17.7103 24.0092 18.2541 23.9691 18.8174L23.4279 26.1789C23.4078 26.645 23.007 26.9752 22.5259 26.9558C22.0649 26.917 21.7041 26.5285 21.7442 26.0818L22.2653 18.7009C22.2854 18.293 22.2653 17.9045 22.1852 17.5161C22.105 17.1276 21.9647 16.7585 21.7843 16.4089C21.6841 16.2341 21.664 16.0205 21.7041 15.8262L22.1852 14.1558L20.8823 14.7191C20.6418 14.8162 20.3411 14.8162 20.0806 14.6802C19.7999 14.5054 19.4792 14.3695 19.1585 14.2724C18.8378 14.1752 18.4971 14.117 18.1363 14.0781C16.7733 13.981 15.5707 14.4277 14.6286 15.2241C13.5462 16.137 12.7845 17.4772 12.4037 18.9922L11.1409 24.2171Z" fill="#593085"/>
<path d="M23.4471 25.8284C23.3669 26.2752 22.9259 26.5665 22.4649 26.4888C22.0039 26.4111 21.7033 25.9838 21.7834 25.5371L22.8057 20.118C23.1464 18.2533 23.9482 16.5052 25.211 15.2621C26.3535 14.0967 27.8568 13.3781 29.7008 13.3392C30.2019 13.3392 30.6629 13.3781 31.1239 13.4752C31.4246 13.5529 31.7453 13.6306 32.0459 13.7471L34.5114 12.4263C34.9122 12.2127 35.4334 12.3486 35.6539 12.7371C35.7541 12.9313 35.7942 13.1256 35.7541 13.3198L35.1728 16.3887C35.3933 16.7772 35.5737 17.1656 35.6939 17.5929C35.8543 18.0979 35.9545 18.6418 35.9545 19.2051L36.1149 26.586C36.1149 27.0521 35.7541 27.4212 35.273 27.4212C34.812 27.4406 34.4312 27.0715 34.4111 26.6248L34.2708 19.2439C34.2508 18.836 34.1906 18.4476 34.0704 18.0591C33.9501 17.6901 33.7898 17.321 33.5693 17.0102C33.4691 16.8354 33.4089 16.6218 33.449 16.4081L33.7697 14.7183L32.507 15.3981C32.2664 15.5146 31.9858 15.5341 31.7252 15.4175C31.4246 15.2621 31.1039 15.165 30.7631 15.0873C30.4224 15.0096 30.0816 14.9902 29.7409 14.9902C28.3779 15.0096 27.2755 15.5535 26.4336 16.3887C25.4114 17.3987 24.77 18.836 24.4693 20.4093L23.4471 25.8284Z" fill="#593085"/>
<path d="M36.0961 26.0427C36.056 26.5089 35.6551 26.8391 35.1941 26.8002C34.713 26.7614 34.3723 26.3729 34.4124 25.9067L34.9135 20.0215C35.0939 18.1568 35.8756 16.4281 37.1183 15.1656C38.321 13.9614 39.9445 13.2039 41.8487 13.165C42.3297 13.165 42.8108 13.2039 43.2518 13.301C43.5725 13.3787 43.8731 13.4758 44.1738 13.5729L46.6392 12.2521C47.0601 12.0385 47.5612 12.1744 47.8017 12.5823C47.902 12.7571 47.922 12.9514 47.8819 13.1456L47.3207 16.2339C47.5412 16.603 47.7015 17.0108 47.8418 17.4187C48.0022 17.9237 48.0824 18.4676 48.1024 19.0309L48.2227 24.8385C48.2227 25.2852 47.8619 25.6737 47.3808 25.6737C46.9198 25.6931 46.539 25.324 46.5189 24.8773L46.3987 19.0697C46.3987 18.6618 46.3185 18.2734 46.2183 17.8849C46.098 17.5158 45.9176 17.1662 45.7172 16.836C45.5969 16.6612 45.5368 16.4476 45.5769 16.2339L45.8976 14.5441L44.6348 15.2239C44.4143 15.3404 44.1137 15.3599 43.8531 15.2433C43.5524 15.1074 43.2317 14.9908 42.891 14.9131C42.5502 14.8548 42.2095 14.816 41.8687 14.816C40.4657 14.8354 39.243 15.4181 38.341 16.3116C37.3588 17.2828 36.7575 18.6618 36.6172 20.1574L36.0961 26.0427Z" fill="#593085"/>
<path d="M18.6379 18.1769C19.1693 18.1769 19.6 17.7595 19.6 17.2446C19.6 16.7297 19.1693 16.3123 18.6379 16.3123C18.1065 16.3123 17.6758 16.7297 17.6758 17.2446C17.6758 17.7595 18.1065 18.1769 18.6379 18.1769Z" fill="#593085"/>
<path d="M30.4035 19.2245C30.9349 19.2245 31.3656 18.8071 31.3656 18.2922C31.3656 17.7773 30.9349 17.3599 30.4035 17.3599C29.8722 17.3599 29.4414 17.7773 29.4414 18.2922C29.4414 18.8071 29.8722 19.2245 30.4035 19.2245Z" fill="#593085"/>
<path d="M42.1496 19.1088C42.681 19.1088 43.1117 18.6914 43.1117 18.1765C43.1117 17.6616 42.681 17.2441 42.1496 17.2441C41.6183 17.2441 41.1875 17.6616 41.1875 18.1765C41.1875 18.6914 41.6183 19.1088 42.1496 19.1088Z" fill="#593085"/>
<path d="M33.214 2.5644L30.8689 5.86637L29.4658 4.93405L31.831 1.63208L33.214 2.5644Z" fill="#593085"/>
<path d="M29.6458 0.388467L28.6636 4.29256L27 3.88467L28.0022 0L29.6458 0.388467Z" fill="#593085"/>
<path d="M36.0757 43.1357L0.277173 48.5743L0.0166016 46.9621L35.8151 41.5042L36.0757 43.1357Z" fill="#593085"/>
<path d="M22.6466 45.0387L14.5288 52.4779L13.3662 51.293L21.484 43.8345L22.6466 45.0387Z" fill="#593085"/>
</svg>
