<svg width="56" height="55" viewBox="0 0 56 55" fill="none" xmlns="http://www.w3.org/2000/svg">
<path fill-rule="evenodd" clip-rule="evenodd" d="M22.3987 31.2887C22.3132 31.2887 22.2278 31.2887 22.1423 31.2674C21.7578 31.2246 21.1382 31.1391 20.3264 31.8017C20.1128 31.9726 19.9418 32.2291 19.835 32.5069C19.6641 32.8703 19.6214 33.2977 19.6641 33.7038C19.7068 34.1098 19.8564 34.5159 20.1341 34.8365C20.3264 35.0716 20.5614 35.2639 20.8819 35.3922C21.3946 35.6059 21.886 35.6486 22.3132 35.5418C22.6551 35.4777 22.9542 35.3067 23.1892 35.1143C23.4455 34.9006 23.6378 34.6228 23.766 34.3022C23.9583 33.8747 24.001 33.3618 23.8728 32.8061L23.8301 32.6565L25.9878 30.6048L26.1374 30.904C26.7142 31.9299 26.9278 32.9771 26.821 33.9816C26.7356 34.9861 26.2869 35.9692 25.5392 36.8455C25.4537 36.9523 25.3683 37.0592 25.2615 37.1447C24.4069 37.9782 23.2105 38.427 21.9714 38.4484C20.7537 38.4911 19.4932 38.1064 18.5105 37.2515C18.3823 37.1447 18.2541 37.0378 18.1473 36.9096C17.2286 35.9478 16.78 34.6869 16.7586 33.4259C16.7586 32.165 17.2073 30.904 18.1046 29.985C18.9377 29.1515 19.9632 28.6172 21.0314 28.4462C22.0996 28.2753 23.2319 28.4676 24.2574 29.0233L24.5778 29.1729L22.5269 31.3101L22.3987 31.2887ZM25.8383 27.6982L25.4965 27.5272C23.8087 26.6082 23.531 26.4586 21.3091 26.4586C19.6641 26.4586 17.9764 27.2921 16.7373 28.6172C15.5836 29.8782 14.7931 31.6093 14.7931 33.5328C14.7931 35.3494 15.5836 37.0378 16.78 38.2774C18.0191 39.5597 19.6855 40.3932 21.3091 40.3932C22.2491 40.3932 22.9755 40.3505 23.6378 40.1795C24.3214 40.0299 24.941 39.7307 25.7101 39.2178C27.291 38.1492 28.3165 36.5463 28.6583 34.7724C29.0001 33.0199 28.6583 31.0964 27.526 29.408L27.3978 29.2156L31.1365 25.4114L31.3288 25.6892C31.4143 25.8175 31.5211 25.9457 31.6065 26.0739C31.692 26.1808 31.7774 26.2877 31.8843 26.4159C32.3115 27.0143 32.7388 27.8051 33.0806 28.6172C33.4225 29.4507 33.7216 30.3056 33.8497 31.0323C34.0207 32.0154 34.1061 32.7848 34.1061 33.5328C34.0847 34.3022 33.9779 35.0502 33.7857 35.9906C33.7216 36.418 33.6147 36.8027 33.4866 37.166C33.3584 37.5721 33.2302 37.9354 33.0593 38.2774C32.1193 40.3719 30.5597 42.274 28.6583 43.599C26.821 44.8814 24.706 45.6721 22.5482 45.6721C21.3519 45.6721 20.4119 45.6508 19.4718 45.5012C18.5318 45.3302 17.6132 45.031 16.4809 44.4753C15.6691 44.0479 15.2204 43.8341 14.8145 43.5563C14.43 43.2785 14.0881 42.9793 13.4686 42.4022C12.849 41.8252 12.3363 41.2695 11.8663 40.6283C11.4177 40.0085 11.0331 39.346 10.6486 38.5552C9.75127 36.6959 9.40945 34.5159 9.58036 32.3787C9.75127 30.2629 10.4563 28.1684 11.6313 26.5228L11.9518 26.0953C12.0586 25.9671 12.1654 25.8175 12.2722 25.6679C12.2936 25.6465 12.8918 24.9198 12.9559 24.8771C13.255 24.5138 13.8104 24.065 14.4086 23.6375C15.1136 23.146 15.8827 22.6758 16.3954 22.3979C17.9123 21.6499 19.6 21.2438 21.3091 21.1797C23.061 21.1156 24.8128 21.4148 26.4365 22.056C27.6756 22.5689 28.0388 22.8254 28.701 23.2956C28.9147 23.4452 29.1711 23.6161 29.4701 23.8299L29.7479 24.0222L26.0092 27.8051L25.8383 27.6982ZM7.57215 33.2122C7.57215 35.093 7.84988 36.7172 8.40535 38.2133C8.93944 39.688 9.75127 41.0558 10.7981 42.4236C10.9476 42.5946 11.0758 42.7442 11.2254 42.8938C11.3536 43.0434 11.5031 43.1716 11.6527 43.364C11.9945 43.77 12.4645 44.1761 12.9772 44.5608C13.4686 44.9455 14.0027 45.3088 14.4727 45.608C14.6436 45.7149 14.8359 45.8217 15.0282 45.9286C15.2418 46.0355 15.4341 46.1423 15.6263 46.2278C18.7027 47.788 22.2492 48.0444 25.4965 47.1468C28.7224 46.2492 31.6706 44.2402 33.6575 41.2267C34.042 40.6497 34.2343 40.2864 34.5334 39.6666L34.5761 39.6025C35.5375 37.7217 36.0075 35.6914 36.0289 33.6183C36.0289 31.5452 35.5802 29.4294 34.6616 27.399C34.2343 26.4159 33.9352 25.9885 33.4225 25.2404L33.2729 25.0267C33.2088 24.9412 33.1234 24.8557 33.0593 24.7702C32.9097 24.5779 32.7602 24.4283 32.6747 24.1291L32.632 23.9795C33.807 22.7826 34.982 21.5858 36.157 20.4103L36.328 20.5386C36.8193 20.8592 37.4175 21.6499 37.9943 22.5689C38.7634 23.7871 39.5112 25.2191 39.8316 26.0098C40.8785 28.5745 41.3912 31.3956 41.2844 34.2167C41.1989 36.9523 40.5366 39.6452 39.2975 42.0389C38.4003 43.7486 38.2721 43.9196 37.3748 45.1378L36.9689 45.6508C36.7766 45.9286 36.5843 46.1423 36.3707 46.356C36.2211 46.527 36.0502 46.7194 35.8793 46.9331C35.7084 47.1468 35.3452 47.4674 34.9393 47.8307C34.3625 48.3436 33.6788 48.878 33.337 49.1344C32.867 49.4977 32.3756 49.8183 31.9056 50.0962C31.4143 50.3954 30.9015 50.6732 30.3461 50.951C27.761 52.2334 24.7915 52.8959 21.8219 52.9173C18.8737 52.9173 15.9254 52.2975 13.3404 50.9938C12.2295 50.4381 11.3108 49.9038 10.4349 49.284C9.559 48.6429 8.74717 47.9376 7.82852 47.04C7.63625 46.8262 7.44397 46.6339 7.27306 46.4202C7.10215 46.2278 6.93124 46.0355 6.73896 45.8217C6.11941 45.0523 5.67077 44.4112 5.24349 43.7273C4.83758 43.0647 4.47439 42.3595 4.02575 41.4618C2.31664 38.0209 1.93209 34.003 2.59437 30.1988C3.29938 26.2663 5.11531 22.5262 7.82852 19.8333L8.08489 19.5768C8.38398 19.2776 8.61899 19.0212 9.0249 18.7219C9.19581 18.5723 9.36672 18.4441 9.51627 18.2945C9.77264 18.0808 10.029 17.8671 10.3495 17.6533L10.734 17.3755C11.0331 17.1618 11.3108 16.9694 11.7168 16.7343C12.0586 16.4779 12.8277 16.0932 13.255 15.8581C15.7545 14.6399 18.5105 13.9987 21.2664 13.956C24.0651 13.8919 26.8851 14.4048 29.4915 15.4948C30.2179 15.794 31.5638 16.5206 32.7175 17.2473C33.572 17.8243 34.3411 18.4014 34.6188 18.8288L34.747 18.9998L31.1365 22.6758L30.9656 22.5689C30.5597 22.3125 30.282 22.0774 30.0042 21.8636C29.4274 21.3935 28.872 20.9446 27.3338 20.3035C26.1801 19.8333 25.2401 19.5555 24.2787 19.4058C23.3173 19.2562 22.3346 19.2349 21.0741 19.2349C20.0059 19.2349 19.0446 19.4272 18.1473 19.6837C17.2286 19.9402 16.3741 20.2821 15.5836 20.6241C14.43 21.0942 13.5968 21.7995 12.849 22.4407C12.5713 22.6758 12.3149 22.8895 12.0586 23.0818C11.8022 23.2742 11.4604 23.6375 11.1186 24.0222C10.6913 24.5138 10.2854 25.0481 10.0717 25.39C9.30263 26.5441 8.66171 27.8265 8.21307 29.237C7.80716 30.4766 7.57215 31.823 7.57215 33.2122ZM39.3403 10.1731C39.3403 9.38234 39.6821 8.5702 40.1307 7.8863C40.8144 6.86044 41.7544 6.0483 42.1176 5.96281L42.4594 5.85595V7.48023C42.4594 8.37786 42.4594 9.27548 42.4594 10.1517C42.4594 10.3441 42.4808 10.5151 42.4808 10.6433C42.4808 10.9211 42.4808 11.0921 42.438 11.2417C42.3739 11.4554 42.2458 11.5837 41.9467 11.8615L41.9039 11.9042C41.8185 11.9897 41.733 12.0966 41.6476 12.1821C41.3912 12.4813 41.1135 12.7805 40.6862 12.9087L40.4298 12.9729L40.3657 12.7164C40.3016 12.524 40.1948 12.3531 40.0666 12.1607C39.9598 12.0111 39.8744 11.8615 39.7675 11.6692C39.6607 11.4554 39.5325 11.1776 39.4471 10.857C39.383 10.6219 39.3403 10.3868 39.3403 10.1731ZM45.2367 15.8581C44.1258 15.8581 43.4421 15.4093 42.9508 15.0887C42.7585 14.9605 42.5876 14.8536 42.4594 14.8322L42.203 14.7467L42.2885 14.4903C42.4167 13.9987 45.2581 11.2203 46.9885 9.55332C47.5654 8.97627 48.014 8.52746 48.1849 8.35648C48.6977 7.82218 48.7617 7.82218 49.4027 7.84355C49.5308 7.86493 49.6804 7.86493 49.8727 7.86493C50.3427 7.86493 50.8127 7.86493 51.2613 7.86493H52.2441L52.1586 8.18551C51.945 9.16862 50.599 11.7546 48.9327 13.6354C47.8004 14.8963 46.4972 15.8581 45.2367 15.8581ZM44.4035 8.69844V4.18893L44.6171 4.14618C44.7453 4.10344 45.1299 3.91109 45.5358 3.69737C46.0485 3.41953 46.6467 3.09895 46.9885 3.01346L47.309 2.92798V5.19342C47.309 5.38576 47.3304 5.55674 47.3304 5.68497C47.3517 6.28339 47.3731 6.47574 46.8817 6.94593C46.7108 7.09553 46.4972 7.33062 46.2835 7.56572C45.7708 8.07865 45.2153 8.65569 44.8308 8.91216L44.4035 9.18999V8.69844ZM37.3748 10.0449C37.3748 11.6478 38.0798 12.6736 38.6566 13.5072C38.8489 13.8064 39.0198 14.0628 39.1694 14.3407L39.2548 14.5116L36.2639 17.5465L34.7257 16.3283C32.9952 15.0246 30.9656 13.9132 28.7865 13.1225C26.821 12.4386 24.7487 12.0111 22.6551 12.0111C20.5828 12.0111 18.9164 12.118 17.3568 12.4172C15.7973 12.7378 14.3018 13.2507 12.5286 14.0628C12.379 14.1269 12.2722 14.1911 12.144 14.2552C12.0158 14.3193 11.8877 14.4048 11.7595 14.4689C11.5886 14.5758 11.4604 14.6612 11.3108 14.7254C11.1827 14.7895 11.0331 14.8536 10.8836 14.9605L8.55489 16.5634C7.2517 17.5251 6.09805 18.7006 5.09394 20.0043C3.96166 21.4576 3.00028 23.0605 2.20982 24.7061C0.970711 27.2494 0.393886 30.0705 0.351159 32.913C0.329795 35.9265 0.90662 38.9613 2.01754 41.6969C2.35936 42.5518 3.14983 44.0906 4.00438 45.3943C4.6453 46.3774 5.28622 47.2323 5.75622 47.5529L5.99123 47.7025L5.84168 47.9162C5.47849 48.4719 4.43166 49.455 3.36347 50.4809C1.91072 51.87 0.351159 53.3447 0.351159 53.7508C0.351159 54.1355 0.436614 54.4133 0.607525 54.5843C0.7998 54.7553 1.07753 54.8408 1.44072 54.8408C1.82527 54.8408 2.27391 54.3492 2.61573 53.9859C2.70119 53.879 2.78664 53.7935 2.85073 53.708L4.26075 52.2975C4.47439 52.1051 4.70939 51.8487 4.9444 51.5922C5.69213 50.8228 6.65351 49.8183 7.16624 49.4764L7.27306 49.4123L7.37988 49.4336C7.7217 49.5191 7.80716 49.626 7.9567 49.7756C7.99943 49.8183 8.04216 49.8824 8.12762 49.9466L10.2213 51.464C11.674 52.4257 13.5113 53.302 15.4554 53.9218C17.2714 54.4988 19.1514 54.8408 20.8605 54.8408C22.8046 54.8408 24.3001 54.7766 25.7315 54.5416C27.1415 54.2851 28.5301 53.8576 30.3033 53.131C31.1152 52.789 31.9697 52.3402 32.7816 51.8273C33.7002 51.2716 34.5761 50.6518 35.3452 50.032L35.5802 49.8611C35.7511 49.7115 35.9007 49.5832 36.0716 49.4764L36.2211 49.3695L36.3707 49.4764C37.0757 49.9466 37.9302 50.8869 38.8275 51.87C40.1521 53.3233 41.5621 54.8408 42.4167 54.8408C42.6089 54.8408 42.7585 54.798 42.8653 54.7125C42.9935 54.627 43.0789 54.5202 43.1217 54.3919C43.1858 54.2423 43.2285 54.1141 43.2285 53.9431C43.2285 53.7294 43.1644 53.5157 43.0149 53.3233C42.8012 53.0241 41.733 51.9983 40.6221 50.9297C39.383 49.7115 38.0584 48.4291 37.8021 48.0444L37.6952 47.8948L37.8021 47.7452C37.9089 47.5743 38.0371 47.4246 38.1866 47.2537L38.3575 47.0186C39.7889 45.2233 41.0494 43.1502 41.9039 40.9275C42.6944 38.9186 43.1644 36.7814 43.1644 34.6655C43.1644 34.3236 43.2071 34.1312 43.2285 33.9602C43.2712 33.832 43.2926 33.6824 43.2926 33.4259L43.1217 31.1391C42.9508 29.8782 42.8012 29.0019 42.6089 28.147C42.3953 27.2921 42.0962 26.4373 41.6262 25.2618C41.3057 24.471 40.9212 23.6589 40.4726 22.8681C40.0025 22.056 39.4898 21.2652 38.9771 20.5599C38.8062 20.3462 38.6139 20.1325 38.443 19.9402C38.208 19.6623 37.9943 19.4058 37.8021 19.128L37.6739 18.9357L40.6648 15.9008L40.8357 16.0077C41.1348 16.1573 41.3271 16.3069 41.5407 16.4779C41.8185 16.6702 42.1176 16.8839 42.6517 17.1618C44.9803 18.3159 46.9672 17.8243 48.6122 16.5847C50.2999 15.3024 51.6672 13.2721 52.7568 11.4554C53.12 10.857 53.8463 9.3396 54.4232 7.97179C54.7864 7.13828 55.0855 6.39025 55.1923 5.92007H49.2745V0C48.3986 0.256465 47.2449 0.726651 46.0699 1.28232C44.5317 2.03035 42.9294 2.9066 41.968 3.56914C40.8785 4.29579 39.4898 5.38576 38.5284 6.75358C37.8448 7.73669 37.3748 8.84804 37.3748 10.0449Z" fill="#593085"/>
</svg>
