<svg width="61" height="61" viewBox="0 0 61 61" fill="none" xmlns="http://www.w3.org/2000/svg">
<path fill-rule="evenodd" clip-rule="evenodd" d="M11.3427 43.591C11.6744 43.2723 12.0572 43.0046 12.491 42.8261C12.9121 42.6603 13.3586 42.5711 13.8435 42.5711C14.3155 42.5711 14.7749 42.6603 15.1831 42.8261C15.617 43.0046 16.0125 43.2723 16.3315 43.591C16.6504 43.9098 16.9184 44.305 17.097 44.7385C17.2629 45.1465 17.3522 45.6055 17.3522 46.0772V50.6288C17.3522 50.7563 17.3394 50.8583 17.3011 50.9731C17.2501 51.0751 17.1863 51.1771 17.1097 51.2536C17.0332 51.3301 16.9311 51.3938 16.8291 51.4321C16.727 51.4703 16.6121 51.4958 16.4973 51.4958H11.1896C11.062 51.4958 10.9599 51.4703 10.8451 51.4321C10.743 51.3938 10.641 51.3301 10.5644 51.2536C10.4879 51.1771 10.4241 51.0751 10.3858 50.9731C10.3475 50.8583 10.322 50.7563 10.322 50.6288V46.0772C10.322 45.6055 10.4113 45.1465 10.5899 44.7385C10.7686 44.305 11.0237 43.9098 11.3427 43.591ZM12.0572 49.7619H15.6297V46.0772C15.6297 45.835 15.5787 45.6055 15.4894 45.3887C15.4 45.172 15.2725 44.9808 15.1066 44.815C14.9407 44.6493 14.7493 44.5218 14.5324 44.4325C14.3155 44.3433 14.0859 44.2923 13.8435 44.2923C13.5883 44.2923 13.3586 44.3433 13.1545 44.4325C12.9376 44.5218 12.7334 44.6493 12.5676 44.815C12.4017 44.9808 12.2741 45.172 12.1848 45.3887C12.0955 45.6055 12.0572 45.835 12.0572 46.0772V49.7619ZM14.979 34.4623H15.1704V33.0853C15.1704 32.9578 15.1959 32.8431 15.2342 32.7411C15.2852 32.6391 15.3363 32.5371 15.4256 32.4606C15.5021 32.3841 15.5914 32.3204 15.7063 32.2821C15.8083 32.2439 15.9232 32.2184 16.038 32.2184H19.6488C19.7636 32.2184 19.8784 32.2439 19.9805 32.2821C20.0953 32.3204 20.1847 32.3841 20.2612 32.4606C20.2867 32.4734 20.2995 32.4988 20.3122 32.5116V31.0709L18.6536 21.3939C18.6153 21.2664 18.6153 21.1389 18.6408 21.0242C18.6791 20.8967 18.7429 20.7692 18.8322 20.6799C18.9088 20.5652 19.0108 20.4759 19.1257 20.4249C19.2533 20.3612 19.3936 20.3357 19.5339 20.3357H24.7524C25.0075 20.3357 25.2244 20.4249 25.3775 20.5779C25.5434 20.7309 25.6327 20.9604 25.6327 21.2154V23.5868H29.588V21.2154C29.588 20.9604 29.6773 20.7309 29.8304 20.5779C29.9835 20.4249 30.2004 20.3357 30.4684 20.3357H35.8909C36.1589 20.3357 36.3758 20.4249 36.5289 20.5779C36.6947 20.7309 36.784 20.9604 36.784 21.2154V23.5868H37.7665V0.892475C37.7665 0.624733 37.8558 0.407989 38.0089 0.254993C38.162 0.0892475 38.3917 0 38.6469 0C38.902 0 39.1317 0.0892475 39.2848 0.254993C39.4379 0.407989 39.5272 0.624733 39.5272 0.892475V1.96345C42.2194 1.01997 44.7839 2.58818 45.256 2.88142L45.307 2.91967L45.3325 2.93242L45.3453 2.94517C45.4346 3.03442 45.5239 3.14916 45.5877 3.27666C45.6515 3.39141 45.6898 3.5189 45.6898 3.63365V4.23288C45.8429 4.24563 46.1108 4.24563 46.5574 4.15638C47.1698 4.04164 48.0885 3.7739 49.4409 3.20016H49.4537C51.5461 2.34594 53.409 2.15469 54.9528 2.28219C57.9639 2.51168 59.8012 3.92689 59.9033 4.02889C60.0308 4.15638 60.1074 4.30938 60.1584 4.46238C60.1967 4.62812 60.2095 4.80662 60.1584 4.97236V4.99786L60.1457 5.01061C60.0564 5.18911 59.9543 5.3421 59.8139 5.4441C59.6864 5.5461 59.5332 5.60984 59.3546 5.60984C58.8698 5.63534 58.4487 5.72459 58.0915 5.83934C57.8618 5.90309 57.6577 5.97958 57.4663 6.04333C59.0101 7.01231 59.8267 8.84826 60.0691 9.40924C60.1074 9.48574 60.1074 9.52399 60.1202 9.52399L60.1584 9.56223V9.61323C60.1967 9.81723 60.1967 10.0085 60.1457 10.1742C60.0946 10.3527 59.9798 10.5057 59.8139 10.6332L59.8012 10.646H59.7884C59.6098 10.7352 59.4057 10.7862 59.227 10.7607C59.0356 10.748 58.8698 10.6842 58.7294 10.5567C58.6912 10.5057 57.8746 9.86823 56.1904 9.91922C55.31 9.93197 54.1872 10.1487 52.822 10.7225C51.6737 11.2197 50.4234 11.5894 49.2113 11.8444C47.8843 12.1249 46.5957 12.2652 45.5239 12.2652C44.8349 12.2652 44.2225 12.2269 43.7377 12.1377C43.2401 12.0357 42.8701 11.8699 42.6532 11.6277C42.5001 11.4619 42.3852 11.2834 42.3469 11.0794C42.3087 10.8754 42.3214 10.6587 42.4107 10.4547V10.442C42.449 10.3655 42.4618 10.3017 42.449 10.2252C41.8749 10.2125 41.339 10.238 40.8669 10.3017C40.28 10.3782 39.7824 10.5057 39.4634 10.6205V23.5231H40.5862V21.1389C40.5862 20.8839 40.6755 20.6672 40.8286 20.5142C40.9945 20.3484 41.2114 20.2592 41.4666 20.2592H46.685C46.9402 20.2592 47.1698 20.3484 47.3229 20.5142C47.476 20.6672 47.5654 20.8839 47.5654 21.1389V23.5231H51.3803V21.1389C51.3803 20.8839 51.4696 20.6672 51.6227 20.5142C51.7758 20.3484 51.9927 20.2592 52.2606 20.2592H57.0325C57.1601 20.2592 57.2877 20.2974 57.3897 20.3612C57.5301 20.4249 57.6449 20.5142 57.7342 20.6034C57.8235 20.6927 57.9001 20.8074 57.9256 20.9477C57.9511 21.0624 57.9511 21.1899 57.9129 21.3302L56.2542 30.9944V59.0564C56.2542 59.3114 56.1649 59.5409 56.0118 59.6938C55.8459 59.8468 55.629 59.9361 55.3738 59.9361C55.1059 59.9361 54.889 59.8468 54.7359 59.6938C54.5828 59.5409 54.4935 59.3114 54.4935 59.0564V32.0144H22.0857V59.1329C22.0857 59.3879 21.9964 59.6046 21.8306 59.7703C21.6775 59.9233 21.4605 60.0126 21.1926 60.0126C20.9374 60.0126 20.7205 59.9233 20.5674 59.7703C20.4016 59.6046 20.3122 59.3879 20.3122 59.1329V40.8499H2.89628V59.3369C2.89628 59.4516 2.87076 59.5663 2.83249 59.6683C2.79421 59.7703 2.73041 59.8723 2.65386 59.9488C2.57731 60.0253 2.47524 60.0891 2.37316 60.1401C2.25833 60.1783 2.15626 60.1911 2.02867 60.1911C1.91384 60.1911 1.79901 60.1783 1.69694 60.1401C1.58211 60.0891 1.4928 60.0253 1.41624 59.9488C1.32693 59.8723 1.26314 59.7831 1.22486 59.6683C1.18658 59.5663 1.16106 59.4516 1.16106 59.3369V39.9574L0.0255179 33.3148C0.0127589 33.2511 0 33.1873 0 33.1363C0 33.0598 0 32.9961 0.0127589 32.9323C0.0382768 32.8686 0.0637947 32.8048 0.0893126 32.7411C0.127589 32.6901 0.153107 32.6391 0.204143 32.6008C0.229661 32.5498 0.280697 32.5116 0.318974 32.4734C0.370009 32.4224 0.421045 32.3841 0.48484 32.3586C0.548635 32.3204 0.612429 32.3076 0.676224 32.2821C0.740019 32.2694 0.816573 32.2694 0.880367 32.2694H4.47839C4.60598 32.2694 4.72081 32.2821 4.82288 32.3331C4.92495 32.3714 5.02703 32.4351 5.10358 32.5116C5.18013 32.5881 5.24393 32.6901 5.2822 32.7921C5.33324 32.8941 5.346 33.0088 5.346 33.1363V34.5133H7.56606V33.1363C7.56606 33.0088 7.59157 32.8941 7.62985 32.7921C7.66813 32.6901 7.73192 32.5881 7.80848 32.5116C7.89779 32.4351 7.9871 32.3714 8.10193 32.3331C8.204 32.2821 8.31883 32.2694 8.43366 32.2694H12.1848C12.3124 32.2694 12.4272 32.2821 12.5293 32.3331C12.6314 32.3714 12.7334 32.4351 12.81 32.5116C12.8865 32.5881 12.9503 32.6901 12.9886 32.7921C13.0269 32.8941 13.0524 33.0088 13.0524 33.1363V34.5133H13.3714V34.526H14.7238V34.4623H14.979ZM20.3122 36.2472H19.6488C19.5212 36.2472 19.4064 36.2217 19.3043 36.1835C19.2022 36.1452 19.1001 36.0815 19.0236 36.005C18.947 35.9158 18.8832 35.8265 18.845 35.7118C18.7939 35.6098 18.7812 35.495 18.7812 35.3803V34.0033H16.9056V35.3803C16.9056 35.495 16.8801 35.6098 16.8418 35.7245C16.8035 35.8265 16.7397 35.9285 16.6632 36.005C16.5866 36.0815 16.4846 36.1452 16.3825 36.1835C16.2677 36.2217 16.1656 36.2472 16.038 36.2472H12.1338C12.0189 36.2472 11.9041 36.2217 11.802 36.1835C11.6872 36.1452 11.5979 36.0815 11.5213 36.005C11.432 35.9158 11.381 35.8265 11.3299 35.7118C11.2917 35.6098 11.2789 35.495 11.2789 35.3803V34.0033H9.25024V35.3803C9.25024 35.495 9.22472 35.6098 9.18644 35.7245C9.14816 35.8265 9.08437 35.9285 9.00782 36.005C8.93126 36.0815 8.82919 36.1452 8.72712 36.1835C8.61229 36.2217 8.51022 36.2472 8.38263 36.2472H4.42735C4.31252 36.2472 4.19769 36.2217 4.09562 36.1835C3.99355 36.1452 3.89148 36.0815 3.81493 36.005C3.73837 35.9285 3.67458 35.8265 3.62354 35.7245C3.58526 35.6098 3.57251 35.495 3.57251 35.3803V34.0033H1.86281L2.78145 39.1159H20.3122V36.2472ZM34.9468 36.617C35.7888 35.7628 36.9754 35.24 38.2896 35.24C39.591 35.24 40.7776 35.7628 41.6324 36.617C42.4873 37.4712 43.0104 38.6442 43.0104 39.9574V46.5362C43.0104 46.804 42.9211 47.0207 42.7552 47.1737C42.6021 47.3267 42.3852 47.4159 42.1173 47.4159H34.4492C34.1812 47.4159 33.9643 47.3267 33.8112 47.1737C33.6581 47.0207 33.5688 46.804 33.5688 46.5362V39.9574C33.5688 38.6442 34.0919 37.4712 34.9468 36.617ZM35.3295 45.6565H41.2369V39.9574C41.2369 39.1287 40.9179 38.3892 40.3821 37.8665C39.8462 37.331 39.1062 36.9995 38.2896 36.9995C37.4603 36.9995 36.7202 37.331 36.1844 37.8665C35.6613 38.3892 35.3295 39.1287 35.3295 39.9574V45.6565ZM42.1045 25.1168C41.9514 25.2698 41.7345 25.359 41.4666 25.359H35.8271C35.5592 25.359 35.3423 25.2698 35.1892 25.1168C35.0233 24.9511 34.934 24.7343 34.934 24.4793V22.0951H31.2722V24.4793C31.2722 24.7343 31.1829 24.9511 31.0298 25.1168C30.8767 25.2698 30.6597 25.359 30.3918 25.359H24.6758C24.4079 25.359 24.191 25.2698 24.0379 25.1168C23.8847 24.9511 23.7954 24.7343 23.7954 24.4793V22.0951H20.5164L21.9837 30.2422H54.519L55.9735 22.0951H53.141V24.4793C53.141 24.7343 53.0517 24.9511 52.8986 25.1168C52.7455 25.2698 52.5158 25.359 52.2606 25.359H46.685C46.417 25.359 46.2001 25.2698 46.047 25.1168C45.8939 24.9511 45.8046 24.7343 45.8046 24.4793V22.0951H42.3597V24.4793C42.3597 24.7343 42.2704 24.9511 42.1045 25.1168ZM40.9435 8.47851C41.5686 8.41477 42.2576 8.40202 42.9977 8.46576H43.0614C43.3677 8.46576 43.6356 8.51676 43.9163 8.58051V4.66637H43.8397V4.01614C43.3932 3.76115 42.5511 3.39141 41.5686 3.32766C40.9179 3.28941 40.2162 3.39141 39.5272 3.73565V8.72076C39.9355 8.61876 40.4076 8.52951 40.9435 8.47851ZM47.8843 10.3527C49.1602 10.1487 50.602 9.76623 52.0437 9.12875C53.1538 8.64426 54.149 8.37652 55.0166 8.24902C55.8842 8.12152 56.637 8.14702 57.2366 8.24902C57.007 7.98128 56.7518 7.72629 56.4583 7.53504C56.1266 7.30555 55.7566 7.15255 55.3738 7.12705C55.1824 7.12705 55.0038 7.07605 54.8635 6.97406C54.7231 6.88481 54.6083 6.74456 54.57 6.56607C54.519 6.42582 54.5062 6.26008 54.5317 6.10708C54.5573 5.95408 54.6338 5.81384 54.7486 5.69909C54.9017 5.5461 55.1569 5.30385 55.5397 5.04886C55.8332 4.84487 56.2032 4.62812 56.6497 4.43688C55.9607 4.22013 55.1314 4.04164 54.149 4.02889C52.9624 4.01614 51.5717 4.23288 50.0023 4.87037C48.9561 5.32935 48.0885 5.62259 47.3867 5.81384C46.6212 6.00508 46.047 6.06883 45.6132 6.04333V9.79173C45.6132 9.91922 45.5877 10.0595 45.5239 10.1997C45.4601 10.3145 45.3708 10.4165 45.256 10.493C45.2177 10.5185 45.1922 10.5312 45.1539 10.5567C45.8684 10.5822 46.8126 10.5312 47.8843 10.3527Z" fill="#593085"/>
</svg>
