<svg width="49" height="53" viewBox="0 0 49 53" fill="none" xmlns="http://www.w3.org/2000/svg">
<path fill-rule="evenodd" clip-rule="evenodd" d="M8.30399 36.0673C8.12506 36.2432 8.01323 36.4851 8.01323 36.749C8.01323 37.0349 8.12506 37.2769 8.30399 37.4528C8.48292 37.6287 8.72894 37.7387 8.99733 37.7387H9.26572C9.53411 37.7387 9.78014 37.6287 9.95906 37.4528C10.138 37.2769 10.2498 37.0349 10.2498 36.749C10.2498 36.4851 10.138 36.2432 9.95906 36.0673C9.78014 35.8913 9.53411 35.7814 9.26572 35.7814H8.99733C8.72894 35.7814 8.48292 35.8913 8.30399 36.0673ZM31.229 14.6028C30.5133 14.8448 29.9318 15.2846 29.5068 15.8564C29.0819 16.4282 28.8582 17.132 28.8582 17.8577C28.8582 18.8034 29.2384 19.6611 29.887 20.2768C30.5133 20.9146 31.3855 21.2885 32.3473 21.2885H42.0764C43.0382 21.2885 43.9104 20.9146 44.5367 20.2768C45.1629 19.6611 45.5655 18.8034 45.5655 17.8577C45.5655 17.132 45.3195 16.4282 44.8945 15.8564C44.4919 15.2846 43.8881 14.8448 43.1724 14.6028C42.9263 14.5149 42.6579 14.5369 42.4343 14.6688C42.1883 14.7788 42.0093 14.9547 41.9199 15.2186C41.8304 15.4825 41.8751 15.7464 41.987 15.9664C42.0988 16.1863 42.2777 16.3622 42.5461 16.4502C42.8592 16.5602 43.1053 16.7361 43.2842 17C43.4855 17.2419 43.5749 17.5498 43.5749 17.8577C43.5749 18.2756 43.4184 18.6494 43.1276 18.9133C42.8592 19.1772 42.479 19.3532 42.0764 19.3532H32.3473C31.9223 19.3532 31.5421 19.1772 31.2737 18.9133C31.0053 18.6494 30.8264 18.2756 30.8264 17.8577C30.8264 17.5498 30.9382 17.2419 31.1172 17C31.2961 16.7361 31.5645 16.5602 31.8552 16.4502C32.1236 16.3622 32.3249 16.1863 32.4367 15.9664C32.5486 15.7464 32.5709 15.4825 32.4815 15.2186C32.392 14.9547 32.2131 14.7788 31.9894 14.6688C31.7658 14.5369 31.4974 14.5149 31.229 14.6028ZM15.1032 45.502C14.8572 45.414 14.5888 45.436 14.3428 45.5459C14.1191 45.6559 13.9402 45.8538 13.8507 46.0957C13.7613 46.3596 13.7836 46.6236 13.8955 46.8435C14.0073 47.0634 14.2086 47.2393 14.477 47.3273C14.7901 47.4373 15.0361 47.6352 15.215 47.8771C15.394 48.119 15.5058 48.4269 15.5058 48.7348C15.5058 49.1527 15.3492 49.5265 15.0585 49.7904C14.7901 50.0543 14.4099 50.2303 14.0073 50.2303H4.27814C3.85318 50.2303 3.47296 50.0543 3.20457 49.7904C2.93618 49.5265 2.75726 49.1527 2.75726 48.7348C2.75726 48.4269 2.86909 48.119 3.04801 47.8771C3.22694 47.6352 3.49533 47.4373 3.78609 47.3273C4.05448 47.2393 4.25577 47.0634 4.3676 46.8435C4.47943 46.6236 4.50179 46.3596 4.41233 46.0957C4.32287 45.8538 4.14394 45.6559 3.92028 45.5459C3.69662 45.436 3.42823 45.414 3.15984 45.502C2.44414 45.7219 1.86262 46.1837 1.43767 46.7335C1.01272 47.3053 0.789062 48.0091 0.789062 48.7348C0.789062 49.6805 1.16928 50.5382 1.81789 51.176C2.44414 51.7917 3.3164 52.1656 4.27814 52.1656H14.0073C14.969 52.1656 15.8413 51.7917 16.4675 51.176C17.0938 50.5382 17.4964 49.6805 17.4964 48.7348C17.4964 48.0091 17.2503 47.3053 16.8254 46.7335C16.4228 46.1837 15.8189 45.7219 15.1032 45.502ZM3.98738 39.828C4.52416 41.1255 5.30696 42.6869 6.2687 44.5343L6.9844 45.9418C7.25279 46.4916 7.74484 47.5252 9.13153 47.5252C10.5182 47.5252 11.0326 46.4916 11.301 45.9418L12.0167 44.5343C12.9561 42.6869 13.7389 41.1255 14.2757 39.828C14.8125 38.5304 15.1032 37.4968 15.1032 36.749C15.1032 35.1436 14.4322 33.6701 13.3587 32.6145C12.2627 31.5589 10.7866 30.8991 9.13153 30.8991C7.49882 30.8991 6.00031 31.5589 4.92674 32.6145C3.83082 33.6701 3.15984 35.1436 3.15984 36.749C3.15984 37.4968 3.47296 38.5304 3.98738 39.828ZM8.01323 43.6546C7.16333 41.9832 5.1504 38.0906 5.1504 36.749C5.1504 35.6714 5.59772 34.7038 6.31343 33.978C7.02914 33.2743 8.0356 32.8344 9.13153 32.8344C10.2275 32.8344 11.2339 33.2743 11.9496 33.978C12.6653 34.7038 13.1126 35.6714 13.1126 36.749C13.1126 38.0906 11.0997 41.9832 10.2498 43.6546L9.51174 45.1061L9.37755 45.348C9.33282 45.414 9.28809 45.502 9.26572 45.5459C9.24335 45.5459 9.24335 45.5459 9.24335 45.5679C9.19862 45.5899 9.17626 45.5899 9.13153 45.5899C9.08679 45.6119 9.04206 45.5899 9.0197 45.5459H8.99733C8.9526 45.48 8.0356 43.6546 8.01323 43.6546ZM48.9427 8.55498V0.989651C48.9427 0.703752 48.8309 0.461837 48.652 0.285899C48.4731 0.109961 48.227 0 47.9586 0H37.2007C36.9323 0 36.6863 0.109961 36.5073 0.285899C36.3284 0.461837 36.2166 0.703752 36.2166 0.989651C36.2613 5.47607 36.2166 10.0505 36.2166 14.5589H35.2772C35.0088 14.5589 34.7628 14.6688 34.5839 14.8448C34.4049 15.0207 34.2931 15.2626 34.2931 15.5265C34.2931 15.7904 34.4049 16.0323 34.5839 16.2083C34.7628 16.3842 35.0088 16.4942 35.2772 16.4942H39.1241C39.3925 16.4942 39.6609 16.3842 39.8398 16.2083C40.0188 16.0323 40.1082 15.7904 40.1082 15.5265C40.1082 15.2626 40.0188 15.0207 39.8398 14.8448C39.6609 14.6688 39.3925 14.5589 39.1241 14.5589H38.1848V9.52264H47.9586C48.227 9.52264 48.4731 9.41268 48.652 9.23674C48.8309 9.0608 48.9427 8.81889 48.9427 8.55498ZM38.2742 1.95731H46.9745V7.58732H38.1848V1.95731H38.2742ZM40.2648 25.1151H9.46701C7.61065 25.1151 5.93321 24.3894 4.72545 23.1798C3.5177 21.9922 2.75726 20.3428 2.75726 18.5175C2.75726 16.7141 3.5177 15.0427 4.72545 13.8551C5.93321 12.6675 7.61065 11.9198 9.46701 11.9198H31.1172C31.4079 11.9198 31.6539 11.8098 31.8329 11.6339C32.0118 11.458 32.1236 11.216 32.1236 10.9521C32.1236 10.6882 32.0118 10.4463 31.8329 10.2704C31.6539 10.0944 31.4079 9.98448 31.1172 9.98448H9.46701C7.07387 9.98448 4.90438 10.9301 3.33877 12.4916C1.75079 14.0311 0.789062 16.1643 0.789062 18.5175C0.789062 20.8706 1.75079 23.0039 3.33877 24.5653C4.90438 26.1048 7.07387 27.0725 9.46701 27.0725H40.2648C42.1212 27.0725 43.7986 27.7982 45.0064 29.0078C46.2141 30.1954 46.9745 31.8448 46.9745 33.6701C46.9745 35.4735 46.2141 37.1229 45.0064 38.3325C43.7986 39.5201 42.1212 40.2678 40.2648 40.2678H18.6146C18.3463 40.2678 18.0779 40.3778 17.8989 40.5537C17.72 40.7296 17.6305 40.9715 17.6305 41.2355C17.6305 41.4994 17.7424 41.7413 17.8989 41.9172C18.0779 42.0932 18.3463 42.2031 18.6146 42.2031H40.2648C42.6579 42.2031 44.8274 41.2355 46.393 39.696C47.981 38.1565 48.9427 36.0233 48.9427 33.6701C48.9427 31.317 47.981 29.1617 46.393 27.6223C44.8274 26.0828 42.6579 25.1151 40.2648 25.1151Z" fill="#593085"/>
</svg>
