<svg width="76" height="62" viewBox="0 0 76 62" fill="none" xmlns="http://www.w3.org/2000/svg">
<path d="M29.4536 56.9056C29.3402 57.1772 29.2645 57.4876 29.3023 57.8369C29.567 59.3891 31.2306 59.3115 32.5161 59.2727C32.743 59.2727 32.9698 59.2339 33.1211 59.2339C33.2723 59.2339 33.4614 59.2339 33.6504 59.2339C34.331 59.2727 35.0115 59.2727 35.5409 59.0011C35.9946 58.7682 36.2592 58.3802 36.3727 57.9533C36.4105 57.7593 36.4105 57.5653 36.4105 57.3324C36.3727 57.1384 36.3349 56.9444 36.2593 56.7503C36.0324 56.3623 35.6921 56.013 35.2006 55.8966C34.8225 55.819 33.8773 55.819 33.1589 55.8578C32.8942 55.8578 32.7052 55.8578 32.5539 55.8578C32.4027 55.8578 32.2137 55.8578 32.0246 55.8578C31.344 55.819 30.6257 55.819 30.172 56.0906C29.8695 56.2847 29.6048 56.5951 29.4536 56.9056ZM25.6348 6.14727C25.5592 6.14727 25.4458 6.18609 25.3702 6.18609L25.1433 6.22489C24.9165 6.2637 24.7652 6.2637 24.5384 6.30251C24.3493 6.34131 24.1225 6.41893 23.8956 6.57415C23.7066 6.69057 23.5175 6.80698 23.3285 6.92339C23.1772 7.07862 22.9882 7.19505 22.837 7.35028C22.4967 7.69953 22.232 8.08759 22.043 8.51446C21.8539 8.98013 21.7027 9.4458 21.6649 9.95028C21.6271 10.416 21.6271 10.9204 21.7405 11.3861C21.8161 11.8518 21.9674 12.3174 22.1942 12.7443C22.3076 12.9383 22.4211 13.1324 22.5345 13.2876C22.6479 13.4428 22.7613 13.598 22.9126 13.7533L23.026 13.8309L23.1016 13.9085C23.5175 14.2577 23.9334 14.5682 24.3871 14.7234C24.8409 14.9174 25.3324 14.9951 25.7861 14.9562C26.2398 14.9562 26.7313 14.8398 27.185 14.607C27.6387 14.413 28.0546 14.1025 28.4327 13.7144L28.5462 13.6369L28.6218 13.5592C28.9621 13.1324 29.2267 12.6667 29.4158 12.1234C29.6048 11.5801 29.6804 10.9592 29.6804 10.3771C29.6804 9.79505 29.567 9.21296 29.3402 8.70849C29.1511 8.20401 28.8486 7.77713 28.5084 7.38907C28.3193 7.23385 28.0925 7.03983 27.8278 6.8458C27.6009 6.69058 27.3363 6.57414 27.0338 6.41892C26.7691 6.34131 26.5423 6.2637 26.2776 6.22489C26.0886 6.10847 25.8617 6.10847 25.6348 6.14727ZM25.0299 4.86668L25.2568 4.82788L25.4836 4.78906C25.8239 4.75026 26.1642 4.75026 26.5045 4.78906C26.8826 4.82787 27.2228 4.94429 27.5631 5.06071C27.9412 5.21593 28.2815 5.37115 28.584 5.56518C28.9243 5.79802 29.2267 6.03087 29.4914 6.26371C29.9829 6.76819 30.361 7.35028 30.6257 8.00998C30.8903 8.70849 31.0416 9.4458 31.0416 10.1831C31.0416 10.9592 30.9281 11.7353 30.7013 12.4339C30.4744 13.1324 30.0963 13.7533 29.6426 14.2965L29.5292 14.413L29.4158 14.5294C28.9243 15.0339 28.3571 15.4607 27.7522 15.7324C27.1472 16.004 26.5045 16.1592 25.8617 16.198C25.219 16.2368 24.5762 16.1204 23.9712 15.8488C23.3663 15.6159 22.7992 15.2667 22.2698 14.7622L22.1564 14.6458L22.043 14.5294C21.8539 14.3354 21.6649 14.1413 21.5136 13.9085C21.3624 13.6756 21.2112 13.4428 21.0977 13.1712C20.8331 12.6279 20.644 12.0458 20.5306 11.4637C20.4172 10.8816 20.3794 10.2607 20.455 9.63982C20.5306 9.01892 20.6818 8.35922 20.9465 7.77713C21.1734 7.23385 21.5515 6.69056 21.9674 6.22489C22.1564 6.03086 22.3833 5.83684 22.6101 5.68162C22.837 5.5264 23.0638 5.37117 23.3285 5.21594C23.7066 5.02191 23.9712 4.9055 24.2737 4.82788C24.5384 4.9055 24.7652 4.86668 25.0299 4.86668ZM19.1317 59.2727C20.6062 59.3115 21.7405 59.3503 22.1942 57.9533C22.3076 57.6041 22.2698 57.2936 22.1564 57.022C22.0052 56.6727 21.7405 56.3623 21.5136 56.1682C21.0599 55.819 20.4172 55.8578 19.6988 55.8966C19.5098 55.8966 19.3585 55.8966 19.1695 55.8966C18.9426 55.8966 18.7158 55.8966 18.4511 55.8578C17.1656 55.7802 15.5398 55.7026 15.1995 57.0996C15.0861 57.5265 15.1239 57.8757 15.2373 58.1473C15.3885 58.4966 15.6154 58.7683 15.9179 58.9623C16.4094 59.2727 17.0522 59.2727 17.7327 59.2339C17.9218 59.2339 18.073 59.2339 18.2242 59.2339C18.5645 59.2727 18.867 59.2727 19.1317 59.2727ZM19.3963 40.2966C19.6232 39.9861 19.7366 39.5981 19.7366 39.1712C19.7366 38.1623 19.0938 37.7354 18.6023 37.3473L18.5645 37.3085C17.9974 36.8817 17.5815 36.4548 17.2412 35.9115C16.9009 35.3682 16.6362 34.7861 16.3716 34.0876C15.9935 33.0787 15.6154 31.9533 15.3129 30.7503C15.0104 29.5473 14.7836 28.2667 14.7836 26.9861C14.7836 26.7533 14.7836 26.5592 14.7836 26.3264C14.7458 25.201 14.7458 23.9592 15.0104 22.9115C15.0483 22.6398 15.1995 22.4846 15.3885 22.3682C15.502 22.2906 15.6154 22.2906 15.7288 22.2906C15.8423 22.2906 15.9935 22.3294 16.0691 22.3682C16.2203 22.4458 16.3338 22.601 16.3716 22.8339C16.4094 22.9891 16.3338 23.5712 16.2582 24.0757C16.2203 24.3473 16.1825 24.5801 16.1825 24.7354C16.1069 25.9384 16.1825 27.413 16.3716 28.81C16.5228 30.0518 16.8253 31.2548 17.1656 32.1085C17.3168 32.1085 17.5059 32.1085 17.7327 32.1085C18.3377 32.1085 19.0182 32.0697 19.2451 32.3413C19.3585 32.4966 19.4341 32.6518 19.4341 32.8458C19.4341 33.0399 19.3585 33.1951 19.2451 33.3503C19.0182 33.5831 18.3377 33.5831 17.8461 33.5831H17.6949C18.1108 35.213 18.9048 35.8339 19.6232 36.416C19.9635 36.6876 20.3416 36.9593 20.6062 37.3473C20.644 37.4249 20.6818 37.5025 20.7575 37.5802C21.2112 38.3175 21.3246 39.21 21.1356 40.0249C20.9465 40.8399 20.4928 41.5772 19.7366 42.1205C19.661 42.1981 19.5854 42.2369 19.4719 42.2757C19.2073 42.4309 18.9426 42.5473 18.6401 42.6249C18.3377 42.7025 18.0352 42.7414 17.6571 42.7414C16.9765 42.7414 16.7119 42.6249 16.3716 42.4697C16.296 42.4309 16.2203 42.3921 16.1069 42.3533L16.2582 46.8548C16.296 47.5145 16.296 48.2518 16.3338 48.9891C16.4094 50.8906 16.485 52.9086 16.5984 54.5772H16.6741C17.8083 54.5384 20.644 54.4996 21.4002 54.7324C21.7405 54.81 21.9674 54.9653 22.1942 55.1205L22.3454 55.1981C22.3833 54.3056 22.4589 53.3354 22.4967 52.3264C22.6101 50.1921 22.7613 47.9802 22.837 46.1563C22.837 45.613 22.837 45.0697 22.9126 44.5652C22.9882 44.0608 23.1394 43.5563 23.4041 43.207C23.5932 42.9354 23.82 42.7025 24.0847 42.5085C24.5762 42.1593 25.1811 41.9652 25.7483 41.9652C26.3532 41.9652 26.9204 42.1593 27.4119 42.5085C27.6765 42.7025 27.9034 42.9354 28.0925 43.207C28.3571 43.5951 28.4705 44.0608 28.5462 44.6041C28.6218 45.1085 28.6218 45.6518 28.6218 46.1951L29.0755 55.1593C29.2645 55.0817 29.4158 54.9653 29.5292 54.9264C29.9829 54.6548 30.172 54.5384 31.6465 54.5384C31.9868 54.5384 32.3271 54.5384 32.6674 54.5384C33.3857 54.5384 34.1419 54.5384 34.8603 54.5384L35.3896 42.3145C35.2762 42.3533 35.2006 42.3921 35.125 42.4309C34.7847 42.5861 34.52 42.6637 33.8395 42.7025C33.0077 42.7025 32.3271 42.4697 31.7599 42.0428C31.3062 41.7324 30.966 41.3055 30.7013 40.8011C30.4744 40.3354 30.3232 39.7921 30.3232 39.2488C30.3232 38.5891 30.5122 37.8906 30.9281 37.2697C31.1928 36.9205 31.5331 36.6488 31.8734 36.3384C32.5539 35.7951 33.3857 35.1742 33.8016 33.5055C33.726 33.5055 33.6504 33.5055 33.537 33.5055C33.1967 33.5055 32.8186 33.5443 32.5161 33.4279C32.138 33.3115 31.9112 33.0787 32.0624 32.5742C32.2137 31.9533 33.0077 31.9921 33.726 32.0309C33.9529 32.0309 34.1419 32.0697 34.2932 32.0309C34.6334 31.216 34.8981 30.207 35.0115 29.1593C35.2006 27.8787 35.2762 26.5204 35.2384 25.3563C35.2384 25.1234 35.2384 24.9294 35.2006 24.7354C35.2006 24.5413 35.1628 24.3473 35.1628 24.1145C35.1628 23.9593 35.125 23.804 35.0872 23.61C35.0494 23.3771 35.0115 23.1443 35.0115 22.9503C35.0115 22.6787 35.1628 22.4846 35.3518 22.3294C35.4274 22.2906 35.5409 22.2518 35.6543 22.2518C35.7677 22.2518 35.8812 22.2518 35.9946 22.3294C36.2214 22.4458 36.4105 22.6786 36.4483 23.1831C36.6373 24.5025 36.6751 25.9772 36.5617 27.413C36.4861 28.8488 36.2214 30.2458 35.8812 31.4876C35.7299 32.0309 35.3896 33.1175 35.0494 34.0488C34.8225 34.7085 34.5578 35.2906 34.3688 35.6398C33.8395 36.5712 33.2723 36.9981 32.7808 37.3473C32.3271 37.6966 31.949 37.9682 31.7599 38.6279C31.6465 38.9384 31.6465 39.2488 31.7221 39.5593C31.7978 39.9473 31.949 40.2966 32.2137 40.5682C32.4783 40.8399 32.7808 41.0727 33.1211 41.1891C33.3857 41.2667 33.726 41.3055 34.0285 41.2279C34.8225 41.0727 35.1628 40.6847 35.5787 40.219L35.6543 40.1414C36.4483 39.2488 36.9398 38.2399 37.3935 37.1533C37.4691 36.9593 37.5448 36.7652 37.6582 36.5712L38.0741 35.6398C39.5487 32.4966 40.9476 29.5473 40.9476 25.8219C40.9476 24.3473 40.872 23.1443 40.6073 22.0189C40.3426 20.8936 39.8889 19.8458 39.1706 18.6816C38.9437 18.3324 38.7168 17.9831 38.4522 17.6727C38.1875 17.3622 37.9229 17.0518 37.5826 16.8189C37.507 16.7413 37.4691 16.7025 37.4313 16.6637C37.3935 16.6249 37.3557 16.5861 37.2801 16.5085C36.713 16.0428 35.919 15.4995 35.125 15.1115C34.4444 14.7622 33.7638 14.5294 33.1967 14.4518C33.0833 14.6458 32.9698 14.8398 32.8942 14.9951C32.743 15.2667 32.5917 15.5383 32.4027 15.8488C32.3649 15.9264 32.2893 16.004 32.2515 16.0428C32.138 16.198 32.0624 16.2757 32.0624 16.5473V20.0398C32.0624 20.1175 32.0624 20.2339 32.0624 20.3115C32.0624 20.5443 32.0624 20.7771 32.0246 20.9712C31.949 21.398 31.7221 21.6697 31.0416 21.5533H31.0038L30.8903 21.4369C30.6257 21.1652 30.6257 21.1652 30.6257 20.6219V17.7115C30.5501 17.7891 30.3988 17.8667 30.2854 17.9443C29.4536 18.4876 28.0168 19.4189 25.8995 19.4189C23.1394 19.4189 21.9295 18.5652 21.0977 18.0219C20.9087 17.9055 20.7575 17.7891 20.6062 17.7115V19.613C20.6062 19.7294 20.6062 19.8458 20.6062 19.9622C20.644 20.5831 20.644 21.3204 20.2281 21.5145H20.1903H20.1525C19.4719 21.6309 19.2073 21.3204 19.1317 20.8548C19.0939 20.5831 19.0939 20.2339 19.1317 19.9234C19.1317 19.7294 19.1695 19.5742 19.1695 19.3801V16.4697C19.1695 16.2369 18.9426 15.9264 18.7536 15.6547C18.6779 15.5771 18.6401 15.4995 18.5645 15.4219C18.4511 15.2667 18.3755 15.0727 18.262 14.8786C18.1864 14.7234 18.1108 14.5682 18.0352 14.413C17.2412 14.5294 16.1069 15.0339 15.0861 15.6936C14.0274 16.3533 13.0066 17.2458 12.515 18.0219L11.5698 19.4578C11.1539 20.1175 10.8514 21.01 10.6624 21.9413C10.3977 22.9891 10.2843 24.1145 10.2843 25.0458C10.2843 29.7413 11.4564 32.1861 13.12 35.6398L13.4225 36.2996C13.5737 36.6488 13.7249 36.9593 13.8762 37.3085C14.4055 38.5503 14.8214 39.4041 15.9935 40.607C16.296 40.9175 16.6362 41.1503 17.09 41.2279C17.468 41.3055 17.884 41.3055 18.2999 41.1115C18.7914 40.9175 19.1317 40.6458 19.3963 40.2966ZM37.7716 14.9174L38.0741 15.1503C37.9985 14.1025 38.0741 13.0936 38.1119 12.0846C38.2253 9.67864 38.3388 7.66071 36.5995 7.31145C36.2971 7.23384 35.7299 7.11744 35.2006 7.03983C34.7469 6.96222 34.2932 6.88461 33.9907 6.8458C33.9907 7.27267 33.9907 7.97117 33.9907 8.70849C33.9907 9.98908 34.0285 11.4249 33.9529 11.7741C33.9151 12.1622 33.8773 12.4339 33.8395 12.6279C33.8016 12.8607 33.7638 12.9771 33.8016 13.0159C33.8395 13.0548 33.9151 13.0548 34.0663 13.0936C34.4444 13.1712 35.0872 13.3652 36.2214 13.9473C36.713 14.1801 37.3557 14.607 37.7716 14.9174ZM13.4603 13.0548C13.4981 13.7533 13.4981 14.5682 13.4603 15.1115C13.6115 15.0339 13.7627 14.9175 13.914 14.801C14.0274 14.7234 14.1408 14.6458 14.2543 14.5682C14.4055 14.4518 14.5945 14.3354 14.7836 14.2189C14.9726 14.1025 15.1617 14.0249 15.3507 13.9085C15.5398 13.7921 15.7288 13.7145 15.9179 13.6369C16.1069 13.5592 16.296 13.4816 16.5228 13.3652L17.6571 13.0159C17.8083 12.9383 17.7327 12.7443 17.6949 12.3951C17.6571 12.201 17.6193 11.9294 17.5815 11.6577C17.5437 11.2697 17.5437 9.95027 17.5815 8.74728C17.5815 7.97116 17.5815 7.23385 17.5815 6.80698C17.3168 6.84579 16.8631 6.88459 16.4094 7.00101C15.8801 7.07862 15.3507 7.19505 15.0483 7.27266C13.3468 7.62191 13.3847 9.21295 13.4603 10.998C13.4603 11.3473 13.4981 11.6965 13.4981 12.007C13.4603 12.3174 13.4603 12.6667 13.4603 13.0548ZM25.6348 1.80102C24.9543 1.80102 24.3115 1.80101 24.0847 1.83981L23.6688 1.91743C22.6857 2.07266 22.232 2.18908 21.4002 2.77117C20.5306 3.39207 19.9257 4.09056 19.5476 4.86668C19.1695 5.68161 19.0182 6.61296 19.0182 7.73834C19.0182 8.1652 19.0182 8.55327 19.0182 8.98013C18.9804 10.8816 18.9426 12.7055 19.9257 14.3742C20.0391 14.607 20.1525 14.7622 20.3037 14.9562C20.4172 15.1503 20.5306 15.3055 20.6818 15.4607C21.0977 15.9652 21.5893 16.3921 22.1186 16.7413C23.3285 17.5175 24.7652 17.9055 26.202 17.8279C27.6387 17.7503 29.0755 17.207 30.2854 16.1592C30.8147 15.6936 31.2684 15.1503 31.6843 14.4906C32.7052 12.8607 32.6674 11.1921 32.6296 9.09655C32.6296 8.70849 32.6296 8.32042 32.6296 7.97116C32.6296 7.27265 32.6296 6.72938 32.5539 6.26371C32.4783 5.79804 32.3271 5.37116 32.1002 4.86668C31.6843 4.01295 31.0794 3.31444 30.361 2.80997C29.6048 2.30549 28.7352 1.95623 27.7522 1.83981C27.3741 1.87862 26.4667 1.83982 25.6348 1.80102ZM11.721 35.6011C9.94401 31.7593 8.99878 29.7025 8.99878 24.813C8.99878 23.0279 9.26345 21.5145 9.79278 20.1951C10.2843 18.8757 11.0405 17.7115 11.9479 16.6249C12.0991 16.4309 12.0991 14.607 12.0613 12.7443C12.0235 10.8816 11.9857 8.94131 12.1748 8.28161C12.3638 7.6219 12.7041 7.11743 13.1578 6.69057C13.6115 6.2637 14.2165 5.99207 14.8592 5.87565C15.2751 5.79804 15.6532 5.72041 16.0313 5.6428C16.296 5.60399 16.5984 5.5652 16.9009 5.48759C17.1278 5.44878 17.279 5.40997 17.4302 5.40997C17.6571 5.37117 17.7705 5.37116 17.8461 5.33236C17.884 5.29355 17.884 5.25474 17.9218 5.13833C17.9596 5.02191 18.0352 4.82789 18.1864 4.51744C18.4889 3.89654 18.7914 3.39207 19.1695 2.9652C19.5097 2.53833 19.9257 2.15027 20.4172 1.80102C22.3454 0.404001 24.0469 0.442798 26.2398 0.481604C26.6557 0.481604 27.0338 0.481604 27.4875 0.481604C28.6974 0.481604 29.8695 0.908465 30.8903 1.56817C31.949 2.26668 32.8186 3.27564 33.3857 4.43982C33.4614 4.55624 33.4992 4.71146 33.5748 4.86668C33.6504 5.0219 33.726 5.21594 33.8016 5.33236C33.9151 5.40997 34.331 5.48758 34.8603 5.52639C36.1458 5.68161 38.0741 5.91444 38.9437 7.19504C39.5487 8.08758 39.5487 8.70847 39.5487 9.83385V10.2219V15.616C39.5487 15.6936 39.5487 15.7712 39.5487 15.8488C39.5487 16.0816 39.5487 16.3145 39.5487 16.4309C39.5865 16.5085 39.6999 16.6637 39.8511 16.8577C40.6451 17.8667 42.5734 20.3115 42.5734 24.813C42.5734 26.9473 42.3843 28.616 41.9684 30.2458C41.5525 31.8757 40.9098 33.4279 40.0024 35.2518C39.8133 35.6787 39.5487 36.1831 39.3218 36.7652C38.9059 37.6966 38.49 38.6667 38.1119 39.2876L37.9607 39.5205C37.8094 39.7533 37.696 39.9861 37.5448 40.2578C37.4691 40.3354 37.4313 40.413 37.3179 40.4906C37.1667 40.6846 36.9776 40.9175 36.9398 41.0339L36.4861 51.7832C36.4483 52.6757 36.4105 53.2966 36.3727 53.7235C36.3349 54.3444 36.3349 54.6548 36.3349 54.81C36.3727 54.9265 36.4105 54.9653 36.5239 55.0817C36.6373 55.1593 36.7886 55.2757 36.9776 55.5085C37.0911 55.625 37.2045 55.7802 37.3179 55.9354C37.696 56.5563 37.8472 57.2548 37.7716 57.9533C37.696 58.6518 37.3935 59.3115 36.8264 59.8548C36.6752 60.01 36.5617 60.1265 36.3727 60.2429C35.6543 60.7085 35.1628 60.7086 34.2175 60.7086H31.3819C30.8525 60.7086 30.3988 60.6698 30.0585 60.5921C29.6804 60.5145 29.3402 60.3205 28.9999 60.0488C28.7352 59.8548 28.4705 59.5444 28.2437 59.1563C28.0546 58.8459 27.9412 58.4578 27.8656 58.0698L27.185 45.3414C27.1472 45.1473 27.1472 44.9921 27.1472 44.8369C27.1472 44.4876 27.1472 44.2548 26.8826 43.9056C26.8069 43.8279 26.7313 43.7115 26.6557 43.6339C26.391 43.4011 26.0886 43.2846 25.7861 43.2846C25.4836 43.2846 25.1433 43.3623 24.8787 43.5563C24.803 43.6339 24.7274 43.7115 24.6518 43.7891C24.3493 44.1772 24.3493 44.3712 24.3115 44.8757V45.1473C24.2737 45.5742 24.2737 46.0787 24.2359 46.5444C24.1981 47.2429 24.1225 47.9414 24.1225 48.5623C24.0847 49.9981 23.9712 51.5503 23.8956 53.1026C23.82 54.6548 23.7066 56.207 23.6688 57.6429C23.6688 58.1085 23.5553 58.4966 23.4041 58.8847C23.1772 59.3115 22.9126 59.6608 22.6101 59.9324C21.7027 60.7474 19.8878 60.7085 18.2999 60.6697C17.9596 60.6697 17.6571 60.6309 17.3546 60.6309H17.2412C16.2582 60.6309 15.8801 60.6309 15.1617 60.1653C14.6702 59.816 14.2921 59.3891 14.0652 58.9235C13.8384 58.419 13.7249 57.8757 13.7627 57.3712C13.8006 56.8279 13.9518 56.3235 14.2165 55.8966C14.4433 55.5085 14.7836 55.1593 15.1995 54.9653L15.0861 52.1324C15.0483 50.9682 14.9726 49.6488 14.9348 48.2906C14.8214 46.0787 14.708 43.8279 14.6702 41.9652C14.6702 41.81 14.6702 41.6936 14.6702 41.5772C14.6702 41.2279 14.6702 41.0339 14.4433 40.7234C13.6115 39.7145 13.0066 38.3563 12.4016 37.0757C12.2882 36.8428 12.1748 36.5712 12.0613 36.3384L11.721 35.6011Z" fill="#593085"/>
<path d="M19.3583 60.9024C18.9803 60.9024 18.64 60.9024 18.2997 60.9024H18.2241C17.9216 60.9024 17.6569 60.9024 17.3545 60.9024H17.241C16.258 60.9024 15.8043 60.9024 15.0481 60.3979C14.5188 60.0486 14.1407 59.6218 13.876 59.0785C13.6492 58.574 13.5357 57.9919 13.5735 57.4486C13.6113 56.9053 13.7626 56.362 14.0651 55.8964C14.2919 55.5083 14.6322 55.1591 15.0103 54.9262L14.8969 52.2098C14.8591 51.162 14.8212 49.9979 14.7456 48.7949L14.7078 48.368C14.5944 46.1949 14.481 43.9053 14.4431 42.0426V41.6546C14.4431 41.3053 14.4431 41.1889 14.2541 40.9561C13.3845 39.9083 12.7795 38.5501 12.2124 37.2695C12.099 36.9978 11.9855 36.765 11.8721 36.5322L11.5318 35.7561L11.7209 35.6784L11.5318 35.7561C9.79261 31.9143 8.80957 29.8187 8.80957 24.9292C8.80957 23.1829 9.07424 21.6307 9.60357 20.2337C10.0951 18.9919 10.7757 17.7889 11.7587 16.5859C11.8721 16.353 11.8343 14.4128 11.8343 12.8605V12.8217C11.7965 10.8038 11.7587 8.94108 11.9477 8.28138C12.1368 7.62168 12.4771 7.03959 12.9686 6.61273C13.4601 6.18586 14.0651 5.87541 14.7834 5.75899L15.1615 5.6814C15.4262 5.64259 15.7287 5.60378 15.9555 5.52616H16.0689C16.2958 5.48736 16.5605 5.44856 16.8251 5.40975C16.9764 5.37094 17.0898 5.37094 17.2032 5.33213L17.3545 5.29334C17.4301 5.29334 17.5813 5.25452 17.6569 5.25452C17.6569 5.21571 17.6569 5.21571 17.6947 5.1769C17.7704 4.98287 17.846 4.75005 17.9594 4.51722C18.2619 3.89632 18.6022 3.35302 18.9424 2.92615C19.2827 2.49929 19.7364 2.07243 20.228 1.72318C22.2319 0.287355 23.9711 0.326151 26.164 0.403763C26.3531 0.403763 26.5421 0.403763 26.769 0.403763C26.9958 0.403763 27.1849 0.403763 27.4117 0.403763C28.5838 0.403763 29.7937 0.791833 30.8902 1.52915C31.9488 2.26646 32.8563 3.27541 33.4234 4.4784C33.499 4.63362 33.5746 4.82765 33.6124 4.94407L33.6502 5.06049C33.6881 5.1769 33.7259 5.25452 33.7637 5.33213C33.8771 5.37094 34.2552 5.44856 34.5955 5.48737H34.7089C35.9188 5.64259 37.9983 5.87543 38.9435 7.23364C39.5863 8.16498 39.5863 8.90229 39.5863 9.98886V15.7321C39.5863 15.7709 39.5863 15.8098 39.5863 15.8874V16.159C39.5863 16.2754 39.5863 16.4695 39.5863 16.5471C39.5863 16.5859 39.7753 16.8187 39.851 16.8963C40.6071 17.8277 42.611 20.3501 42.611 24.968C42.611 27.1023 42.422 28.8098 42.0061 30.4396C41.628 31.9531 41.0231 33.4665 40.04 35.4844C39.851 35.8725 39.6241 36.4157 39.3594 36.9978L39.3216 37.0755C38.9057 37.968 38.4898 38.9381 38.1495 39.5202L37.9983 39.7531C37.8471 40.0247 37.7336 40.2575 37.5446 40.4904L37.469 40.568C37.4312 40.6456 37.3555 40.6844 37.3177 40.762L37.2421 40.8784C37.1665 40.9949 37.0531 41.1501 37.0153 41.2277L36.5616 51.9382C36.5237 52.8307 36.4859 53.4516 36.4481 53.9173V54.1501C36.4103 54.577 36.4103 54.8486 36.4103 54.965C36.4103 55.0039 36.4103 55.0038 36.5238 55.0815C36.6372 55.1591 36.8262 55.2755 37.0153 55.5471C37.1287 55.6636 37.2421 55.8188 37.3556 55.974C37.7715 56.5949 37.9227 57.371 37.8471 58.1083C37.7715 58.8844 37.4312 59.583 36.864 60.1262C36.7506 60.2427 36.5994 60.3979 36.4103 60.5143C35.6541 61.0188 35.1248 61.0188 34.1418 61.0188H31.3061C30.7767 61.0188 30.323 61.0188 29.9071 60.9024C29.4912 60.7859 29.1131 60.5919 28.7729 60.3203C28.4704 60.0874 28.1679 59.7382 27.9789 59.3889C27.752 59.0009 27.6386 58.6128 27.6008 58.2247L26.9202 45.4964C26.8824 45.3023 26.8824 45.1471 26.8824 44.9919C26.8824 44.6426 26.8824 44.4486 26.6555 44.177C26.5799 44.0605 26.5043 44.0217 26.4665 43.9441C26.2396 43.7501 25.975 43.6337 25.7103 43.6337C25.4456 43.6337 25.1432 43.7113 24.9541 43.8665C24.8785 43.9441 24.8029 43.9829 24.7651 44.0605C24.5004 44.371 24.5004 44.5262 24.4626 44.9919V45.3023C24.4248 45.768 24.4248 46.2337 24.3492 46.6993C24.3114 47.3202 24.2357 48.0576 24.2357 48.7173C24.1979 49.9202 24.1223 51.162 24.0467 52.4815L23.9711 53.9949C23.8955 55.2755 23.8198 56.5949 23.782 57.7979C23.782 58.2636 23.6686 58.6904 23.4796 59.1173C23.2149 59.6606 22.8746 60.0098 22.6478 60.2427C21.9672 60.7859 20.6439 60.9024 19.3583 60.9024ZM25.0675 0.636614C23.4417 0.636614 22.0428 0.830639 20.4926 1.91721C20.0011 2.26646 19.623 2.6157 19.2827 3.04257C18.9046 3.46943 18.6022 3.97392 18.3375 4.55601C18.2241 4.78885 18.1485 4.98288 18.1106 5.1381C18.035 5.29333 18.035 5.37093 17.9594 5.44855C17.8838 5.48735 17.7704 5.52615 17.4679 5.56496L17.3167 5.60378C17.2032 5.60378 17.0898 5.64259 16.9386 5.6814C16.6739 5.7202 16.4092 5.7978 16.1446 5.83661H16.0689C15.8043 5.87541 15.5396 5.95303 15.2371 5.99184L14.859 6.06946C14.2163 6.18587 13.6492 6.45752 13.2333 6.84558C12.8173 7.23364 12.4771 7.73811 12.3258 8.3202C12.1368 8.9799 12.2124 11.2306 12.2124 12.7441V12.7829C12.2502 15.4217 12.2502 16.5083 12.0612 16.7411C11.1159 17.9053 10.3976 19.0307 9.94385 20.2725C9.41452 21.6307 9.14985 23.1441 9.14985 24.8516C9.14985 29.6635 10.0951 31.759 11.8343 35.5232L12.1746 36.2993C12.288 36.5322 12.4014 36.765 12.5149 36.9978C13.082 38.3172 13.687 39.6367 14.5188 40.6456C14.7834 40.9949 14.8212 41.2277 14.7834 41.6158V42.0038C14.8212 43.8277 14.9347 46.1173 15.0481 48.3292L15.0859 48.7561C15.1237 49.9591 15.1993 51.1232 15.2371 52.171L15.3506 55.1203L15.2371 55.1591C14.859 55.3531 14.5566 55.6636 14.3297 56.0516C14.0651 56.4785 13.9138 56.9441 13.9138 57.4098C13.876 57.9143 13.9894 58.4188 14.1785 58.8844C14.4053 59.3501 14.7456 59.7382 15.1993 60.0486C15.8799 60.4755 16.2202 60.4755 17.2032 60.4755H17.3167C17.6191 60.4755 17.8838 60.4755 18.1863 60.4755H18.2619C19.7364 60.5143 21.5513 60.5531 22.4209 59.777C22.6478 59.583 22.9502 59.2725 23.1771 58.8068C23.3283 58.4576 23.4417 58.0695 23.4417 57.6815C23.4796 56.4785 23.5552 55.1203 23.6308 53.8397L23.7064 52.3262C23.782 51.0068 23.8576 49.765 23.8955 48.6008C23.8955 47.9411 23.9333 47.2038 24.0089 46.5829C24.0467 46.1173 24.0845 45.6516 24.0845 45.1859V44.9143C24.0845 44.4098 24.0845 44.1382 24.4626 43.7113C24.5382 43.5949 24.6138 43.5173 24.7273 43.4397C25.0297 43.2068 25.4078 43.0904 25.7481 43.1292C26.1262 43.1292 26.4665 43.2844 26.7312 43.5173C26.8068 43.5949 26.9202 43.6725 26.9958 43.7889C27.2605 44.177 27.2983 44.4486 27.2983 44.7979C27.2983 44.9919 27.2983 45.1471 27.3361 45.3023L28.0167 58.0307C28.0545 58.3412 28.1679 58.6904 28.3569 59.0397C28.546 59.3501 28.8107 59.6606 29.0753 59.8546C29.3778 60.1262 29.6803 60.2815 30.0584 60.3591C30.4365 60.4367 30.8524 60.4755 31.3439 60.4755H34.1796C35.1248 60.4755 35.5785 60.4755 36.2213 60.0486C36.4103 59.9322 36.5238 59.8158 36.6372 59.6994C37.1287 59.2337 37.4312 58.6128 37.5068 57.9143C37.5824 57.2546 37.4312 56.5949 37.0909 56.0128C36.9775 55.8576 36.9018 55.7411 36.7884 55.6247C36.5994 55.4307 36.4859 55.3143 36.3725 55.2367C36.2591 55.1591 36.1457 55.0426 36.1078 54.8486C36.07 54.6934 36.1078 54.4606 36.1078 53.9561V53.7232C36.1457 53.2576 36.1835 52.6367 36.2213 51.7829L36.675 40.9949C36.7128 40.8785 36.8262 40.7232 36.9775 40.5292L37.0531 40.4128C37.1287 40.3352 37.1665 40.2964 37.2043 40.2188L37.2799 40.1411C37.4312 39.9083 37.5446 39.7143 37.6958 39.4426L37.8471 39.2098C38.1874 38.6277 38.6033 37.6963 39.0192 36.8038L39.057 36.7262C39.2838 36.1441 39.5485 35.6008 39.7375 35.2128C40.7206 33.1949 41.3255 31.7202 41.6658 30.2456C42.0817 28.6546 42.2708 26.9859 42.2708 24.8904C42.2708 20.4277 40.3803 18.0605 39.5863 17.0516C39.3594 16.7411 39.2838 16.6247 39.246 16.5471C39.2082 16.4307 39.2082 16.3142 39.2082 16.0814V15.9262C39.2082 15.8874 39.2082 15.8486 39.2082 15.8098C39.2082 15.771 39.2082 15.7322 39.2082 15.6933V9.91124C39.2082 8.82467 39.2082 8.20378 38.6411 7.35005C37.8093 6.14706 35.9188 5.91421 34.6711 5.75899H34.5577C33.9527 5.68138 33.6502 5.64258 33.499 5.52616L33.4612 5.48737C33.3856 5.37095 33.3478 5.25452 33.31 5.1381L33.2722 5.02169C33.2343 4.90527 33.1587 4.71123 33.0831 4.59481C32.5538 3.46943 31.6842 2.4993 30.6633 1.80079C29.6425 1.10229 28.5082 0.753027 27.3739 0.753027C27.1471 0.753027 26.9202 0.753027 26.7312 0.753027C26.5421 0.753027 26.3531 0.753027 26.1262 0.753027C25.8237 0.636609 25.4456 0.636614 25.0675 0.636614ZM31.8354 59.5053C30.6255 59.5053 29.34 59.3113 29.1131 57.9143C29.0753 57.565 29.1131 57.177 29.2644 56.8665C29.4156 56.5173 29.7181 56.2068 30.0206 56.0128C30.5121 55.7023 31.2305 55.7412 31.911 55.7412H31.9866C32.1001 55.7412 32.1757 55.7412 32.2891 55.7412C32.4404 55.7412 32.5538 55.7412 32.7428 55.7412C32.8563 55.7412 33.0075 55.7412 33.1587 55.7412C34.0283 55.7024 34.8601 55.7024 35.2382 55.78C35.7676 55.8964 36.1835 56.2456 36.4481 56.7113C36.5616 56.9442 36.5994 57.1382 36.6372 57.371C36.675 57.565 36.675 57.7979 36.5994 58.0307C36.4859 58.5352 36.1457 58.9621 35.6919 59.2337C35.1248 59.5442 34.3308 59.5053 33.7259 59.5053C33.6502 59.5053 33.5368 59.5053 33.4612 59.5053C33.1965 59.5053 33.0075 59.5053 32.705 59.5053H32.6294C32.3269 59.5053 32.0623 59.5053 31.8354 59.5053ZM29.6047 57.0218C29.529 57.2158 29.4156 57.4874 29.4912 57.8367C29.7181 59.1949 31.2683 59.1561 32.4782 59.1173H32.5916C32.7806 59.1173 32.9697 59.1173 33.1209 59.1173C33.1965 59.1173 33.2722 59.1173 33.3478 59.1173C33.4234 59.1173 33.5368 59.1173 33.6124 59.1173C34.2174 59.1173 34.9358 59.1561 35.3895 58.8844C35.7676 58.6904 36.0322 58.3412 36.1078 57.9531C36.1457 57.7591 36.1457 57.6039 36.1457 57.4098C36.1457 57.2158 36.07 57.0606 35.9944 56.8665C35.8054 56.4785 35.4651 56.2068 35.0492 56.1292C34.6711 56.0516 33.6124 56.0904 33.0831 56.0904C32.9319 56.0904 32.8184 56.0904 32.705 56.0904C32.516 56.0904 32.4025 56.0904 32.2513 56.0904C32.1757 56.0904 32.0623 56.0904 31.9866 56.0904H31.911C31.2683 56.0516 30.6255 56.0516 30.2474 56.2844C29.9827 56.4785 29.7559 56.7113 29.6047 57.0218ZM19.8499 59.5053C19.623 59.5053 19.3962 59.5053 19.1315 59.5053C18.8668 59.5053 18.5644 59.4665 18.2619 59.4665C18.1863 59.4665 18.1106 59.4665 18.035 59.4665C17.9594 59.4665 17.846 59.4665 17.7704 59.4665C17.0898 59.5053 16.4092 59.5053 15.8421 59.1561C15.5018 58.9621 15.2371 58.6128 15.0859 58.2636C14.9347 57.8755 14.9347 57.4874 15.0103 57.0606C15.3884 55.5083 17.1654 55.6247 18.4509 55.6636C18.7156 55.6636 18.9803 55.7023 19.1693 55.7023C19.2449 55.7023 19.3205 55.7023 19.3962 55.7023C19.4718 55.7023 19.5852 55.7023 19.6608 55.7023C20.3792 55.6635 21.0598 55.6635 21.5891 56.0128C21.7781 56.168 22.1562 56.4785 22.3075 56.9441C22.4209 57.2934 22.4587 57.6815 22.3453 57.9919C21.9672 59.3113 21.022 59.5053 19.8499 59.5053ZM19.1315 59.0785C20.5682 59.1173 21.5891 59.1561 22.005 57.9143C22.0806 57.6427 22.0806 57.371 21.9672 57.0994C21.8538 56.8277 21.6269 56.5173 21.3622 56.3233C20.9463 56.0128 20.3414 56.0516 19.6986 56.0904C19.5852 56.0904 19.5096 56.0904 19.434 56.0904C19.3584 56.0904 19.2827 56.0904 19.1693 56.0904C18.9803 56.0904 18.7156 56.0904 18.4887 56.0516C17.2032 55.974 15.6909 55.8964 15.3884 57.1382C15.3128 57.4874 15.3128 57.7979 15.4262 58.0695C15.5396 58.38 15.7665 58.6128 16.0311 58.768C16.4848 59.0785 17.1276 59.0397 17.7704 59.0397C17.8838 59.0397 17.9594 59.0397 18.035 59.0397C18.1106 59.0397 18.1863 59.0397 18.2619 59.0397C18.5644 59.0785 18.8668 59.0785 19.1315 59.0785ZM22.5343 55.4307L22.0806 55.1203C21.8916 55.0038 21.6647 54.8874 21.4001 54.771C20.6439 54.577 17.6947 54.6158 16.7117 54.6546L16.447 54.6934V54.4994C16.2958 52.8695 16.2202 50.8516 16.1824 48.9113C16.1824 48.6008 16.1446 48.2904 16.1446 47.98C16.1446 47.5531 16.1068 47.165 16.1068 46.8158L15.9177 42.0038L16.1824 42.1202C16.2202 42.159 16.2958 42.159 16.3336 42.1979C16.3714 42.2367 16.4092 42.2367 16.447 42.2367H16.4848C16.7873 42.3531 17.052 42.4695 17.6569 42.4695C17.9972 42.4695 18.2997 42.4307 18.6022 42.3531C18.8668 42.2755 19.0937 42.1979 19.3583 42.0038L19.3962 41.965C19.4718 41.9262 19.5096 41.8874 19.5852 41.8486C20.2658 41.3441 20.7195 40.6456 20.9085 39.8307C21.0976 39.0546 20.9463 38.2396 20.5304 37.5411C20.4926 37.5023 20.4926 37.4635 20.4548 37.4247C20.417 37.3859 20.417 37.3471 20.3792 37.3083C20.1523 36.9979 19.8499 36.7262 19.5096 36.4546L19.434 36.377C18.7534 35.8337 17.8838 35.174 17.4679 33.4665L17.3923 33.1949L17.8082 33.2337H17.846C18.2241 33.2337 18.9046 33.2337 19.0559 33.0784C19.1315 33.0008 19.2071 32.8456 19.2071 32.6904C19.2071 32.574 19.1693 32.4575 19.0559 32.3411C18.8668 32.1471 18.2241 32.1471 17.7326 32.1859H17.6569C17.4679 32.1859 17.241 32.1859 17.0898 32.1859H16.9764L16.9386 32.0695C16.5983 31.2546 16.3336 30.0516 16.1446 28.7322C15.9555 27.3739 15.8799 25.8605 15.9555 24.6575C15.9555 24.5411 15.9933 24.3859 15.9933 24.2307L16.0311 24.0366C16.1446 23.1829 16.1446 22.9501 16.1446 22.8725C16.1068 22.7172 16.0311 22.6008 15.9177 22.5232C15.7665 22.4456 15.5396 22.4456 15.3884 22.5232C15.2749 22.6008 15.1615 22.7172 15.1237 22.9113C14.8969 23.9202 14.8969 25.0844 14.8969 26.2874C14.8969 26.4038 14.8969 26.5202 14.8969 26.6366C14.8969 26.7531 14.8969 26.8695 14.8969 26.9859C14.8969 28.1113 15.0481 29.3143 15.3884 30.7113C15.7287 32.0307 16.1446 33.2337 16.447 34.0486C16.7495 34.8635 17.0142 35.4068 17.2788 35.8337C17.6191 36.3769 17.9972 36.8038 18.5644 37.1919L18.64 37.2307C19.1315 37.6187 19.8499 38.1232 19.8499 39.2098C19.8499 39.6367 19.6986 40.1023 19.4718 40.4516C19.2071 40.8396 18.829 41.1501 18.4509 41.3053C17.9972 41.4994 17.5435 41.5382 17.1276 41.4217C16.7117 41.3441 16.3336 41.1113 15.9555 40.7232C14.7456 39.5202 14.3297 38.5501 13.8004 37.3859L13.687 37.1531C13.5735 36.8814 13.4601 36.6486 13.3089 36.377L13.0064 35.7172C11.3428 32.2247 10.1707 29.7411 10.1707 25.0068C10.1707 23.9978 10.3219 22.8724 10.5488 21.8635C10.7757 20.8157 11.1159 19.962 11.494 19.3411L12.4393 17.9053C12.9308 17.168 13.9138 16.2754 15.0859 15.5381C16.2202 14.8008 17.3167 14.3351 18.1106 14.2187H18.2241L18.2997 14.3351C18.3753 14.4904 18.4509 14.6068 18.5265 14.762L18.6022 14.9172C18.6778 15.0725 18.7534 15.2277 18.829 15.3441C18.8668 15.4217 18.9424 15.4993 18.9803 15.5769L19.0181 15.6545C19.2071 15.9262 19.434 16.1978 19.434 16.5083V19.4187C19.434 19.6127 19.434 19.768 19.3962 19.962C19.3583 20.3113 19.3583 20.6217 19.3962 20.8545C19.4718 21.2426 19.623 21.4754 20.1902 21.359C20.4926 21.165 20.4548 20.5053 20.4548 19.962C20.4548 19.8456 20.4548 19.7292 20.4548 19.5739V17.362L20.7195 17.5172C20.8707 17.5948 21.022 17.7113 21.211 17.8277C22.0428 18.371 23.2527 19.2247 25.9372 19.2247C28.0167 19.2247 29.4534 18.2933 30.2096 17.7889C30.2852 17.7501 30.3608 17.6725 30.4365 17.6336L30.8524 17.362V20.6605C30.8524 21.1262 30.8524 21.1262 31.0414 21.359L31.0792 21.3978C31.722 21.4754 31.7976 21.2426 31.8354 20.971C31.8732 20.8545 31.8732 20.6605 31.8732 20.5053V20.3501C31.8732 20.2725 31.8732 20.156 31.8732 20.0784V16.5859C31.8732 16.2366 31.9866 16.1202 32.1001 15.9262L32.1379 15.8874C32.1757 15.8486 32.2135 15.8098 32.2513 15.7321C32.4025 15.4993 32.516 15.3053 32.6294 15.0724L32.705 14.9172C32.7806 14.762 32.8562 14.6068 32.9697 14.4128L33.0831 14.2187L33.1965 14.2575C33.7637 14.3351 34.4442 14.6068 35.1626 14.956C35.9188 15.3441 36.7128 15.8486 37.3556 16.3918C37.4312 16.4695 37.5068 16.5083 37.5446 16.5859C37.5824 16.6247 37.6202 16.6635 37.6958 16.7023C37.9983 16.9351 38.3008 17.2456 38.5654 17.5948C38.8301 17.9053 39.0948 18.2545 39.3216 18.6038C40.0778 19.768 40.5315 20.8545 40.7962 22.0187C41.0231 23.0277 41.1365 24.1919 41.1365 25.8605C41.1365 29.6247 39.7375 32.6128 38.263 35.7949L37.8471 36.7262C37.7336 36.9202 37.658 37.1143 37.5824 37.3083C37.1287 38.3173 36.6372 39.365 35.8054 40.3352L35.7298 40.4128C35.3139 40.8785 34.9358 41.3053 34.0661 41.4605C33.7637 41.5381 33.3856 41.4994 33.0831 41.3829C32.705 41.2665 32.3647 41.0337 32.0623 40.7232C31.7598 40.4128 31.5707 40.0247 31.5329 39.6367C31.4573 39.2874 31.4951 38.9382 31.6085 38.5889C31.7976 37.8904 32.2513 37.5799 32.705 37.2307L32.7428 37.1919C33.1965 36.8426 33.7259 36.4158 34.2552 35.562C34.4064 35.2516 34.6711 34.6695 34.898 34.0098C35.2382 33.0396 35.5785 31.9919 35.7298 31.4486C36.07 30.2456 36.2969 28.8486 36.4103 27.4128C36.4859 25.9769 36.4481 24.5411 36.2969 23.2217C36.2591 22.8724 36.1078 22.6396 35.9188 22.5232C35.8432 22.4844 35.7676 22.4844 35.6919 22.4844C35.5785 22.4844 35.5029 22.5232 35.4651 22.562C35.3139 22.6396 35.2004 22.8337 35.2004 22.9889C35.2004 23.1829 35.2382 23.3769 35.276 23.6486C35.276 23.7262 35.276 23.765 35.3139 23.8426C35.3139 23.959 35.3517 24.0754 35.3517 24.1531C35.3895 24.3471 35.3895 24.5411 35.3895 24.6963V24.7351C35.3895 24.9292 35.4273 25.162 35.4273 25.3949C35.4651 26.7143 35.3517 28.0725 35.2004 29.2366C35.0492 30.362 34.7845 31.371 34.4442 32.1471L34.4064 32.2635H34.293C34.104 32.2635 33.9149 32.2635 33.6881 32.2635C32.9319 32.2247 32.3269 32.2247 32.2135 32.6516C32.1379 33.0008 32.2135 33.1561 32.5538 33.2725C32.8184 33.3501 33.1965 33.3501 33.499 33.3113H33.9905L33.9149 33.5441C33.4612 35.2516 32.6294 35.9113 31.911 36.4546C31.5707 36.7262 31.2305 36.9978 31.0036 37.3471C30.6255 37.9292 30.4365 38.5501 30.4365 39.2098C30.4365 39.7143 30.5499 40.2187 30.7767 40.6844C31.0036 41.1501 31.3439 41.5381 31.7598 41.8486C32.3269 42.2367 33.0075 42.4695 33.7637 42.4695C34.4064 42.4695 34.6333 42.3531 34.9736 42.2367C35.0114 42.1978 35.087 42.1979 35.1248 42.1591L35.5029 42.0038L34.9736 54.7322H34.7845C34.2552 54.7322 33.6881 54.7322 33.1587 54.7322H31.5707C30.134 54.7322 29.9827 54.8098 29.5668 55.0815C29.4912 55.1203 29.4534 55.1591 29.4156 55.1591C29.34 55.1979 29.2266 55.2755 29.1131 55.3143L28.8485 55.4307L28.3569 46.1561C28.3569 45.6128 28.357 45.0695 28.2813 44.6038C28.2057 44.0217 28.0923 43.5949 27.8654 43.2844C27.6764 43.0128 27.4495 42.7799 27.2227 42.6247C26.769 42.2755 26.2018 42.1202 25.6347 42.0814C25.1054 42.0814 24.576 42.2367 24.1223 42.5859C23.8955 42.7411 23.6686 42.974 23.4796 43.2456C23.2527 43.5561 23.1015 43.9829 23.0258 44.5262C22.9502 45.0307 22.9502 45.574 22.9502 46.0785C22.8746 47.7471 22.7612 49.8038 22.6478 51.7441L22.6099 52.2486C22.5721 52.9471 22.5343 53.6456 22.4965 54.3053L22.5343 55.4307ZM25.7481 41.6546C26.3909 41.6546 27.0336 41.8486 27.563 42.2367C27.8276 42.4307 28.0545 42.6635 28.2813 42.974C28.546 43.362 28.6972 43.8277 28.7729 44.4486C28.8485 44.9531 28.8485 45.5352 28.8485 46.0397L29.3022 54.7322C29.3022 54.7322 29.34 54.7322 29.34 54.6934C29.4156 54.6546 29.4534 54.6158 29.4912 54.6158C30.0206 54.3053 30.2096 54.2277 31.6842 54.2277H33.2722C33.7637 54.2277 34.2552 54.2277 34.7467 54.2277L35.2382 42.4695C34.8979 42.6247 34.6333 42.7411 33.9149 42.7411C33.0831 42.7411 32.3269 42.5083 31.722 42.0426C31.2683 41.6934 30.8524 41.2665 30.6255 40.762C30.3608 40.2575 30.2096 39.6755 30.2096 39.1322C30.2096 38.3949 30.4365 37.6576 30.8524 37.0367C31.117 36.6486 31.4951 36.3382 31.8354 36.0665C32.4782 35.562 33.1965 34.9799 33.6124 33.5829C33.2722 33.5829 32.8563 33.6217 32.5538 33.5053C31.8732 33.3113 31.8354 32.8068 31.9488 32.4187C32.1379 31.6426 33.1209 31.6814 33.8015 31.7202C33.9527 31.7202 34.104 31.7202 34.2552 31.7202C34.5577 30.9829 34.7845 30.0516 34.9358 29.0038C35.1248 27.8396 35.2004 26.5202 35.1626 25.2008C35.1626 24.968 35.1626 24.7739 35.1248 24.5799V24.5411C35.1248 24.3859 35.087 24.1919 35.087 23.9978C35.087 23.8814 35.0492 23.8038 35.0492 23.6874C35.0492 23.6098 35.0492 23.571 35.0114 23.4933C34.9736 23.2217 34.9358 22.9889 34.9358 22.7948C34.9358 22.4844 35.1248 22.1739 35.3895 22.0187C35.5029 21.9411 35.6541 21.9023 35.7676 21.9023C35.881 21.9023 36.0322 21.9023 36.1835 21.9799C36.4103 22.0963 36.675 22.3292 36.7506 22.9501C36.9396 24.2695 36.9775 25.7829 36.864 27.2187C36.7506 28.6934 36.5237 30.1292 36.1835 31.3322C36.0322 31.8755 35.6919 32.962 35.3139 33.8934C35.0492 34.5919 34.8223 35.174 34.6333 35.4844C34.0661 36.4546 33.499 36.8814 33.0075 37.2307L32.8563 37.1143L32.9697 37.2695C32.5538 37.6187 32.1757 37.8516 32.0244 38.4337C31.9488 38.7053 31.911 38.977 31.9866 39.2874C32.0244 39.6367 32.2135 39.9471 32.4403 40.1799C32.6672 40.4516 32.9697 40.6456 33.2722 40.7232C33.5368 40.8008 33.8393 40.8396 34.104 40.762C34.8601 40.6068 35.1626 40.2576 35.5407 39.8307L35.6163 39.7143C36.4103 38.8217 36.864 37.774 37.3177 36.8038C37.3934 36.6098 37.469 36.4157 37.5824 36.2217L37.9983 35.2904C39.4729 32.1859 40.834 29.2366 40.834 25.5501C40.834 23.9202 40.7206 22.7949 40.4937 21.7859C40.2291 20.6605 39.8132 19.6516 39.0948 18.4874C38.8679 18.1381 38.6411 17.7889 38.3764 17.5172C38.1117 17.168 37.8093 16.8963 37.5446 16.6635C37.469 16.5859 37.3934 16.5471 37.3556 16.4695C37.3177 16.3919 37.2799 16.3918 37.2043 16.3142C36.5994 15.8098 35.8054 15.3053 35.087 14.956C34.482 14.6456 33.8393 14.4127 33.3478 14.3351C33.2722 14.4904 33.1965 14.6456 33.1209 14.762L33.0453 14.9172C32.9319 15.1501 32.7806 15.3441 32.6294 15.6157C32.5916 15.6933 32.5538 15.7322 32.516 15.771L32.4782 15.8098C32.3647 15.9262 32.3269 15.965 32.3269 16.1978V19.6904C32.3269 19.768 32.3269 19.8844 32.3269 19.962V20.1172C32.3269 20.3112 32.3269 20.5053 32.2891 20.6605C32.1757 21.2814 31.7976 21.5143 31.0792 21.3978H31.0036L30.8524 21.2426C30.5499 20.9322 30.5499 20.8933 30.5499 20.2725V17.7113C30.5121 17.7113 30.5121 17.7501 30.4743 17.7501C29.6803 18.2933 28.1679 19.2635 25.975 19.2635C23.1771 19.2635 21.9294 18.4098 21.0976 17.8277C21.022 17.7889 20.9463 17.7113 20.8707 17.6724V19.2247C20.8707 19.3411 20.8707 19.4575 20.8707 19.5739C20.9085 20.2337 20.9085 21.0486 20.3792 21.3202L20.3414 21.359H20.2658C19.5852 21.4754 19.1315 21.2038 19.0181 20.5053C18.9803 20.1948 18.9803 19.8844 19.0181 19.5351C19.0181 19.3411 19.0559 19.1471 19.0559 18.9919V16.0814C19.0559 15.9262 18.8668 15.6545 18.7156 15.4605L18.6778 15.4217C18.6022 15.3441 18.5644 15.2665 18.4887 15.1889C18.3753 15.0336 18.2997 14.8784 18.2241 14.7232L18.1485 14.568C18.1106 14.4904 18.035 14.3739 17.9972 14.2963C17.2788 14.4127 16.258 14.8784 15.2371 15.5381C14.1407 16.2366 13.1954 17.0903 12.7039 17.7889L11.7587 19.2247C11.4184 19.8068 11.1159 20.6217 10.8513 21.6307C10.6244 22.6396 10.4732 23.7262 10.4732 24.6963C10.4732 29.3143 11.6453 31.7978 13.2711 35.174L13.6113 35.8725C13.7248 36.1441 13.876 36.4158 13.9894 36.6486L14.1029 36.8814C14.6322 38.0844 15.0103 38.9381 16.1824 40.1023C16.4848 40.4128 16.8251 40.6068 17.1654 40.6844C17.5057 40.762 17.8838 40.7232 18.2997 40.568C18.64 40.4516 18.9424 40.1799 19.1693 39.8695C19.3583 39.559 19.5096 39.2098 19.5096 38.8217C19.5096 37.968 18.9424 37.5411 18.4509 37.1531L18.4131 37.1143C17.8082 36.6486 17.3545 36.2217 17.0142 35.6396C16.7117 35.174 16.447 34.5919 16.1446 33.7769C15.8421 32.962 15.4262 31.7202 15.0859 30.4008C14.7456 29.0038 14.5566 27.762 14.5566 26.5978C14.5566 26.4814 14.5566 26.4038 14.5566 26.2874C14.5566 26.171 14.5566 26.0545 14.5566 25.9381C14.5188 24.6963 14.5188 23.4934 14.7834 22.4844C14.8212 22.2128 15.0103 21.9799 15.2371 21.8247C15.5018 21.6695 15.8799 21.6695 16.1446 21.8247C16.3714 21.9799 16.4848 22.1739 16.5227 22.4068C16.5605 22.562 16.5227 22.9501 16.4092 23.7262L16.3714 23.9202C16.3336 24.1143 16.3336 24.2695 16.3336 24.3471C16.258 25.5501 16.3336 27.0247 16.5227 28.3441C16.6739 29.5859 16.9386 30.6725 17.241 31.4486C17.3545 31.4486 17.5057 31.4486 17.6569 31.4486H17.7326C18.3753 31.4486 19.0559 31.4098 19.3583 31.759C19.5096 31.9531 19.5852 32.1471 19.5852 32.3799C19.5852 32.6516 19.4718 32.8456 19.3205 33.0008C19.0937 33.2337 18.5644 33.2725 17.8838 33.2725C18.2997 34.6695 19.0181 35.2128 19.6608 35.7172L19.7364 35.7949C20.0767 36.0665 20.417 36.3382 20.6439 36.7262C20.6817 36.765 20.6817 36.8038 20.7195 36.8426C20.7573 36.8814 20.7573 36.9202 20.7951 36.959C21.2488 37.7352 21.4001 38.6665 21.211 39.5591C21.022 40.4516 20.4926 41.2277 19.7364 41.771C19.6986 41.8098 19.623 41.8874 19.5474 41.9262L19.5096 41.965C19.2071 42.1591 18.9424 42.2755 18.64 42.3531C18.2997 42.4307 17.9594 42.4695 17.5813 42.4695C16.9007 42.4695 16.5983 42.3531 16.258 42.1979H16.2202L16.3714 46.4277C16.3714 46.8158 16.4092 47.2038 16.4092 47.5919C16.4092 47.9024 16.447 48.2128 16.447 48.5232C16.5227 50.3859 16.5983 52.3262 16.7117 53.9173C18.5644 53.8785 20.7195 53.8785 21.4379 54.0725C21.7403 54.1501 21.9672 54.2665 22.1562 54.383L22.194 53.8785C22.2319 53.2188 22.2697 52.5203 22.3075 51.8217L22.3453 51.3173C22.4587 49.3382 22.5721 47.3203 22.6478 45.6516C22.6478 45.1471 22.6478 44.565 22.7234 44.0605C22.799 43.4396 22.988 42.974 23.2527 42.5859C23.4796 42.2755 23.7064 42.0426 24.0089 41.8486C24.5382 41.8486 25.1432 41.6546 25.7481 41.6546ZM25.7859 18.0993C24.4248 18.0993 23.0637 17.7113 21.9672 16.9739C21.4001 16.5859 20.9085 16.159 20.4926 15.6545C20.3414 15.4993 20.1902 15.3053 20.0767 15.1113C19.9633 14.956 19.8499 14.762 19.6986 14.5292C18.7156 12.7829 18.7534 10.959 18.7912 9.0575C18.7912 8.63064 18.7912 8.24259 18.7912 7.81573C18.7912 6.61274 18.9803 5.64258 19.3583 4.86646C19.7364 4.01272 20.3792 3.31422 21.2488 2.69333C22.1184 2.07243 22.6099 1.95602 23.593 1.80079L24.0089 1.72318C24.2357 1.68437 24.7273 1.68436 25.5969 1.68436C26.3909 1.68436 27.2983 1.72317 27.6764 1.76197C28.6972 1.87839 29.6047 2.22765 30.3608 2.73212C31.117 3.27541 31.722 3.97392 32.1757 4.86646C32.4404 5.40974 32.5916 5.87541 32.6672 6.34108C32.7428 6.80675 32.7428 7.31123 32.7428 8.08735C32.7428 8.24258 32.7428 8.43661 32.7428 8.63064C32.7428 8.82467 32.7428 9.01871 32.7428 9.21274C32.7806 11.3471 32.7806 13.0545 31.7598 14.7232C31.3817 15.3829 30.8902 15.965 30.323 16.4306C29.1509 17.4396 27.7142 18.0217 26.164 18.1381C26.0506 18.0993 25.9372 18.0993 25.7859 18.0993ZM25.6347 1.99482C24.8029 1.99482 24.3114 1.99481 24.1223 2.03362L23.7064 2.11124C22.7612 2.26646 22.3075 2.34406 21.4757 2.92615C20.6439 3.50825 20.0389 4.16795 19.6986 4.94407C19.3584 5.68139 19.1693 6.57393 19.1693 7.73811C19.1693 8.16498 19.1693 8.55304 19.1693 8.97991C19.1315 10.8814 19.0937 12.6277 20.0389 14.2575C20.1902 14.4904 20.2658 14.6456 20.3792 14.8008C20.4926 14.9948 20.6061 15.1113 20.7573 15.3053C21.1732 15.771 21.6269 16.1978 22.1562 16.5471C23.2905 17.2844 24.7273 17.6724 26.1262 17.5948C27.6008 17.5172 28.9619 16.9351 30.0962 15.965C30.6255 15.4993 31.0792 14.956 31.4573 14.3351C32.4403 12.7441 32.4025 11.1142 32.3647 9.01871C32.3647 8.82467 32.3647 8.63064 32.3647 8.43661C32.3647 8.24258 32.3647 8.04854 32.3647 7.89332C32.3647 7.15601 32.3647 6.65153 32.2891 6.22467C32.2135 5.7978 32.1001 5.37093 31.8354 4.86646C31.4195 4.05153 30.8524 3.39184 30.1718 2.88736C29.4534 2.38288 28.6216 2.07242 27.6386 1.956C27.3739 2.07242 26.5421 2.03363 25.6347 1.99482ZM25.7103 16.4695C25.1054 16.4695 24.5004 16.353 23.8955 16.1202C23.2905 15.8874 22.6856 15.4993 22.1562 14.9948L21.8916 14.762C21.6647 14.5292 21.4757 14.3351 21.3622 14.1023C21.211 13.8694 21.0598 13.5978 20.9085 13.365C20.6439 12.8605 20.4548 12.2396 20.3036 11.6187C20.1902 10.9978 20.1523 10.3769 20.228 9.75603C20.3036 9.05752 20.4548 8.43662 20.7195 7.81573C20.9841 7.23364 21.3244 6.69034 21.7781 6.22467C21.9294 6.03064 22.1562 5.83661 22.4587 5.64258C22.6478 5.48735 22.9124 5.33212 23.2149 5.1769C23.5552 4.98287 23.8576 4.86645 24.1979 4.78884C24.4626 4.71123 24.6895 4.67243 24.9919 4.67243L25.4078 4.63363C25.7103 4.59482 26.0506 4.59482 26.4665 4.63363C26.8446 4.67244 27.2227 4.78886 27.563 4.90528C27.9032 5.02169 28.2435 5.21571 28.6216 5.44855C28.9619 5.68138 29.2644 5.91423 29.529 6.18587C30.0206 6.69035 30.4365 7.31125 30.7011 8.00976C30.9658 8.70827 31.117 9.48438 31.1548 10.2605C31.1548 11.0366 31.0414 11.8515 30.8146 12.5889C30.5877 13.3262 30.2096 13.9471 29.7181 14.5292L29.4912 14.762C28.9997 15.2665 28.3948 15.6933 27.7898 16.0038C27.1471 16.2754 26.5043 16.4695 25.8237 16.4695C25.8237 16.4695 25.7859 16.4695 25.7103 16.4695ZM25.9372 4.98287C25.7859 4.98287 25.6347 4.98288 25.4834 5.02169L25.0297 5.06049C24.7273 5.09929 24.5004 5.09929 24.2736 5.1769C23.9711 5.25451 23.7064 5.37094 23.4039 5.52616C23.1015 5.68139 22.8746 5.8366 22.6856 5.95302C22.4209 6.14705 22.2319 6.34109 22.0806 6.49631C21.6647 6.92318 21.3244 7.42765 21.0598 7.97094C20.7951 8.51422 20.6439 9.13513 20.6061 9.75603C20.5682 10.3381 20.5682 10.9202 20.6817 11.5023C20.7951 12.1232 20.9841 12.6665 21.2488 13.1321C21.3622 13.365 21.5135 13.6366 21.6647 13.8307C21.816 14.0247 21.9672 14.2187 22.1562 14.4128L22.3831 14.6456C22.8746 15.1113 23.4417 15.4605 24.0089 15.6933C24.6138 15.9262 25.2188 16.0426 25.8237 16.0038C26.4287 15.965 27.0714 15.8486 27.6386 15.5769C28.2057 15.3053 28.7729 14.9172 29.2266 14.4128L29.4534 14.1799C29.9071 13.6754 30.2474 13.0545 30.4743 12.3948C30.7011 11.7351 30.8146 10.959 30.8146 10.2217C30.8146 9.48437 30.6633 8.78587 30.3987 8.12617C30.134 7.46647 29.7937 6.88438 29.3022 6.45752C29.0375 6.22468 28.7729 5.99183 28.4326 5.75899C28.0923 5.52615 27.752 5.37093 27.4495 5.25452C27.1092 5.1381 26.769 5.02168 26.4287 4.98287C26.2774 4.98287 26.1262 4.98287 25.9372 4.98287ZM38.3008 15.4993L37.6958 15.0724C37.3177 14.8396 36.675 14.3739 36.1835 14.1023C35.0114 13.4814 34.3308 13.3262 34.0661 13.2874C33.8393 13.2098 33.7637 13.171 33.7259 13.171L33.6881 13.1321C33.6124 13.0157 33.6502 12.8993 33.6881 12.5889L33.7259 12.4336C33.7637 12.2396 33.8015 12.0068 33.8393 11.7351C33.8771 11.3859 33.8771 9.83364 33.8771 8.70826C33.8771 7.97095 33.8771 7.23364 33.8771 6.84558V6.65155H34.0661C34.3308 6.69035 34.7467 6.72916 35.3139 6.84558C35.6541 6.92319 35.9944 7.0008 36.2591 7.03961L36.7128 7.1172C38.6411 7.54407 38.4898 9.75602 38.3764 12.1232V12.3172C38.3386 13.2486 38.3008 14.1799 38.3386 15.1501L38.3008 15.4993ZM33.9905 12.8605C34.0283 12.8605 34.0661 12.8993 34.1418 12.8993C34.5955 13.0157 35.276 13.2098 36.3347 13.753C36.7884 13.9859 37.3934 14.3739 37.8849 14.7232C37.8471 13.8695 37.8849 13.0545 37.9227 12.2396V12.0456C38.0361 9.75601 38.1495 7.81572 36.5616 7.46646L36.1078 7.38885C35.8432 7.31124 35.5029 7.27243 35.1626 7.19482C34.7467 7.11721 34.4064 7.07841 34.1796 7.03961C34.1796 7.46647 34.1796 8.04856 34.1796 8.70826C34.1796 10.1829 34.2174 11.4635 34.1418 11.8127C34.104 12.1232 34.0661 12.356 34.0283 12.55L33.9905 12.7053C34.0283 12.7441 33.9905 12.8217 33.9905 12.8605ZM13.2711 15.4605L13.3089 15.0724C13.3467 14.4903 13.3089 13.6366 13.3089 13.0157V12.9381C13.3089 12.5889 13.2711 12.2396 13.2711 11.968C13.2711 11.6187 13.2711 11.3083 13.2333 10.959C13.1954 9.13512 13.1198 7.42765 14.9725 7.00079C15.275 6.92317 15.8043 6.80675 16.3336 6.72914C16.9007 6.61272 17.2788 6.57392 17.5435 6.53511H17.7326V6.72914C17.7326 7.00078 17.7326 7.42765 17.7326 7.89332C17.7326 8.12616 17.7326 8.3978 17.7326 8.66944C17.7326 9.79482 17.6947 11.1918 17.7326 11.5799C17.7704 11.8515 17.8082 12.0844 17.846 12.2784V12.356C17.9216 12.7053 17.9594 12.9769 17.6947 13.1321L16.5227 13.5202L16.2958 13.6366C16.1824 13.6754 16.0311 13.753 15.9177 13.7918C15.7287 13.8695 15.5396 13.9471 15.3506 14.0635L15.2371 14.1411C15.0859 14.2187 14.9347 14.2963 14.8212 14.3739C14.5944 14.4904 14.4431 14.6068 14.2919 14.6844C14.1785 14.762 14.0651 14.8396 13.9516 14.9172C13.8004 15.0336 13.6492 15.1501 13.4979 15.2277L13.2711 15.4605ZM13.6492 13.0545C13.6492 13.559 13.687 14.2187 13.6492 14.762C13.687 14.7232 13.7248 14.6844 13.7626 14.6844C13.876 14.6068 13.9894 14.4904 14.1407 14.4128C14.2919 14.2963 14.4431 14.2187 14.67 14.0635C14.8212 13.9859 14.9725 13.9083 15.1237 13.8307L15.2371 13.753C15.4262 13.6366 15.6152 13.559 15.8043 13.4814C15.9177 13.4426 16.0311 13.365 16.1824 13.3262L16.447 13.2098L17.5435 12.8605C17.5435 12.7829 17.5057 12.6277 17.5057 12.5112L17.6947 12.3948L17.5057 12.4336C17.4679 12.2396 17.4301 12.0068 17.3923 11.6963C17.3545 11.2695 17.3545 9.87243 17.3923 8.74706C17.3923 8.47542 17.3923 8.20377 17.3923 7.97094C17.3923 7.62168 17.3923 7.31125 17.3923 7.03961C17.1654 7.07841 16.8629 7.11721 16.447 7.19482C15.8799 7.31124 15.3884 7.38885 15.0859 7.46646C13.5357 7.81572 13.5735 9.21273 13.6492 10.9978C13.6492 11.3471 13.687 11.6963 13.687 12.0456C13.687 12.3172 13.687 12.6665 13.7248 13.0157L13.6492 13.0545ZM25.7103 15.1113C25.2566 15.1113 24.8029 15.0336 24.387 14.8396C23.9333 14.6456 23.4796 14.3739 23.0637 13.9859L22.8746 13.7918C22.7234 13.6754 22.6099 13.4814 22.4587 13.2874C22.3075 13.0933 22.194 12.8993 22.1184 12.7053C21.8916 12.2396 21.7403 11.7739 21.6647 11.3083C21.5513 10.8426 21.5513 10.3381 21.5891 9.83362C21.6269 9.32914 21.7781 8.82467 21.9672 8.359C22.194 7.89333 22.4587 7.46647 22.799 7.15602C22.9502 7.0008 23.1393 6.84556 23.2905 6.72914C23.4796 6.57392 23.6686 6.4575 23.8955 6.34108C24.1979 6.18586 24.4248 6.10826 24.6138 6.06946C24.8029 6.03065 24.9919 5.99184 25.2188 5.99184L25.4456 5.95302C25.5213 5.95302 25.5969 5.91422 25.7103 5.91422C25.9372 5.87542 26.164 5.87542 26.4665 5.91422C26.769 5.95303 27.0336 6.03064 27.2605 6.10825C27.563 6.22467 27.8654 6.37989 28.0923 6.53511C28.357 6.69033 28.6216 6.88437 28.8107 7.0784C29.1888 7.46646 29.4912 7.93213 29.7181 8.47541C29.9449 9.0187 30.0584 9.63959 30.0584 10.2217C30.0584 10.8426 29.9827 11.4635 29.7937 12.0456C29.6047 12.5889 29.3022 13.1321 28.9619 13.559L28.7729 13.753C28.3948 14.1411 27.9789 14.4515 27.4873 14.6844C26.9958 14.9172 26.5043 15.0336 26.0128 15.0336C25.7859 15.1113 25.7481 15.1113 25.7103 15.1113ZM25.9372 6.30228C25.8615 6.30228 25.7481 6.30228 25.6725 6.30228C25.5969 6.30228 25.4834 6.34108 25.4456 6.34108L25.2188 6.3799C24.9919 6.41871 24.8407 6.41871 24.6516 6.45752C24.5004 6.49632 24.3114 6.57393 24.0467 6.69034C23.8577 6.80676 23.6686 6.92319 23.5174 7.03961C23.3661 7.15603 23.2149 7.31124 23.0637 7.46646C22.7612 7.77691 22.5343 8.12618 22.3075 8.59185C22.1184 9.01871 22.005 9.48439 21.9672 9.95006C21.9294 10.4157 21.9672 10.8814 22.0428 11.3083C22.1184 11.7351 22.2697 12.162 22.4587 12.5889C22.5343 12.7441 22.6478 12.9381 22.7612 13.0933C22.8746 13.2874 23.0258 13.4038 23.1393 13.5202L23.3283 13.7142C23.7064 14.0635 24.1223 14.3351 24.5382 14.4903C24.9919 14.6844 25.4456 14.762 25.8615 14.7232C26.3153 14.7232 26.7312 14.6068 27.1849 14.4128C27.6386 14.2187 28.0167 13.9083 28.3948 13.559L28.5838 13.365C28.9241 12.9769 29.1888 12.5113 29.34 12.0068C29.529 11.4635 29.6047 10.8814 29.6047 10.2993C29.6047 9.75601 29.4912 9.21273 29.3022 8.66944C29.1131 8.20377 28.8485 7.77692 28.5082 7.42767C28.3191 7.27244 28.0923 7.07839 27.8654 6.92317C27.6386 6.76795 27.3739 6.65153 27.1092 6.53511C26.9202 6.4575 26.6555 6.37989 26.3909 6.34108C26.164 6.30227 26.0506 6.30228 25.9372 6.30228Z" fill="#593085"/>
<path d="M47.5156 10.6065L47.2878 50.4991L48.8002 50.5082L49.0279 10.6156L47.5156 10.6065Z" fill="#593085"/>
<path d="M48.9998 50.736H47.1094L47.3362 10.4553H49.2267L48.9998 50.736ZM47.4875 50.3091H48.6217L48.8486 10.8046H47.7143L47.4875 50.3091Z" fill="#593085"/>
<path d="M75.3165 27.6847H47.5267V9.83396H75.3165V27.6847ZM49.0391 26.1325H73.8042V11.3862H49.0391V26.1325Z" fill="#593085"/>
<path d="M75.5048 27.879H47.3369V9.64014H75.5048V27.879ZM47.715 27.4909H75.1267V10.0282H47.715V27.4909ZM73.9924 26.3267H48.8493V11.1924H73.9924V26.3267ZM49.2274 25.9387H73.6143V11.5804H49.2274V25.9387Z" fill="#593085"/>
<path d="M65.8259 55.8189C61.1754 53.9563 55.3528 51.6667 40.04 49.804L40.2291 48.2518C55.7309 50.1145 61.6291 52.4816 66.3931 54.3831L65.8259 55.8189Z" fill="#593085"/>
<path d="M65.9387 56.0521L65.7496 55.9745C61.0991 54.1118 55.3143 51.8223 40.0015 49.9596L39.8125 49.9208L40.0394 47.9805L40.2284 48.0193C55.768 49.882 61.6662 52.2491 66.4302 54.1506L66.6193 54.2282L65.9387 56.0521ZM40.2662 49.6103C55.2765 51.4342 61.0991 53.7238 65.7118 55.5476L66.1277 54.4611C61.4394 52.5984 55.5411 50.3088 40.3796 48.4461L40.2662 49.6103Z" fill="#593085"/>
<path d="M0.869596 54.4611L0.264648 53.0641C2.83568 51.9387 4.5749 50.7745 12.3636 49.1058L12.6661 50.6193C5.10423 52.2879 3.13815 53.4521 0.869596 54.4611Z" fill="#593085"/>
<path d="M0.793996 54.732L0 52.9858L0.189046 52.9081C0.567139 52.7529 0.945232 52.5589 1.28551 52.4037C3.44064 51.3947 5.67139 50.3858 12.3258 48.95L12.5149 48.9111L12.893 50.8126L12.7039 50.8514C6.1251 52.2873 3.81873 53.335 1.81484 54.2664C1.51237 54.3828 1.24771 54.538 0.945231 54.6544L0.793996 54.732ZM0.52933 53.1798L0.983043 54.2276C1.2099 54.1111 1.43675 54.0335 1.66361 53.9171C3.6675 52.9858 5.93605 51.938 12.4392 50.5022L12.2124 49.3768C5.74701 50.7738 3.55407 51.7828 1.43675 52.7529C1.13428 52.9082 0.831804 53.0246 0.52933 53.1798Z" fill="#593085"/>
<path d="M55.2778 22.2136H51.875V21.0494H52.8959V16.0047H52.1019V14.9181H54.2948V21.0494H55.2778V22.2136Z" fill="#593085"/>
<path d="M63.6332 17.052H62.1209C61.894 16.3147 61.2891 15.9266 60.3438 15.9266C60.0414 15.9266 59.7767 16.0042 59.512 16.1206C59.0583 16.3147 58.718 16.6639 58.4534 17.1296C58.2643 17.5177 58.1509 17.9833 58.1509 18.4878C58.1509 19.1475 58.3021 19.7684 58.6424 20.2341C59.0583 20.8162 59.6255 21.1266 60.3438 21.1266C61.2513 21.1266 61.8184 20.7774 62.0831 20.0401H63.5954C63.3686 20.7386 62.9905 21.2818 62.4612 21.6699C61.894 22.058 61.2134 22.2908 60.3816 22.2908C59.2096 22.2908 58.3021 21.9027 57.6594 21.0878C57.0544 20.3893 56.752 19.4968 56.752 18.449C56.752 17.44 57.0544 16.5475 57.6594 15.849C58.34 15.0729 59.2096 14.6848 60.3438 14.6848C61.1756 14.6848 61.894 14.8789 62.4612 15.3057C63.0283 15.7714 63.4064 16.3147 63.6332 17.052Z" fill="#593085"/>
<path d="M66.6961 19.9623H64.2007V18.8757H66.6961V19.9623Z" fill="#593085"/>
<path d="M71.914 20.0015C71.914 20.6612 71.725 21.2045 71.2713 21.5925C70.8554 21.9806 70.2504 22.1746 69.4942 22.1746H67.4904V14.8791H71.4603V16.0044H68.8515V17.7507H69.3808C70.1748 17.7507 70.8176 17.9447 71.2335 18.3328C71.6872 18.7597 71.914 19.3029 71.914 20.0015ZM70.5907 20.0015C70.5907 19.2253 70.1748 18.8373 69.3808 18.8373H68.8893V21.088H69.3808C69.7589 21.088 70.0614 21.0104 70.2882 20.8164C70.4773 20.5836 70.5907 20.3507 70.5907 20.0015Z" fill="#593085"/>
</svg>
