<svg width="82" height="82" viewBox="0 0 82 82" fill="none" xmlns="http://www.w3.org/2000/svg">
<path fill-rule="evenodd" clip-rule="evenodd" d="M81.8363 40.9325C81.8363 43.4046 81.6063 45.8191 81.1751 48.1762C77.7545 67.2914 61.0251 81.8363 40.9038 81.8363C25.7553 81.8363 12.5327 73.5865 5.4615 61.3413C3.73682 58.3518 2.38581 55.1324 1.43724 51.7118C0.517405 48.2912 0 44.6693 0 40.9325C0 18.3391 18.3104 0 40.9038 0C59.5591 0 75.3112 12.4752 80.2266 29.5496C81.2614 33.1714 81.8363 36.9657 81.8363 40.9325Z" fill="#F2F2F2"/>
<path fill-rule="evenodd" clip-rule="evenodd" d="M16.9891 46.3078L17.9952 49.2972C19.8924 48.3774 21.3871 47.8887 23.6579 47.8887C25.3251 47.8887 26.5324 48.8086 26.5324 50.5045C26.5324 52.2292 24.9227 53.3502 23.8591 54.1263C23.5429 54.385 23.313 54.5863 22.968 54.8162L21.1859 56.1672C18.4551 58.4668 16.328 61.7724 16.328 65.6242H30.7866C30.7866 61.8299 31.0741 62.2611 29.8668 62.2611H21.3296C21.4446 61.0826 22.5944 59.7603 23.3705 59.0129C24.2903 58.0644 25.2101 57.432 26.2449 56.5984C28.3433 54.9312 30.6141 53.3502 30.6141 50.0158C30.6141 48.2624 29.953 47.1701 28.8895 46.1066C27.4235 44.6693 25.0664 44.6406 23.1118 44.6406C21.0996 44.6406 18.3114 45.6179 16.9891 46.3078Z" fill="#593085"/>
<path fill-rule="evenodd" clip-rule="evenodd" d="M40.3575 55.6786V57.3457H37.5693C36.7357 57.3457 36.2757 57.4607 35.4421 57.4607L40.53 50.677C40.53 52.4017 40.3575 53.7814 40.3575 55.6786ZM31.1592 58.1793V60.5077H40.3575V65.3368C40.3575 65.538 40.415 65.6242 40.6162 65.6242H44.1518V60.5077H47.3137V57.6332C47.3137 57.432 47.2275 57.3457 47.0263 57.3457H44.1518V44.6406C40.9324 44.6406 41.7085 44.2094 40.185 46.2503C38.1154 49.0098 35.7583 51.913 33.6887 54.6725L31.7628 57.202C31.5329 57.5182 31.1592 57.7769 31.1592 58.1793Z" fill="#593085"/>
<path fill-rule="evenodd" clip-rule="evenodd" d="M59.0711 46.6814C60.4508 46.6814 61.112 46.7389 62.4342 47.3426C63.1816 47.6875 63.699 48.2049 64.2451 48.7511C66.6597 51.1369 66.5735 55.3049 64.0727 57.8057C60.9682 60.9101 55.6505 60.019 53.6383 56.0235C53.2072 55.1611 53.1497 54.5575 53.006 53.4077C52.7473 51.6255 54.012 49.1535 55.5067 48.0325C56.4553 47.3138 57.8063 46.6814 59.0711 46.6814ZM67.522 52.8041V53.5802C67.4646 54.6437 67.2059 55.7073 66.7172 56.7421C66.1998 57.8344 64.935 59.2429 63.929 59.8753C60.1059 62.2898 55.478 61.3125 53.006 57.8632C51.8274 56.2534 51.4825 54.9024 51.4825 52.8041C51.4825 49.9009 53.6671 46.8252 56.3403 45.7904C59.8185 44.4106 63.1816 45.2442 65.5961 47.975C65.7686 48.1762 65.8549 48.2624 66.0273 48.4924C66.3148 48.866 66.516 49.211 66.7459 49.6996C67.2059 50.677 67.4646 51.7405 67.522 52.8041Z" fill="#593085"/>
<path fill-rule="evenodd" clip-rule="evenodd" d="M58.8994 49.3835V54.0114C58.8994 54.2413 58.9569 54.2988 59.1869 54.2988H64.1022C64.1022 53.4365 64.2172 53.0915 63.8148 53.0915H60.1067V49.096C59.2444 49.096 58.8994 48.981 58.8994 49.3835Z" fill="#593085"/>
<path fill-rule="evenodd" clip-rule="evenodd" d="M20.6685 32.5965H19.2025V28.1986C20.9272 28.1986 22.8243 27.9399 23.6867 29.2909C24.1178 30.0095 24.0316 31.5905 22.9968 32.1654C22.4219 32.5103 21.5595 32.5965 20.6685 32.5965ZM21.847 34.9823H16.328C16.328 30.067 16.3855 24.9217 16.328 20.0063V19.374C16.3567 19.2877 16.4717 19.259 16.7592 19.259C18.8001 19.2877 22.1344 19.029 23.6867 19.8626C24.6352 20.38 25.3539 21.0986 25.67 22.1622C25.8425 22.7371 25.8713 23.427 25.7275 24.0881C25.6126 24.6917 25.4113 25.1229 25.0951 25.5828C24.6352 26.2152 24.2041 26.3014 23.9166 26.5601C24.2041 26.5601 24.6927 26.8188 24.9514 26.9338C25.8713 27.4225 26.4174 28.2273 26.7336 29.2334C27.1648 30.6131 26.6761 32.2803 25.67 33.3726C25.4688 33.6026 25.1526 33.8613 24.9227 34.0338C24.6352 34.2062 24.3478 34.3787 24.0316 34.4937C23.4567 34.7236 22.6231 34.9536 21.847 34.9823ZM20.611 25.8128H19.2025V21.7023H20.8122C23.6292 21.7023 23.7729 25.8128 20.611 25.8128Z" fill="#593085"/>
<path fill-rule="evenodd" clip-rule="evenodd" d="M61.3692 29.2909L57.1437 34.9824H60.1906L62.2315 32.1654C62.3465 31.9929 62.8064 31.3605 62.9501 31.2455C62.9789 31.418 63.1513 31.6192 63.2663 31.7342L64.2724 33.1427C64.7035 33.7751 65.1635 34.35 65.5946 34.9824H68.5841C68.5266 34.7811 67.7217 33.7463 67.578 33.5451L66.5432 32.1366C66.2558 31.7917 64.6748 29.6646 64.4736 29.2909L67.5205 25.1229C67.693 24.9217 68.4978 23.9444 68.5266 23.6857H65.5946C65.2209 24.2318 63.0651 27.2213 62.8926 27.3363L60.9955 24.663C60.0469 23.3695 60.8517 23.6857 57.3161 23.6857C57.3736 23.9156 57.4024 23.8581 57.5174 24.0306L59.3283 26.5027C59.6732 26.9913 59.9894 27.4512 60.3343 27.8824L61.0817 28.946C61.1967 29.0897 61.2542 29.1759 61.3692 29.2909Z" fill="#593085"/>
<path fill-rule="evenodd" clip-rule="evenodd" d="M35.902 21.0986V23.6857H34.0623C33.9186 23.6857 33.8898 23.7144 33.8898 23.8581V25.8128C33.8898 25.9565 33.9186 25.9852 34.0623 25.9852H35.902V31.9929C35.902 32.769 36.1032 33.5164 36.4194 33.9763C36.6781 34.35 37.3392 34.9823 37.9141 34.9823H40.8173C41.3347 34.9823 42.2258 34.4362 42.4558 34.3787L41.5934 32.3666C40.961 32.6828 39.3226 33.4301 38.9202 32.3091C38.6902 31.6767 38.7764 26.9338 38.7764 25.9852H41.3635C41.5647 25.9852 41.5934 25.6691 41.6509 25.4966L42.1683 23.8581C42.1683 23.7719 42.2258 23.6857 42.0246 23.6857H38.7764V20.2363C38.5752 20.3513 38.3453 20.38 38.0866 20.4663L35.902 21.0986Z" fill="#593085"/>
<path fill-rule="evenodd" clip-rule="evenodd" d="M46.7387 24.8929C46.6524 24.4905 46.5375 24.0881 46.4225 23.6857L44.4678 23.6569C44.2091 23.6569 43.9792 23.5994 43.9792 23.8581V34.9823H46.8537V27.1638C46.8537 26.9338 47.601 26.5026 47.7735 26.3589C49.067 25.4966 49.9581 26.1865 50.4755 26.3014C50.5905 25.7553 51.3666 24.1743 51.4528 23.8581C51.2516 23.8006 51.3378 23.8006 51.1079 23.6857C50.9929 23.6569 50.8492 23.5994 50.7629 23.5707C48.4634 22.8521 47.1124 24.8067 46.7387 24.8929Z" fill="#593085"/>
<path fill-rule="evenodd" clip-rule="evenodd" d="M52.7473 23.8581V34.9823H55.478C55.6217 34.9823 55.6792 34.9536 55.6792 34.8099V23.8581C55.6792 23.7144 55.6217 23.6857 55.478 23.6857H52.9197C52.776 23.6857 52.7473 23.7144 52.7473 23.8581Z" fill="#593085"/>
<path fill-rule="evenodd" clip-rule="evenodd" d="M29.291 34.9823H32.1654V23.8581C32.1654 23.7144 32.1367 23.6857 31.993 23.6857H29.291V34.9823Z" fill="#593085"/>
<path fill-rule="evenodd" clip-rule="evenodd" d="M52.4314 20.1788C52.4314 21.2424 53.2075 21.9035 54.1561 21.9322C55.0472 21.9897 55.967 21.2424 55.967 20.1213C55.967 19.2877 55.1909 18.4829 54.2136 18.4829C53.2362 18.4829 52.4314 19.2302 52.4314 20.1788Z" fill="#593085"/>
<path fill-rule="evenodd" clip-rule="evenodd" d="M29.0033 20.1213C29.0033 20.9549 29.3482 21.5873 30.1531 21.846C31.5903 22.3059 32.9701 20.9837 32.3664 19.4889C31.734 17.908 29.0033 18.2529 29.0033 20.1213Z" fill="#593085"/>
</svg>
