<svg width="82" height="82" viewBox="0 0 82 82" fill="none" xmlns="http://www.w3.org/2000/svg">
<path fill-rule="evenodd" clip-rule="evenodd" d="M81.8363 40.9038C81.8363 46.7677 80.6002 52.3729 78.3582 57.4032C78.042 58.1794 77.6683 58.9267 77.2946 59.6453C76.7772 60.6514 76.231 61.6287 75.6274 62.5773C74.6501 64.1295 73.5865 65.6242 72.408 67.0327C71.5744 68.0101 70.7121 68.9586 69.821 69.8785C68.4987 71.172 67.119 72.3793 65.6817 73.4716C62.9222 75.5699 59.9328 77.3233 56.7134 78.6456C55.0462 79.3642 53.3215 79.9391 51.5393 80.4278C50.4183 80.7152 49.2685 80.9739 48.0899 81.1751C45.7616 81.6063 43.3758 81.8075 40.9325 81.8075C40.6738 81.8075 40.4151 81.8075 40.1564 81.8075C38.2592 81.7788 36.3908 81.6063 34.5799 81.3189C31.9354 80.9164 29.4059 80.2553 26.9626 79.3642C22.4209 77.7258 18.2529 75.3112 14.6311 72.2643C10.2331 68.5562 6.61129 63.9283 4.08175 58.6968C1.46598 53.3215 0 47.2851 0 40.9038C0 18.3104 18.3391 0 40.9325 0C63.5259 0 81.8363 18.3104 81.8363 40.9038Z" fill="#F2F2F2"/>
<path fill-rule="evenodd" clip-rule="evenodd" d="M71.2004 67.8663L48.0896 81.1751C49.2682 80.9739 50.418 80.7152 51.539 80.4278C53.3212 79.9391 55.0459 79.3642 56.7131 78.6456L65.6814 73.4716C67.1187 72.3793 68.4984 71.172 69.8207 69.8785C70.7117 68.9586 71.5741 68.0101 72.4077 67.0327C72.034 67.3202 71.6028 67.6076 71.2004 67.8663ZM72.2352 19.7189L47.3423 5.34652C43.5767 3.16191 38.8626 3.16191 35.097 5.34652L10.2041 19.7189C6.40976 21.9035 4.08144 25.9565 4.08144 30.3257V58.6968C6.61098 63.9283 10.2328 68.5562 14.6308 72.2643L26.9623 79.3642C29.4056 80.2553 31.9351 80.9164 34.5796 81.3189L11.2389 67.8663C8.13445 66.0554 6.17981 62.6923 6.17981 59.0992V30.3257C6.17981 26.7326 8.13445 23.3695 11.2389 21.5585L36.1606 7.18618C37.7128 6.26635 39.4662 5.83518 41.2196 5.83518C42.9731 5.83518 44.7265 6.26635 46.2787 7.18618L71.2004 21.5585C73.3563 22.7946 74.966 24.8067 75.7133 27.135C76.0583 28.1411 76.2595 29.2334 76.2595 30.3257V59.0992C76.2595 60.3065 76.0295 61.485 75.6271 62.5773C76.2307 61.6287 76.7769 60.6514 77.2943 59.6453C77.668 58.9267 78.0417 58.1794 78.3578 57.4032V30.3257C78.3578 25.9565 76.0295 21.9035 72.2352 19.7189Z" fill="#593085"/>
<path fill-rule="evenodd" clip-rule="evenodd" d="M77.2944 30.2682V59.0992C77.2944 59.2716 77.2944 59.4729 77.2944 59.6453C76.777 60.6514 76.2309 61.6287 75.6272 62.5773C74.6499 64.1295 73.5863 65.6242 72.4078 67.0327C71.5742 68.01 70.7119 68.9586 69.8208 69.8785L51.5391 80.4278C50.4181 80.7152 49.2683 80.9739 48.0897 81.1751C45.7614 81.6063 43.3756 81.8075 40.9323 81.8075C40.6736 81.8075 40.4149 81.8075 40.1562 81.8075C39.9262 81.2901 39.7825 80.7152 39.7825 80.1116V51.3094C39.7825 47.3138 41.9096 43.6058 45.359 41.6224L70.2807 27.2213C70.7119 26.9626 71.1718 26.7613 71.6604 26.5601C73.0977 25.9852 74.6211 26.2727 75.7134 27.135C76.662 27.8536 77.2944 28.9747 77.2944 30.2682Z" fill="#593085"/>
<path fill-rule="evenodd" clip-rule="evenodd" d="M55.5639 61.485C55.5639 58.5818 53.0056 58.5818 51.7696 58.5818C50.5336 58.5818 49.7575 58.2081 49.7575 56.8858C49.7575 55.5636 51.3384 53.7239 54.1554 54.1551L55.3052 51.2519C55.3052 51.2519 53.9542 51.0506 52.402 51.4531V48.8086L50.1024 50.1308V52.4879C48.6077 53.5802 47.3717 55.5636 47.3717 59.1854C47.3717 60.7664 48.1765 62.2611 50.7923 62.2611C53.4368 62.2611 53.523 64.6469 52.1145 66.0554C50.706 67.4639 47.5441 67.4639 47.5441 67.4639L47.1129 70.6258C47.1129 70.6258 48.464 70.6258 50.1024 70.1084V72.8392L52.402 71.5169V69.0161C54.2704 67.7513 55.8514 65.5092 55.5639 61.485Z" fill="#F2F2F2"/>
<path fill-rule="evenodd" clip-rule="evenodd" d="M66.0263 65.423L59.0701 69.9072V67.4639L66.0263 62.9797V65.423Z" fill="#F2F2F2"/>
</svg>
