<svg width="82" height="82" xmlns="http://www.w3.org/2000/svg" fill="none">

 <g>
  <title>Layer 1</title>
  <path id="svg_1" fill="#F2F2F2" d="m81.8363,40.9038c0,5.8639 -1.2361,11.4691 -3.4781,16.4994c-0.3162,0.7762 -0.6899,1.5235 -1.0636,2.2421c-0.5174,1.0061 -1.0636,1.9834 -1.6672,2.932c-0.9773,1.5522 -2.0409,3.0469 -3.2194,4.4554c-0.8336,0.9774 -1.6959,1.9259 -2.587,2.8458c-1.3223,1.2935 -2.702,2.5008 -4.1393,3.5931c-2.7595,2.0983 -5.7489,3.8517 -8.9683,5.174c-1.6672,0.7186 -3.3919,1.2935 -5.1741,1.7822c-1.121,0.2874 -2.2708,0.5461 -3.4494,0.7473c-2.3283,0.4312 -4.7141,0.6324 -7.1574,0.6324c-0.2587,0 -0.5174,0 -0.7761,0c-1.8972,-0.0287 -3.7656,-0.2012 -5.5765,-0.4886c-2.6445,-0.4025 -5.174,-1.0636 -7.6173,-1.9547c-4.5417,-1.6384 -8.7097,-4.053 -12.3315,-7.0999c-4.398,-3.7081 -8.01981,-8.336 -10.54935,-13.5675c-2.61577,-5.3753 -4.08175,-11.4117 -4.08175,-17.793c0,-22.5934 18.3391,-40.9038 40.9325,-40.9038c22.5934,0 40.9038,18.3104 40.9038,40.9038z" clip-rule="evenodd" fill-rule="evenodd"/>
  <path stroke="null" id="svg_2" fill="#593085" d="m69.52757,64.34476l-22.01693,12.63895c1.12281,-0.19107 2.21819,-0.43675 3.28613,-0.70969c1.69785,-0.4641 3.34091,-1.01007 4.9292,-1.6925l8.54382,-4.91359c1.36927,-1.03732 2.68367,-2.18386 3.94338,-3.41225c0.84883,-0.8736 1.67041,-1.77436 2.46455,-2.70257c-0.35601,0.27303 -0.7668,0.54596 -1.15016,0.79164zm0.98582,-45.72408l-23.71468,-13.649c-3.58737,-2.07466 -8.07834,-2.07466 -11.66571,0l-23.71468,13.649c-3.61475,2.07465 -5.83286,5.92365 -5.83286,10.07295l0,26.94315c2.40981,4.96819 5.86021,9.36316 10.05004,12.88463l11.74783,6.74255c2.32765,0.84625 4.73743,1.47408 7.25676,1.85632l-22.23595,-12.77551c-2.95751,-1.71976 -4.81964,-4.91359 -4.81964,-8.32584l0,-27.32529c0,-3.41225 1.86212,-6.60609 4.81964,-8.32594l23.74212,-13.64894c1.47873,-0.87353 3.14914,-1.283 4.81955,-1.283c1.6705,0 3.34091,0.40947 4.81964,1.283l23.74212,13.64894c2.05386,1.17389 3.58737,3.08471 4.2993,5.29583c0.32867,0.95546 0.52035,1.99278 0.52035,3.03011l0,27.32529c0,1.14654 -0.21911,2.26572 -0.60247,3.30304c0.57503,-0.90086 1.09538,-1.82897 1.58829,-2.78443c0.35601,-0.68243 0.71202,-1.39212 1.01316,-2.12925l0,-25.71466c0,-4.14929 -2.2181,-7.9983 -5.83281,-10.07295z" clip-rule="evenodd" fill-rule="evenodd"/>
  <path stroke="null" id="svg_3" fill="#593085" d="m75.52623,27.55948l0,28.831c0,0.1724 0,0.3737 0,0.5461c-0.5174,1.0061 -1.0635,1.9834 -1.6672,2.932c-0.9773,1.5522 -2.0409,3.0469 -3.2194,4.4554c-0.8336,0.9773 -1.6959,1.9259 -2.587,2.8458l-18.2817,10.5493c-1.121,0.2874 -2.2708,0.5461 -3.4494,0.7473c-2.3283,0.4312 -6.97186,1.85879 -7.1574,0.6324c-0.18554,-1.22639 -0.5174,0 -0.7761,0c-0.23,-0.5174 -0.3737,-1.0923 -0.3737,-1.6959l0,-28.8022c0,-3.9956 2.1271,-7.7036 5.5765,-9.687l24.9217,-14.4011c0.4312,-0.2587 0.8911,-0.46 1.3797,-0.6612c1.4373,-0.5749 2.9607,-0.2874 4.053,0.5749c0.9486,0.7186 1.581,1.8397 1.581,3.1332z" clip-rule="evenodd" fill-rule="evenodd"/>
  <path id="svg_4" fill="#F2F2F2" d="m55.5639,61.485c0,-2.9032 -2.5583,-2.9032 -3.7943,-2.9032c-1.236,0 -2.0121,-0.3737 -2.0121,-1.696c0,-1.3222 1.5809,-3.1619 4.3979,-2.7307l1.1498,-2.9032c0,0 -1.351,-0.2013 -2.9032,0.2012l0,-2.6445l-2.2996,1.3222l0,2.3571c-1.4947,1.0923 -2.7307,3.0757 -2.7307,6.6975c0,1.581 0.8048,3.0757 3.4206,3.0757c2.6445,0 2.7307,2.3858 1.3222,3.7943c-1.4085,1.4085 -4.5704,1.4085 -4.5704,1.4085l-0.4312,3.1619c0,0 1.3511,0 2.9895,-0.5174l0,2.7308l2.2996,-1.3223l0,-2.5008c1.8684,-1.2648 3.4494,-3.5069 3.1619,-7.5311z" clip-rule="evenodd" fill-rule="evenodd"/>
  <path id="svg_5" fill="#F2F2F2" d="m66.0263,65.423l-6.9562,4.4842l0,-2.4433l6.9562,-4.4842l0,2.4433z" clip-rule="evenodd" fill-rule="evenodd"/>
  <path stroke="null" id="svg_6" fill="#593085" d="m69.52757,64.34476l-22.01693,12.63895c1.12282,-0.19107 2.2182,-0.43675 3.28614,-0.70969c1.69784,-0.4641 3.34091,-1.01007 4.9292,-1.6925l8.54382,-4.91359c1.36927,-1.03732 2.68366,-2.18385 3.94338,-3.41225c0.84882,-0.8736 1.67041,-1.77436 2.46455,-2.70257c-0.35601,0.27303 -0.7668,0.54597 -1.15016,0.79165zm0.98582,-45.72409l-23.71467,-13.649c-3.58737,-2.07465 -8.07835,-2.07465 -11.66571,0l-23.71468,13.649c-3.61475,2.07465 -5.83287,5.92366 -5.83287,10.07295l0,26.94315c2.40982,4.96819 5.86021,9.36316 10.05004,12.88463l11.74783,6.74255c2.32766,0.84625 4.73743,1.47408 7.25677,1.85632l-22.23595,-12.77551c-2.95751,-1.71976 -4.81964,-4.91359 -4.81964,-8.32584l0,-27.3253c0,-3.41225 1.86213,-6.60609 4.81964,-8.32594l23.74211,-13.64894c1.47874,-0.87353 3.14914,-1.283 4.81955,-1.283c1.67051,0 3.34092,0.40947 4.81965,1.283l23.74211,13.64894c2.05386,1.17389 3.58737,3.08472 4.2993,5.29583c0.32867,0.95546 0.52035,1.99279 0.52035,3.03011l0,27.3253c0,1.14653 -0.21912,2.26572 -0.60247,3.30304c0.57503,-0.90086 1.09538,-1.82897 1.58829,-2.78443c0.35601,-0.68243 0.71202,-1.39212 1.01316,-2.12925l0,-25.71466c0,-4.14929 -2.2181,-7.9983 -5.83281,-10.07295z" clip-rule="evenodd" fill-rule="evenodd"/>
  <path transform="rotate(180 40.9658 44.3111)" stroke="null" id="svg_7" fill="#593085" d="m69.52757,68.38789l-22.01693,12.63895c1.12282,-0.19107 2.2182,-0.43675 3.28614,-0.70969c1.69784,-0.4641 3.34091,-1.01007 4.9292,-1.6925l8.54382,-4.91359c1.36927,-1.03732 2.68366,-2.18385 3.94338,-3.41225c0.84882,-0.8736 1.67041,-1.77436 2.46455,-2.70257c-0.35601,0.27303 -0.7668,0.54597 -1.15016,0.79165zm0.98582,-45.72409l-23.71467,-13.649c-3.58737,-2.07465 -8.07835,-2.07465 -11.66571,0l-23.71468,13.649c-3.61475,2.07465 -5.83287,5.92366 -5.83287,10.07295l0,26.94315c2.40982,4.96819 5.86021,9.36316 10.05004,12.88463l11.74783,6.74255c2.32766,0.84625 4.73743,1.47408 7.25677,1.85632l-22.23595,-12.77551c-2.95751,-1.71976 -4.81964,-4.91359 -4.81964,-8.32584l0,-27.3253c0,-3.41225 1.86213,-6.60609 4.81964,-8.32594l23.74211,-13.64894c1.47874,-0.87353 3.14914,-1.283 4.81955,-1.283c1.67051,0 3.34092,0.40947 4.81965,1.283l23.74211,13.64894c2.05386,1.17389 3.58737,3.08472 4.2993,5.29583c0.32867,0.95546 0.52035,1.99279 0.52035,3.03011l0,27.3253c0,1.14653 -0.21912,2.26572 -0.60247,3.30304c0.57503,-0.90086 1.09538,-1.82897 1.58829,-2.78443c0.35601,-0.68243 0.71202,-1.39212 1.01316,-2.12925l0,-25.71466c0,-4.14929 -2.2181,-7.9983 -5.83281,-10.07295z" clip-rule="evenodd" fill-rule="evenodd"/>
 </g>
</svg>