<svg width="82" height="82" viewBox="0 0 82 82" fill="none" xmlns="http://www.w3.org/2000/svg">
<path fill-rule="evenodd" clip-rule="evenodd" d="M82 41C82 43.4779 81.7983 45.8981 81.3661 48.2607C77.9375 67.4498 61.1687 82 41 82C25.8159 82 12.5622 73.7309 5.47435 61.4568C3.74561 58.4603 2.39143 55.2333 1.44062 51.8335C0.48981 48.376 0 44.7456 0 41C0 18.3535 18.3535 0 41 0C59.6992 0 75.4596 12.5046 80.4153 29.5903C81.4526 33.2207 82 37.0527 82 41Z" fill="#F2F2F2"/>
<path fill-rule="evenodd" clip-rule="evenodd" d="M26.0252 21.8198C25.381 22.5942 24.7628 23.1278 24.1186 23.9607C23.4874 24.7741 23.058 25.594 22.5764 26.492C22.3226 26.9736 22.2055 27.5722 22.0428 27.9952C21.9257 28.288 21.8671 28.4637 21.763 28.7761C21.6719 29.0494 21.5288 29.3227 21.4767 29.4788C21.3726 29.8042 21.3075 30.7998 21.1969 31.2228C21.0212 31.854 21.2294 32.5568 21.0472 33.0643C20.8715 33.1945 18.4183 33.9818 17.6895 34.3853C16.7394 34.9059 15.7959 35.6412 15.015 36.3895C9.43834 41.6929 9.71165 50.8225 15.5812 55.8721C20.0191 59.6919 25.7454 58.937 31.179 58.9435C37.3868 58.9435 43.5947 58.9435 49.8026 58.9435C52.9261 58.9435 56.0495 58.924 59.173 58.9435C62.0232 58.9565 64.3397 58.9175 66.7995 57.2712C71.0682 54.421 72.7861 48.9484 70.6843 44.1917C69.8123 42.22 68.179 40.2418 66.1683 39.3828C64.6065 38.7126 64.8798 37.6324 64.6846 36.1943C64.5415 35.1662 63.9428 33.7476 63.3767 32.8691C60.4875 28.3661 55.2296 27.2599 50.4664 29.4593C50.2256 28.7696 50.0564 28.0212 49.7766 27.3054C49.3016 26.0821 49.23 26.1992 48.8461 25.4248C48.7224 25.1711 48.4621 24.7611 48.2995 24.5334C47.8895 23.9412 46.4384 22.2623 46.4254 22.2363C46.0675 22.0541 44.8116 20.9609 44.4342 20.629C44.1544 20.3883 42.5341 19.4838 42.1436 19.3341C41.2651 18.9957 40.4062 18.5793 39.4757 18.4166C38.6102 18.2734 37.3348 17.9936 36.4758 18.0001C35.9813 18.0001 33.5085 18.1498 33.1506 18.2669C32.2331 18.5662 31.3677 18.6899 30.4111 19.0673C28.5175 19.8156 27.5935 20.7982 26.0252 21.8198ZM18.8478 50.7249V43.6516H21.8541C22.609 43.6516 23.1621 43.7101 23.5004 43.8403C23.8453 43.9639 24.1186 44.1917 24.3269 44.517C24.5286 44.8424 24.6327 45.2133 24.6327 45.6298C24.6327 46.1634 24.483 46.5993 24.1707 46.9442C23.8583 47.2891 23.3963 47.5103 22.7716 47.6014C23.084 47.7771 23.3378 47.9789 23.533 48.1936C23.7347 48.4083 24.008 48.7923 24.3464 49.3389L25.2053 50.7249H23.5004L22.4788 49.1762C22.1079 48.6296 21.8606 48.2847 21.724 48.1415C21.5873 47.9984 21.4442 47.9008 21.288 47.8487C21.1383 47.7967 20.8976 47.7706 20.5657 47.7706H20.2794V50.7249H18.8478ZM20.2794 46.6449H21.3335C22.0233 46.6449 22.4463 46.6124 22.6155 46.5538C22.7846 46.4952 22.9213 46.3976 23.0189 46.2545C23.1165 46.1113 23.1621 45.9356 23.1621 45.7209C23.1621 45.4866 23.097 45.2914 22.9734 45.1482C22.8432 44.9986 22.6675 44.9075 22.4333 44.8684C22.3161 44.8554 21.9712 44.8424 21.3921 44.8424H20.2794V46.6449ZM25.9797 50.7249V43.6516H31.218V44.8424H27.4113V46.4171H30.9512V47.608H27.4113V49.5276H31.3547V50.7249H25.9797ZM32.1941 48.4279L33.5866 48.2912C33.6712 48.7597 33.8404 49.0981 34.0942 49.3194C34.348 49.5341 34.6929 49.6447 35.1288 49.6447C35.5843 49.6447 35.9292 49.5471 36.1635 49.3519C36.3912 49.1567 36.5084 48.9289 36.5084 48.6751C36.5084 48.506 36.4628 48.3628 36.3652 48.2457C36.2676 48.1285 36.0984 48.0244 35.8511 47.9398C35.6885 47.8813 35.3045 47.7771 34.7124 47.6275C33.951 47.4388 33.4174 47.2045 33.1116 46.9247C32.6756 46.5343 32.4609 46.0592 32.4609 45.4996C32.4609 45.1417 32.565 44.7968 32.7667 44.4845C32.9684 44.1721 33.2613 43.9314 33.6452 43.7687C34.0291 43.5995 34.4911 43.5214 35.0312 43.5214C35.9162 43.5214 36.5865 43.7166 37.0289 44.1071C37.4779 44.504 37.7122 45.0246 37.7382 45.6818L36.3066 45.7339C36.2416 45.3695 36.1114 45.1027 35.9162 44.9465C35.7145 44.7838 35.4152 44.7057 35.0182 44.7057C34.6018 44.7057 34.2829 44.7903 34.0486 44.9595C33.899 45.0701 33.8209 45.2198 33.8209 45.402C33.8209 45.5712 33.8925 45.7144 34.0356 45.8315C34.2178 45.9877 34.6538 46.1438 35.3436 46.3065C36.0399 46.4692 36.5474 46.6449 36.8793 46.8206C37.2112 46.9963 37.4714 47.2305 37.6602 47.5364C37.8489 47.8422 37.9465 48.2196 37.9465 48.6621C37.9465 49.0656 37.8293 49.4495 37.6081 49.8009C37.3803 50.1588 37.0615 50.4191 36.6515 50.5948C36.2416 50.764 35.7275 50.8485 35.1093 50.8485C34.2178 50.8485 33.5281 50.6468 33.053 50.2304C32.5715 49.8204 32.2852 49.2217 32.1941 48.4279ZM40.7511 50.7249V44.8424H38.6558V43.6516H44.265V44.8424H42.1827V50.7249H40.7511ZM53.9412 50.7249H52.399L51.7873 49.1111H48.9502L48.3645 50.7249H46.8483L49.5944 43.6516H51.1106L53.9412 50.7249ZM51.3253 47.9138L50.3427 45.2979L49.3862 47.9138H51.3253ZM54.7026 50.7249V43.6516H56.9931C57.8651 43.6516 58.4247 43.6841 58.6915 43.7557C59.0949 43.8598 59.4333 44.0941 59.7066 44.4454C59.9799 44.8033 60.1166 45.2654 60.1166 45.825C60.1166 46.261 60.0385 46.6254 59.8823 46.9182C59.7261 47.2175 59.5244 47.4518 59.2836 47.621C59.0429 47.7836 58.7956 47.9008 58.5418 47.9528C58.2034 48.0179 57.7089 48.057 57.0647 48.057H56.1341V50.7249H54.7026ZM56.1341 44.8424V46.8596H56.915C57.4746 46.8596 57.852 46.8206 58.0408 46.749C58.2295 46.6709 58.3791 46.5603 58.4832 46.3976C58.5939 46.2414 58.6459 46.0592 58.6459 45.8445C58.6459 45.5907 58.5678 45.376 58.4182 45.2068C58.2685 45.0376 58.0798 44.9335 57.8455 44.8944C57.6764 44.8619 57.338 44.8424 56.8239 44.8424H56.1341ZM61.2423 50.7249V43.6516H62.6739V50.7249H61.2423Z" fill="#593085"/>
</svg>
