<svg width="82" height="82" viewBox="0 0 82 82" fill="none" xmlns="http://www.w3.org/2000/svg">
<path fill-rule="evenodd" clip-rule="evenodd" d="M82 41C82 43.4779 81.7983 45.8981 81.3661 48.2607C77.9375 67.4498 61.1687 82 41 82C25.8159 82 12.5622 73.7309 5.47435 61.4568C3.74561 58.4603 2.39143 55.2333 1.44062 51.8335C0.48981 48.376 0 44.7456 0 41C0 18.3535 18.3535 0 41 0C59.6992 0 75.4596 12.5046 80.4153 29.5903C81.4526 33.2207 82 37.0527 82 41Z" fill="#F2F2F2"/>
<path fill-rule="evenodd" clip-rule="evenodd" d="M41.7774 20.2698C47.4163 20.4365 51.7554 24.4947 52.52 29.4609C54.3551 41.3944 37.5529 46.7683 31.6655 36.0762C30.0981 33.2411 30.3657 31.0174 30.3657 27.5893C30.3657 24.4206 30.423 21.1963 30.3657 18.0276C29.7349 18.287 28.1292 20.0659 27.6896 20.6218C25.0708 23.9203 23.7519 27.7931 24.0386 32.2589C24.4592 38.6149 28.0719 42.7101 31.8184 45.1747C41.3377 51.4009 55.0623 46.9536 58.3692 35.5944C59.2103 32.7037 59.2103 29.3682 58.3692 26.4775C56.2092 19.0468 48.4294 13.08 39.8085 14.1177C37.0177 14.4512 37.6867 14.3771 37.6867 17.1937C37.6867 19.9362 37.4956 31.0359 37.897 32.2219C38.7763 34.8903 42.5229 35.7241 44.549 33.2966C45.4092 32.2589 45.5813 30.6097 44.874 29.3126C43.9182 27.5707 43.4021 28.0896 41.7774 27.2557L41.8347 24.4576C45.6195 24.6615 48.7161 27.7561 48.2956 31.7586C47.6839 37.7995 39.4453 39.8008 35.9664 34.9273C34.6283 33.0743 34.6666 31.8513 34.6666 29.2755C34.6857 24.6985 34.5901 20.0474 34.6666 15.4148L33.3859 16.0448C33.3859 21.0295 33.1565 26.533 33.405 31.4436C33.6152 35.5574 37.1706 39.004 41.6244 38.9299C51.6407 38.7817 52.7494 24.0685 41.7965 23.179L41.7774 20.2698Z" fill="#593085"/>
<path d="M41.7853 60.918C41.7853 61.66 41.6593 62.3437 41.4073 62.969C41.1599 63.5897 40.8076 64.124 40.3503 64.572C39.8976 65.02 39.3516 65.37 38.7123 65.622C38.0729 65.874 37.3636 66 36.5843 66H32.6783V55.843H36.5843C37.3636 55.843 38.0729 55.969 38.7123 56.221C39.3516 56.473 39.8976 56.8253 40.3503 57.278C40.8076 57.726 41.1599 58.2603 41.4073 58.881C41.6593 59.5017 41.7853 60.1807 41.7853 60.918ZM39.6293 60.918C39.6293 60.386 39.5593 59.9077 39.4193 59.483C39.2793 59.0583 39.0786 58.699 38.8173 58.405C38.5559 58.111 38.2363 57.8847 37.8583 57.726C37.4849 57.5673 37.0603 57.488 36.5843 57.488H34.7923V64.355H36.5843C37.0603 64.355 37.4849 64.278 37.8583 64.124C38.2363 63.9653 38.5559 63.739 38.8173 63.445C39.0786 63.1463 39.2793 62.7847 39.4193 62.36C39.5593 61.9353 39.6293 61.4547 39.6293 60.918ZM49.9436 55.843V56.669C49.9436 56.9117 49.9156 57.1077 49.8596 57.257C49.8083 57.4063 49.757 57.5323 49.7056 57.635L46.0096 65.356C45.9163 65.5333 45.7903 65.685 45.6316 65.811C45.473 65.937 45.2583 66 44.9876 66H43.5876L47.3746 58.461C47.468 58.2837 47.5636 58.1227 47.6616 57.978C47.7596 57.8333 47.8693 57.6957 47.9906 57.565H43.3076C43.1956 57.565 43.093 57.5207 42.9996 57.432C42.911 57.3433 42.8666 57.243 42.8666 57.131V55.843H49.9436Z" fill="#593085"/>
</svg>
