<svg width="83" height="83" xmlns="http://www.w3.org/2000/svg" fill="none">

 <g>
  <title>Layer 1</title>
  <path id="svg_1" fill="#F2F2F2" d="m82.0541,41.027c0,13.176 -6.2276,24.9392 -15.915,32.4353c-6.9195,5.3915 -15.6554,8.5918 -25.1121,8.5918c-9.399,0 -18.0196,-3.1427 -24.9391,-8.4476c-9.80266,-7.4962 -16.0879,-19.317 -16.0879,-32.5795c0,-22.6614 18.3656,-41.027 41.027,-41.027c22.6615,0 41.0271,18.3656 41.0271,41.027z" clip-rule="evenodd" fill-rule="evenodd"/>
  <path id="svg_2" fill="#593085" d="m64.43328,29.25443l-3.5134,40.5899c-5.1732,4.0288 -11.7043,6.4203 -18.7742,6.4203c-7.0269,0 -13.4718,-2.3484 -18.6449,-6.3126l-3.5134,-40.6976l44.4459,0z" clip-rule="evenodd" fill-rule="evenodd"/>
  <path id="svg_3" fill="#F7F8F8" d="m43.81515,56.18446l6.365,-0.3713l0.3292,5.8824c-0.0658,0.0195 -0.1536,0 -0.1755,0.0586c-0.1098,0.2149 -2.9411,0.4104 -3.1606,0.4299c-1.1194,0.1173 -2.2607,0.2541 -3.3801,0.3127l0,6.2732l10.2938,-2.2865c0.3951,-0.9185 0.6585,-16.1422 0.6804,-18.4482l-7.1332,1.622l0,-5.7259c1.273,-0.2736 2.4582,-0.6254 3.6654,-0.9381c0.6365,-0.1759 1.1852,-0.2931 1.8217,-0.469c2.2168,-0.5863 1.6461,0.6254 1.6461,-6.2341l-10.4694,1.8761c-0.856,0.2932 -0.5048,1.4071 -0.5048,3.2832c0,4.8661 -0.1536,9.908 0.022,14.735z" clip-rule="evenodd" fill-rule="evenodd"/>
  <path id="svg_4" fill="#F7F8F8" d="m34.58435,63.38596l-3.6664,-0.5481l-0.3022,-3.2304l-3.9887,-0.1566l1.1483,7.4983l10.7978,1.8208l0.0201,-31.6379l-4.0492,-0.8419l0.0403,27.0958z" clip-rule="evenodd" fill-rule="evenodd"/>
  <path id="svg_5" fill="#593085" d="m23.81515,20.39163l-1.2491,0l0,-3.3531c1.4695,0 3.086,-0.1972 3.8207,0.8328c0.3674,0.5479 0.2939,1.7532 -0.5878,2.1915c-0.4898,0.263 -1.2246,0.3288 -1.9838,0.3288zm1.0041,1.8189l-4.7024,0c0,-3.7475 0.049,-7.6703 0,-11.4177l0,-0.4822c0.0245,-0.0657 0.1225,-0.0876 0.3674,-0.0876c1.7389,0.0219 4.58,-0.1754 5.9025,0.4602c0.8082,0.3944 1.4205,0.9423 1.69,1.7532c0.1469,0.4383 0.1714,0.9642 0.0489,1.4683c-0.0979,0.4602 -0.2694,0.7889 -0.5388,1.1396c-0.3919,0.4821 -0.7592,0.5479 -1.0042,0.7451c0.245,0 0.6613,0.1972 0.8818,0.2849c0.7837,0.3725 1.249,0.9862 1.5185,1.7532c0.3673,1.0519 -0.049,2.323 -0.9062,3.1558c-0.1715,0.1753 -0.4409,0.3725 -0.6368,0.504c-0.245,0.1315 -0.4899,0.263 -0.7593,0.3506c-0.4898,0.1754 -1.2001,0.3507 -1.8614,0.3726zm-1.0531,-6.9909l-1.2001,0l0,-3.1339l1.3715,0c2.4002,0 2.5227,3.1339 -0.1714,3.1339z" clip-rule="evenodd" fill-rule="evenodd"/>
  <path id="svg_6" fill="#593085" d="m55.81035,18.19213l-3.6935,4.0184l2.6633,0l1.7839,-1.9889c0.1005,-0.1218 0.5025,-0.5683 0.6282,-0.6494c0.0251,0.1217 0.1759,0.2638 0.2764,0.345l0.8794,0.9944c0.3768,0.4465 0.7789,0.8524 1.1557,1.2989l2.6131,0c-0.0503,-0.1421 -0.7538,-0.8727 -0.8794,-1.0147l-0.9045,-0.9945c-0.2513,-0.2435 -1.6332,-1.7454 -1.8091,-2.0092l2.6634,-2.9428c0.1507,-0.142 0.8542,-0.8321 0.8793,-1.0147l-2.5628,0c-0.3266,0.3856 -2.211,2.4963 -2.3618,2.5774l-1.6583,-1.8874c-0.8291,-0.9133 -0.1256,-0.69 -3.216,-0.69c0.0502,0.1623 0.0753,0.1217 0.1758,0.2435l1.5829,1.7454c0.3016,0.345 0.5779,0.6697 0.8794,0.9741l0.6533,0.751c0.1005,0.1014 0.1508,0.1623 0.2513,0.2435z" clip-rule="evenodd" fill-rule="evenodd"/>
  <path id="svg_7" fill="#593085" d="m34.76115,10.91233l0,2.1052l-1.5034,0c-0.1174,0 -0.1409,0.0234 -0.1409,0.1404l0,1.5906c0,0.117 0.0235,0.1404 0.1409,0.1404l1.5034,0l0,4.8889c0,0.6315 0.1644,1.2397 0.4228,1.614c0.2114,0.3041 0.7517,0.8187 1.2215,0.8187l2.3725,0c0.4228,0 1.151,-0.4444 1.3389,-0.4912l-0.7047,-1.6375c-0.5168,0.2574 -1.8557,0.8655 -2.1846,-0.0467c-0.1879,-0.5147 -0.1174,-4.3743 -0.1174,-5.1462l2.1141,0c0.1644,0 0.1879,-0.2573 0.2349,-0.3977l0.4228,-1.3333c0,-0.0702 0.047,-0.1404 -0.1174,-0.1404l-2.6544,0l0,-2.807c-0.1644,0.0936 -0.3524,0.117 -0.5638,0.1871l-1.7852,0.5147z" clip-rule="evenodd" fill-rule="evenodd"/>
  <path id="svg_8" fill="#593085" d="m44.33225,14.36233c-0.0692,-0.3131 -0.1616,-0.6261 -0.2539,-0.9392l-1.5692,-0.0223c-0.2077,0 -0.3923,-0.0447 -0.3923,0.1565l0,8.6532l2.3077,0l0,-6.0818c0,-0.1789 0.6,-0.5143 0.7385,-0.6261c1.0384,-0.6708 1.7538,-0.1342 2.1692,-0.0447c0.0923,-0.4249 0.7154,-1.6546 0.7846,-1.9006c-0.1615,-0.0447 -0.0923,-0.0447 -0.2769,-0.1342c-0.0923,-0.0223 -0.2077,-0.067 -0.2769,-0.0894c-1.8462,-0.559 -2.9308,0.9615 -3.2308,1.0286z" clip-rule="evenodd" fill-rule="evenodd"/>
  <path id="svg_9" fill="#593085" d="m49.11685,14.33263l0,7.8779l2.7941,0c0.1471,0 0.2059,-0.0204 0.2059,-0.1221l0,-7.7558c0,-0.1017 -0.0588,-0.1221 -0.2059,-0.1221l-2.6176,0c-0.1471,0 -0.1765,0.0204 -0.1765,0.1221z" clip-rule="evenodd" fill-rule="evenodd"/>
  <path id="svg_10" fill="#593085" d="m30.11685,22.21053l2,0l0,-7.8779c0,-0.1017 -0.02,-0.1221 -0.12,-0.1221l-1.88,0l0,8z" clip-rule="evenodd" fill-rule="evenodd"/>
  <path id="svg_11" fill="#593085" d="m49.11685,10.68423c0,0.9241 0.6585,1.4986 1.4634,1.5236c0.7561,0.05 1.5366,-0.5995 1.5366,-1.5736c0,-0.7243 -0.6585,-1.4237 -1.4878,-1.4237c-0.8293,0 -1.5122,0.6494 -1.5122,1.4737z" clip-rule="evenodd" fill-rule="evenodd"/>
  <path id="svg_12" fill="#593085" d="m30.11685,10.63143c0,0.7243 0.1966,1.2737 0.6554,1.4985c0.8193,0.3995 1.6058,-0.7492 1.2617,-2.0479c-0.3605,-1.3735 -1.9171,-1.0738 -1.9171,0.5494z" clip-rule="evenodd" fill-rule="evenodd"/>
 </g>
</svg>