<svg width="83" height="83" viewBox="0 0 83 83" fill="none" xmlns="http://www.w3.org/2000/svg">
<path fill-rule="evenodd" clip-rule="evenodd" d="M82.0541 41.027C82.0541 54.203 75.8265 65.9662 66.1391 73.4623C59.2196 78.8538 50.4837 82.0541 41.027 82.0541C31.628 82.0541 23.0074 78.9114 16.0879 73.6065C6.28524 66.1103 0 54.2895 0 41.027C0 18.3656 18.3656 0 41.027 0C63.6885 0 82.0541 18.3656 82.0541 41.027Z" fill="#F2F2F2"/>
<path fill-rule="evenodd" clip-rule="evenodd" d="M64.9596 35.0439L61.4462 75.6338C56.273 79.6626 49.7419 82.0541 42.672 82.0541C35.6451 82.0541 29.2002 79.7057 24.0271 75.7415L20.5137 35.0439H64.9596Z" fill="#593085"/>
<path fill-rule="evenodd" clip-rule="evenodd" d="M45.3941 60.9213L51.7591 60.55L52.0883 66.4324C52.0225 66.4519 51.9347 66.4324 51.9128 66.491C51.803 66.7059 48.9717 66.9014 48.7522 66.9209C47.6328 67.0382 46.4915 67.175 45.3721 67.2336V73.5068L55.6659 71.2203C56.061 70.3018 56.3244 55.0781 56.3463 52.7721L49.2131 54.3941V48.6682C50.4861 48.3946 51.6713 48.0428 52.8785 47.7301C53.515 47.5542 54.0637 47.437 54.7002 47.2611C56.917 46.6748 56.3463 47.8865 56.3463 41.027L45.8769 42.9031C45.0209 43.1963 45.3721 44.3102 45.3721 46.1863C45.3721 51.0524 45.2185 56.0943 45.3941 60.9213Z" fill="#F7F8F8"/>
<path fill-rule="evenodd" clip-rule="evenodd" d="M36.1633 68.1228L32.4969 67.5747L32.1947 64.3443L28.206 64.1877L29.3543 71.686L40.1521 73.5068L40.1722 41.8689L36.123 41.027L36.1633 68.1228Z" fill="#F7F8F8"/>
<path fill-rule="evenodd" clip-rule="evenodd" d="M25.3941 26.1811H24.145V22.828C25.6145 22.828 27.231 22.6308 27.9657 23.6608C28.3331 24.2087 28.2596 25.414 27.3779 25.8523C26.8881 26.1153 26.1533 26.1811 25.3941 26.1811ZM26.3982 28H21.6958C21.6958 24.2525 21.7448 20.3297 21.6958 16.5823V16.1001C21.7203 16.0344 21.8183 16.0125 22.0632 16.0125C23.8021 16.0344 26.6432 15.8371 27.9657 16.4727C28.7739 16.8671 29.3862 17.415 29.6557 18.2259C29.8026 18.6642 29.8271 19.1901 29.7046 19.6942C29.6067 20.1544 29.4352 20.4831 29.1658 20.8338C28.7739 21.3159 28.4066 21.3817 28.1616 21.5789C28.4066 21.5789 28.8229 21.7761 29.0434 21.8638C29.8271 22.2363 30.2924 22.85 30.5619 23.617C30.9292 24.6689 30.5129 25.94 29.6557 26.7728C29.4842 26.9481 29.2148 27.1453 29.0189 27.2768C28.7739 27.4083 28.529 27.5398 28.2596 27.6274C27.7698 27.8028 27.0595 27.9781 26.3982 28ZM25.3451 21.0091H24.145V17.8752H25.5165C27.9167 17.8752 28.0392 21.0091 25.3451 21.0091Z" fill="#593085"/>
<path fill-rule="evenodd" clip-rule="evenodd" d="M57.3893 23.9816L53.6958 28H56.3591L58.143 26.0111C58.2435 25.8893 58.6455 25.4428 58.7712 25.3617C58.7963 25.4834 58.9471 25.6255 59.0476 25.7067L59.927 26.7011C60.3038 27.1476 60.7059 27.5535 61.0827 28H63.6958C63.6455 27.8579 62.942 27.1273 62.8164 26.9853L61.9119 25.9908C61.6606 25.7473 60.2787 24.2454 60.1028 23.9816L62.7662 21.0388C62.9169 20.8968 63.6204 20.2067 63.6455 20.0241H61.0827C60.7561 20.4097 58.8717 22.5204 58.7209 22.6015L57.0626 20.7141C56.2335 19.8008 56.937 20.0241 53.8466 20.0241C53.8968 20.1864 53.9219 20.1458 54.0224 20.2676L55.6053 22.013C55.9069 22.358 56.1832 22.6827 56.4847 22.9871L57.138 23.7381C57.2385 23.8395 57.2888 23.9004 57.3893 23.9816Z" fill="#593085"/>
<path fill-rule="evenodd" clip-rule="evenodd" d="M36.3401 16.7018V18.807H34.8367C34.7193 18.807 34.6958 18.8304 34.6958 18.9474V20.538C34.6958 20.655 34.7193 20.6784 34.8367 20.6784H36.3401V25.5673C36.3401 26.1988 36.5045 26.807 36.7629 27.1813C36.9743 27.4854 37.5146 28 37.9844 28H40.3569C40.7797 28 41.5079 27.5556 41.6958 27.5088L40.9911 25.8713C40.4743 26.1287 39.1354 26.7368 38.8065 25.8246C38.6186 25.3099 38.6891 21.4503 38.6891 20.6784H40.8032C40.9676 20.6784 40.9911 20.4211 41.0381 20.2807L41.4609 18.9474C41.4609 18.8772 41.5079 18.807 41.3435 18.807H38.6891V16C38.5247 16.0936 38.3367 16.117 38.1253 16.1871L36.3401 16.7018Z" fill="#593085"/>
<path fill-rule="evenodd" clip-rule="evenodd" d="M45.9112 20.1518C45.842 19.8387 45.7496 19.5257 45.6573 19.2126L44.0881 19.1903C43.8804 19.1903 43.6958 19.1456 43.6958 19.3468V28H46.0035V21.9182C46.0035 21.7393 46.6035 21.4039 46.742 21.2921C47.7804 20.6213 48.4958 21.1579 48.9112 21.2474C49.0035 20.8225 49.6266 19.5928 49.6958 19.3468C49.5343 19.3021 49.6035 19.3021 49.4189 19.2126C49.3266 19.1903 49.2112 19.1456 49.142 19.1232C47.2958 18.5642 46.2112 20.0847 45.9112 20.1518Z" fill="#593085"/>
<path fill-rule="evenodd" clip-rule="evenodd" d="M50.6958 20.1221V28H53.4899C53.637 28 53.6958 27.9796 53.6958 27.8779V20.1221C53.6958 20.0204 53.637 20 53.4899 20H50.8723C50.7252 20 50.6958 20.0204 50.6958 20.1221Z" fill="#593085"/>
<path fill-rule="evenodd" clip-rule="evenodd" d="M31.6958 28H33.6958V20.1221C33.6958 20.0204 33.6758 20 33.5758 20H31.6958V28Z" fill="#593085"/>
<path fill-rule="evenodd" clip-rule="evenodd" d="M50.6958 16.4737C50.6958 17.3978 51.3543 17.9723 52.1592 17.9973C52.9153 18.0473 53.6958 17.3978 53.6958 16.4237C53.6958 15.6994 53.0373 15 52.208 15C51.3787 15 50.6958 15.6494 50.6958 16.4737Z" fill="#593085"/>
<path fill-rule="evenodd" clip-rule="evenodd" d="M31.6958 16.4209C31.6958 17.1452 31.8924 17.6946 32.3512 17.9194C33.1705 18.3189 33.957 17.1702 33.6129 15.8715C33.2524 14.498 31.6958 14.7977 31.6958 16.4209Z" fill="#593085"/>
</svg>
