<svg width="82" height="82" viewBox="0 0 82 82" fill="none" xmlns="http://www.w3.org/2000/svg">
<path fill-rule="evenodd" clip-rule="evenodd" d="M81.8363 40.9038C81.8363 43.3758 81.6063 45.8191 81.1751 48.1762C77.7545 67.2914 61.0251 81.8363 40.9038 81.8363C25.7553 81.8363 12.5327 73.5865 5.4615 61.3413C3.73682 58.3518 2.38581 55.1324 1.43724 51.7118C0.488661 48.2912 0 44.6406 0 40.9038C0 18.3104 18.3104 0 40.9038 0C59.5591 0 75.2825 12.4752 80.2266 29.5496C81.2614 33.1427 81.8363 36.9657 81.8363 40.9038Z" fill="#F2F2F2"/>
<path fill-rule="evenodd" clip-rule="evenodd" d="M61.0828 39.8402L33.919 12.6764C33.1716 11.9291 32.1656 11.4979 31.102 11.4979C30.0384 11.4979 29.0036 11.9291 28.2563 12.6764L22.6223 18.3104L29.7797 25.4678C30.2684 25.2954 30.7858 25.2091 31.3032 25.2091C32.568 25.2091 33.7753 25.7265 34.6663 26.6176C35.5574 27.5087 36.0748 28.716 36.0748 29.9808C36.0748 30.4982 35.9886 31.0443 35.8161 31.533L42.7149 38.4317C44.3821 37.8568 46.308 38.2305 47.6302 39.5528C48.5213 40.4439 49.01 41.6799 49.01 42.9446C49.01 44.2094 48.5213 45.4167 47.6302 46.3078C46.7391 47.1989 45.5319 47.6875 44.2671 47.6875C41.6226 47.6875 39.4955 45.5604 39.4955 42.9446C39.4955 42.3123 39.6104 41.6799 39.8404 41.105L33.4016 34.6949V51.5968C33.8902 51.8268 34.3214 52.143 34.6663 52.5166C35.5574 53.4077 36.0748 54.615 36.0748 55.8798C36.0748 57.1445 35.5574 58.3518 34.6663 59.2429C32.7979 61.1113 29.7797 61.1113 27.9401 59.2429C27.049 58.3518 26.5316 57.1445 26.5316 55.8798C26.5316 53.9539 27.7101 52.2005 29.4923 51.4818V34.3787C28.9174 34.1488 28.3712 33.8038 27.9401 33.3439C26.5316 31.9354 26.1866 29.8658 26.9053 28.1411L19.8628 21.0699L1.23621 39.6965C0.488849 40.4439 0.0576782 41.4787 0.0576782 42.5422C0.0576782 43.6058 0.488849 44.6118 1.23621 45.3879L28.4 72.5517C29.1474 73.2991 30.1534 73.7015 31.217 73.7015C32.2805 73.7015 33.3153 73.2991 34.0627 72.5517L61.0828 45.5029C61.8589 44.7556 62.2613 43.7208 62.2613 42.6572C62.2613 41.5936 61.8589 40.5876 61.0828 39.8402Z" fill="#593085"/>
<path fill-rule="evenodd" clip-rule="evenodd" d="M50.505 61.6862C49.4989 61.6862 48.7803 62.1749 48.7803 63.3534C48.7803 64.2445 49.269 64.8481 50.4475 64.8481C51.4536 64.8481 52.1435 64.2445 52.1435 63.2959C52.1435 62.2324 51.5398 61.6862 50.505 61.6862ZM48.5216 69.9934C48.2917 70.2809 48.033 70.5683 48.033 70.942C48.033 71.6606 48.9815 71.8906 50.2463 71.8906C51.2811 71.8906 52.7184 71.8044 52.7184 70.827C52.7184 70.2521 52.0285 70.2234 51.1661 70.1659L48.5216 69.9934ZM53.8681 61.7437C54.1843 62.1461 54.5293 62.721 54.5293 63.5546C54.5293 65.5667 52.9771 66.7453 50.6775 66.7453C50.1026 66.7453 49.5852 66.6878 49.269 66.5728L48.6653 67.5501L50.4475 67.6651C53.552 67.8376 55.4204 67.9526 55.4204 70.3384C55.4204 72.4367 53.5807 73.6153 50.4475 73.6153C47.1706 73.6153 45.9059 72.7817 45.9059 71.3444C45.9059 70.5396 46.2795 70.0797 46.9119 69.5048C46.3083 69.2461 46.1071 68.7862 46.1071 68.2975C46.1071 67.8951 46.3083 67.5501 46.6245 67.2052C46.9694 66.8603 47.3143 66.5153 47.7455 66.1129C46.8832 65.6817 46.1933 64.7331 46.1933 63.4109C46.1933 61.3125 47.573 59.904 50.3325 59.904C51.1087 59.904 51.5973 59.9615 51.9997 60.0765H55.5353V61.6L53.8681 61.7437ZM58.726 58.4381C57.6912 58.4381 57.0876 57.8632 57.0876 56.8283C57.0876 55.7935 57.6912 55.2186 58.726 55.2186C59.7608 55.2186 60.3645 55.7935 60.3645 56.8283C60.3645 57.8632 59.7608 58.4381 58.726 58.4381ZM56.3977 69.3323V67.8951L57.3175 67.7513C57.5475 67.7226 57.605 67.6651 57.605 67.4064V62.0886C57.605 61.8874 57.5475 61.7724 57.3463 61.715L56.3977 61.37L56.5702 59.904H60.3357V67.4064C60.3357 67.6939 60.3357 67.7226 60.6232 67.7513L61.543 67.8951V69.3323H56.3977ZM68.7004 68.6137C67.9243 68.9874 66.7745 69.3323 65.7397 69.3323C63.5839 69.3323 62.779 68.47 62.779 66.4291V61.6862C62.779 61.5712 62.779 61.5137 62.6353 61.5137H61.3705V59.904C62.9515 59.7316 63.5839 58.9267 63.7851 56.9433H65.5098V59.5304C65.5098 59.6453 65.5098 59.7028 65.6535 59.7028H68.2118V61.5137H65.5098V65.8254C65.5098 66.889 65.7685 67.3202 66.7458 67.3202C67.2345 67.3202 67.7806 67.1765 68.2118 67.0327L68.7004 68.6137Z" fill="#593085"/>
</svg>
