<svg width="82" height="82" xmlns="http://www.w3.org/2000/svg" fill="none">
 <g>
  <title>Layer 1</title>
  <path fill-rule="evenodd" clip-rule="evenodd" d="m81.8363,41.45936c0,2.472 -0.23,4.9153 -0.6612,7.2724c-3.4206,19.1152 -20.15,33.6601 -40.2713,33.6601c-15.1485,0 -28.3711,-8.2498 -35.4423,-20.495c-1.72468,-2.9895 -3.07569,-6.2089 -4.02426,-9.6295c-0.94858,-3.4206 -1.43724,-7.0712 -1.43724,-10.808c0,-22.5934 18.3104,-40.9038 40.9038,-40.9038c18.6553,0 34.3787,12.4752 39.3228,29.5496c1.0348,3.5931 1.6097,7.4161 1.6097,11.3542z" fill="#F2F2F2" id="svg_1"/>
  <path fill-rule="evenodd" clip-rule="evenodd" d="m63.86058,37.61798l-27.1638,-27.1638c-0.7474,-0.7473 -1.7534,-1.1785 -2.817,-1.1785c-1.0636,0 -2.0984,0.4312 -2.8457,1.1785l-5.634,5.634l7.1574,7.1574c0.4887,-0.1724 1.0061,-0.2587 1.5235,-0.2587c1.2648,0 2.4721,0.5174 3.3631,1.4085c0.8911,0.8911 1.4085,2.0984 1.4085,3.3632c0,0.5174 -0.0862,1.0635 -0.2587,1.5522l6.8988,6.8987c1.6672,-0.5749 3.5931,-0.2012 4.9153,1.1211c0.8911,0.8911 1.3798,2.1271 1.3798,3.3918c0,1.2648 -0.4887,2.4721 -1.3798,3.3632c-0.8911,0.8911 -2.0983,1.3797 -3.3631,1.3797c-2.6445,0 -4.7716,-2.1271 -4.7716,-4.7429c0,-0.6323 0.1149,-1.2647 0.3449,-1.8396l-6.4388,-6.4101l0,16.9019c0.4886,0.23 0.9198,0.5462 1.2647,0.9198c0.8911,0.8911 1.4085,2.0984 1.4085,3.3632c0,1.2647 -0.5174,2.472 -1.4085,3.3631c-1.8684,1.8684 -4.8866,1.8684 -6.7262,0c-0.8911,-0.8911 -1.4085,-2.0984 -1.4085,-3.3631c0,-1.9259 1.1785,-3.6793 2.9607,-4.398l0,-17.1031c-0.5749,-0.2299 -1.1211,-0.5749 -1.5522,-1.0348c-1.4085,-1.4085 -1.7535,-3.4781 -1.0348,-5.2028l-7.0425,-7.0712l-18.62659,18.6266c-0.74736,0.7474 -1.17853,1.7822 -1.17853,2.8457c0,1.0636 0.43117,2.0696 1.17853,2.8457l27.16379,27.1638c0.7474,0.7474 1.7534,1.1498 2.817,1.1498c1.0635,0 2.0983,-0.4024 2.8457,-1.1498l27.0201,-27.0488c0.7761,-0.7473 1.1785,-1.7821 1.1785,-2.8457c0,-1.0636 -0.4024,-2.0696 -1.1785,-2.817z" fill="#593085" id="svg_2"/>
  <path fill-rule="evenodd" clip-rule="evenodd" d="m52.17167,61.13064c-1.0061,0 -1.7247,0.4887 -1.7247,1.6672c0,0.8911 0.4887,1.4947 1.6672,1.4947c1.0061,0 1.696,-0.6036 1.696,-1.5522c0,-1.0635 -0.6037,-1.6097 -1.6385,-1.6097zm-1.9834,8.3072c-0.2299,0.2875 -0.4886,0.5749 -0.4886,0.9486c0,0.7186 0.9485,0.9486 2.2133,0.9486c1.0348,0 2.4721,-0.0862 2.4721,-1.0636c0,-0.5749 -0.6899,-0.6036 -1.5523,-0.6611l-2.6445,-0.1725zm5.3465,-8.2497c0.3162,0.4024 0.6612,0.9773 0.6612,1.8109c0,2.0121 -1.5522,3.1907 -3.8518,3.1907c-0.5749,0 -1.0923,-0.0575 -1.4085,-0.1725l-0.6037,0.9773l1.7822,0.115c3.1045,0.1725 4.9729,0.2875 4.9729,2.6733c0,2.0983 -1.8397,3.2769 -4.9729,3.2769c-3.2769,0 -4.5416,-0.8336 -4.5416,-2.2709c0,-0.8048 0.3736,-1.2647 1.006,-1.8396c-0.6036,-0.2587 -0.8048,-0.7186 -0.8048,-1.2073c0,-0.4024 0.2012,-0.7474 0.5174,-1.0923c0.3449,-0.3449 0.6898,-0.6899 1.121,-1.0923c-0.8623,-0.4312 -1.5522,-1.3798 -1.5522,-2.702c0,-2.0984 1.3797,-3.5069 4.1392,-3.5069c0.7762,0 1.2648,0.0575 1.6672,0.1725l3.5356,0l0,1.5235l-1.6672,0.1437zm4.8579,-3.3056c-1.0348,0 -1.6384,-0.5749 -1.6384,-1.6098c0,-1.0348 0.6036,-1.6097 1.6384,-1.6097c1.0348,0 1.6385,0.5749 1.6385,1.6097c0,1.0349 -0.6037,1.6098 -1.6385,1.6098zm-2.3283,10.8942l0,-1.4372l0.9198,-0.1438c0.23,-0.0287 0.2875,-0.0862 0.2875,-0.3449l0,-5.3178c0,-0.2012 -0.0575,-0.3162 -0.2587,-0.3736l-0.9486,-0.345l0.1725,-1.466l3.7655,0l0,7.5024c0,0.2875 0,0.3162 0.2875,0.3449l0.9198,0.1438l0,1.4372l-5.1453,0zm12.3027,-0.7186c-0.7761,0.3737 -1.9259,0.7186 -2.9607,0.7186c-2.1558,0 -2.9607,-0.8623 -2.9607,-2.9032l0,-4.7429c0,-0.115 0,-0.1725 -0.1437,-0.1725l-1.2648,0l0,-1.6097c1.581,-0.1724 2.2134,-0.9773 2.4146,-2.9607l1.7247,0l0,2.5871c0,0.1149 0,0.1724 0.1437,0.1724l2.5583,0l0,1.8109l-2.702,0l0,4.3117c0,1.0636 0.2587,1.4948 1.236,1.4948c0.4887,0 1.0348,-0.1437 1.466,-0.2875l0.4886,1.581z" fill="#593085" id="svg_3"/>
 </g>

</svg>