<svg width="82" height="82" xmlns="http://www.w3.org/2000/svg" fill="none">

 <g>
  <title>Layer 1</title>
  <path id="svg_1" fill="#F2F2F2" d="m81.8075,40.9325c0,5.8927 -1.236,11.4979 -3.5068,16.557c-0.345,0.8336 -0.7474,1.6672 -1.1786,2.4433c-6.8412,13.0213 -20.495,21.9035 -36.2183,21.9035c-16.557,0 -30.8431,-9.8595 -37.28196,-24.0306c-1.12105,-2.4721 -1.98339,-5.0591 -2.61577,-7.7611c-0.66113,-2.932 -1.00607,-5.9789 -1.00607,-9.1121c0,-22.6221 18.3104,-40.9325 40.9038,-40.9325c18.3679,0 33.9188,12.1303 39.0928,28.8022c0.1725,0.5462 0.3162,1.0923 0.4599,1.6097c0.2587,1.0348 0.4887,2.0409 0.6899,3.0757c0.0862,0.4887 0.1725,0.9773 0.23,1.466c0.0575,0.3449 0.0862,0.6611 0.1437,0.9773c0.0575,0.6037 0.115,1.2073 0.1725,1.8109c0.0862,1.0348 0.1149,2.0984 0.1149,3.1907z" clip-rule="evenodd" fill-rule="evenodd"/>
  <path id="svg_2" fill="#593085" d="m58.784,12.4177c0,0 1.2073,1.2073 1.4085,2.1271c0,0 0.8336,-0.6323 0.2587,-1.6671c-0.5749,-1.0061 -1.6672,-0.46 -1.6672,-0.46z" clip-rule="evenodd" fill-rule="evenodd"/>
  <path id="svg_3" fill="#593085" d="m79.9668,32.12619c-1.0636,-0.5174 -2.0409,-0.8336 -2.7882,-1.0348c-1.0349,-0.2587 -1.8685,-1.006 -2.2134,-1.9834c-0.4599,-1.2935 -1.3222,-3.3631 -2.9032,-6.4675c-3.1332,-6.1801 -6.5826,-8.0773 -8.8534,-9.6583c-1.4947,-1.0635 -3.4494,-1.2647 -4.5991,-1.29347c-0.6037,0 -1.1786,-0.22995 -1.6098,-0.60364c-1.2072,-1.00606 -3.5356,-2.1846 -4.2829,-1.72468c-0.9199,0.51741 0,1.78217 1.2935,3.36309c1.2648,1.6097 1.5522,3.3632 2.472,5.749c0.4025,1.0923 0.9199,1.7534 1.351,2.1271c0.4312,0.4312 0.5749,1.0636 0.345,1.6385c-0.8624,2.0121 -1.1498,4.5991 -0.6611,6.9562c0.5748,2.817 1.8971,2.7882 1.8971,2.7882c-0.115,-3.7655 1.8397,-5.3752 1.8397,-5.3752c1.7821,5.4615 5.8926,9.572 5.8926,9.572c-3.3056,-1.1786 -5.8064,-6.6113 -5.8064,-6.6113c0,0 -0.2587,0.2874 -0.4887,2.0696c-0.2299,1.8109 -2.4145,2.8745 -3.9955,-1.0348c-1.6097,-3.9381 0.4599,-8.8822 0.4599,-8.8822c-0.9198,-0.4886 -2.8169,-4.8578 -2.8169,-5.5189c0,-0.6899 -0.7474,-2.1846 -1.6385,-3.1045c-0.9198,-0.8911 -2.7307,-3.53558 -0.6324,-4.7716c2.0984,-1.20728 6.2664,2.06962 6.2664,2.06962c6.5825,-0.22996 13.3663,7.76108 14.4586,10.60678c1.0635,2.8458 4.1105,8.5372 4.1105,8.5372c0.8623,0.2587 1.6959,0.6037 2.4433,0.9773c0.1724,0.5462 0.3162,1.0923 0.4599,1.6097z" clip-rule="evenodd" fill-rule="evenodd"/>
  <path id="svg_4" fill="#593085" d="m79.91022,34.7716c-0.0287,-0.0288 -0.0575,-0.0288 -0.0862,-0.0575c-2.0984,-1.0061 -2.9607,-3.162 -2.9607,-3.162c0.5461,-0.5461 1.5234,-0.8336 2.5008,-1.0348c0.0862,0.4887 0.1724,0.9774 0.2299,1.466c-0.3737,0.0862 -0.6036,0.115 -0.6036,0.115c0,0.2012 0.2874,0.5174 0.7474,0.8623c0.0574,0.6037 0.1149,1.2073 0.1724,1.811z" clip-rule="evenodd" fill-rule="evenodd"/>
  <path stroke="null" id="svg_5" fill="#593085" d="m22.46074,58.42012l-2.82497,0c0,0 0,-6.45005 -0.94172,-14.14431l-4.45385,14.14431l-2.29058,0l-4.53022,-14.06816c0,0 -1.71262,13.63033 -0.61081,12.23983c1.10181,-1.3905 -2.93404,4.06054 -3.07169,0.3225c-0.13765,-3.73803 1.26469,-13.45114 1.64645,-16.11749l3.69036,0l4.22479,13.0524l4.45394,-13.0524l3.35949,0c0,0 1.34882,11.50341 1.34882,17.62332z" clip-rule="evenodd" fill-rule="evenodd"/>
  <path stroke="null" id="svg_6" fill="#593085" d="m23.05888,45.29605l3.0597,-0.05185c0,0 3.43226,10.05647 3.08636,11.27464c0,0 2.20832,-5.98726 2.79368,-11.27464l3.00657,0c0,0 -1.5964,10.62669 -6.49206,16.22506c-1.83577,2.09939 -3.88451,2.12536 -5.74694,1.34775l0,-1.60689c0,0 2.55423,0.85525 3.85795,-0.98491c1.06427,-1.45144 0.05322,-4.01745 -0.87804,-6.71294c-0.21289,-0.64795 -2.68724,-8.21622 -2.68724,-8.21622z" clip-rule="evenodd" fill-rule="evenodd"/>
  <path stroke="null" id="svg_7" fill="#593085" d="m37.01739,57.90087l0.7277,-1.58666c0,0 5.02139,2.43284 6.30699,0c1.28569,-2.43284 0.04852,-3.7286 -2.47424,-5.18306c-2.54707,-1.45437 -5.19119,-3.27902 -4.02685,-7.24562c1.14011,-3.9666 7.2774,-3.7022 9.04816,-1.77175l-0.60643,1.53376c0,0 -4.56045,-2.11554 -5.79761,0.66108c-1.23716,2.75013 2.06191,4.07239 2.83822,4.44259c0.77622,0.37019 5.04561,2.27424 4.58467,5.68545c-0.46086,3.41131 -2.4015,5.52685 -6.81646,5.10376c-1.57675,-0.42318 -2.49854,-0.68758 -3.78415,-1.63956z" clip-rule="evenodd" fill-rule="evenodd"/>
  <path stroke="null" id="svg_8" fill="#593085" d="m59.01488,57.8167c1.75029,-1.60383 2.49082,-4.45509 2.49082,-7.68826c0,-5.01518 -1.25661,-9.06296 -6.26065,-9.06296c-4.33081,0 -6.28306,4.04778 -6.28306,9.06296c0,4.98976 1.43608,9.03755 6.28306,9.03755c0.69564,0 1.3239,-0.07634 1.90736,-0.28004l3.72495,2.49488l0.92007,-2.03665l-2.78255,-1.52748zm-3.76984,-0.81462c-2.80495,0 -3.65766,-3.08039 -3.65766,-6.87363c0,-3.81867 0.80782,-6.89905 3.65766,-6.89905c2.89473,0 3.63525,3.08039 3.63525,6.89905c0,3.79325 -0.74052,6.87363 -3.63525,6.87363z" clip-rule="evenodd" fill-rule="evenodd"/>
  <path stroke="null" id="svg_9" fill="#593085" d="m71.74382,57.81737c7.82631,0.13321 5.08918,-0.66743 1.15613,2.20984l-8.62973,0.23346l0,-19.9201l3.1619,0l0,17.4768l4.3117,0z" clip-rule="evenodd" fill-rule="evenodd"/>
 </g>
</svg>