<svg width="82" height="82" viewBox="0 0 82 82" fill="none" xmlns="http://www.w3.org/2000/svg">
<path fill-rule="evenodd" clip-rule="evenodd" d="M81.8075 40.9325C81.8075 46.8252 80.5715 52.4304 78.3007 57.4895C77.9557 58.3231 77.5533 59.1567 77.1221 59.9328C70.2809 72.9541 56.6271 81.8363 40.9038 81.8363C24.3468 81.8363 10.0607 71.9768 3.62184 57.8057C2.50079 55.3336 1.63845 52.7466 1.00607 50.0446C0.344937 47.1126 0 44.0657 0 40.9325C0 18.3104 18.3104 0 40.9038 0C59.2717 0 74.8226 12.1303 79.9966 28.8022C80.1691 29.3484 80.3128 29.8945 80.4565 30.4119C80.7152 31.4467 80.9452 32.4528 81.1464 33.4876C81.2326 33.9763 81.3189 34.4649 81.3764 34.9536C81.4339 35.2985 81.4626 35.6147 81.5201 35.9309C81.5776 36.5346 81.6351 37.1382 81.6926 37.7418C81.7788 38.7766 81.8075 39.8402 81.8075 40.9325Z" fill="#F2F2F2"/>
<path fill-rule="evenodd" clip-rule="evenodd" d="M58.784 12.4177C58.784 12.4177 59.9913 13.625 60.1925 14.5448C60.1925 14.5448 61.0261 13.9125 60.4512 12.8777C59.8763 11.8716 58.784 12.4177 58.784 12.4177Z" fill="#593085"/>
<path fill-rule="evenodd" clip-rule="evenodd" d="M80.4566 30.4119C79.393 29.8945 78.4157 29.5783 77.6684 29.3771C76.6335 29.1184 75.7999 28.3711 75.455 27.3937C74.9951 26.1002 74.1328 24.0306 72.5518 20.9262C69.4186 14.7461 65.9692 12.8489 63.6984 11.2679C62.2037 10.2044 60.249 10.0032 59.0993 9.97443C58.4956 9.97443 57.9207 9.74448 57.4895 9.37079C56.2823 8.36473 53.9539 7.18619 53.2066 7.64611C52.2867 8.16352 53.2066 9.42828 54.5001 11.0092C55.7649 12.6189 56.0523 14.3724 56.9721 16.7582C57.3746 17.8505 57.892 18.5116 58.3231 18.8853C58.7543 19.3165 58.898 19.9489 58.6681 20.5238C57.8057 22.5359 57.5183 25.1229 58.007 27.48C58.5818 30.297 59.9041 30.2682 59.9041 30.2682C59.7891 26.5027 61.7438 24.893 61.7438 24.893C63.5259 30.3545 67.6364 34.465 67.6364 34.465C64.3308 33.2864 61.83 27.8537 61.83 27.8537C61.83 27.8537 61.5713 28.1411 61.3413 29.9233C61.1114 31.7342 58.9268 32.7978 57.3458 28.8885C55.7361 24.9504 57.8057 20.0063 57.8057 20.0063C56.8859 19.5177 54.9888 15.1485 54.9888 14.4874C54.9888 13.7975 54.2414 12.3028 53.3503 11.3829C52.4305 10.4918 50.6196 7.84732 52.7179 6.6113C54.8163 5.40402 58.9843 8.68092 58.9843 8.68092C65.5668 8.45096 72.3506 16.442 73.4429 19.2877C74.5064 22.1335 77.5534 27.8249 77.5534 27.8249C78.4157 28.0836 79.2493 28.4286 79.9967 28.8022C80.1691 29.3484 80.3129 29.8945 80.4566 30.4119Z" fill="#593085"/>
<path fill-rule="evenodd" clip-rule="evenodd" d="M81.6924 37.7419C81.6637 37.7131 81.6349 37.7131 81.6062 37.6844C79.5078 36.6783 78.6455 34.5224 78.6455 34.5224C79.1916 33.9763 80.1689 33.6888 81.1463 33.4876C81.2325 33.9763 81.3187 34.465 81.3762 34.9536C81.0025 35.0398 80.7726 35.0686 80.7726 35.0686C80.7726 35.2698 81.06 35.586 81.52 35.9309C81.5774 36.5346 81.6349 37.1382 81.6924 37.7419Z" fill="#593085"/>
<path fill-rule="evenodd" clip-rule="evenodd" d="M21.3002 59.8753H18.1096C18.1096 59.8753 18.1096 52.5741 17.046 43.8645L12.0157 59.8753H9.42866L4.3121 43.9507C4.3121 43.9507 3.70846 48.6361 3.62223 57.8057C2.50118 55.3336 1.63884 52.7466 1.00645 50.0446C1.23641 46.6527 1.58135 42.9446 2.01252 39.9264H6.18051L10.9521 54.7012L15.9825 39.9264H19.7768C19.7768 39.9264 21.3002 52.9478 21.3002 59.8753Z" fill="#593085"/>
<path fill-rule="evenodd" clip-rule="evenodd" d="M23.0824 45.3017L26.388 45.2442C26.388 45.2442 30.0961 56.3972 29.7224 57.7482C29.7224 57.7482 32.1082 51.1081 32.7406 45.2442H35.9888C35.9888 45.2442 34.2641 57.0296 28.975 63.2384C26.9917 65.5667 24.7783 65.5955 22.7662 64.7331V62.951C22.7662 62.951 25.5257 63.8995 26.9342 61.8587C28.084 60.249 26.9917 57.4032 25.9856 54.4138C25.7556 53.6952 23.0824 45.3017 23.0824 45.3017Z" fill="#593085"/>
<path fill-rule="evenodd" clip-rule="evenodd" d="M38.001 58.4093L38.8633 56.6846C38.8633 56.6846 44.8135 59.3291 46.3369 56.6846C47.8604 54.0401 46.3944 52.6316 43.405 51.0506C40.3868 49.4697 37.2536 47.4863 38.6333 43.1746C39.9843 38.8629 47.2568 39.1503 49.3551 41.2487L48.6365 42.9159C48.6365 42.9159 43.2325 40.6163 41.7665 43.6345C40.3005 46.6239 44.2098 48.0612 45.1297 48.4636C46.0495 48.866 51.1086 50.9357 50.5624 54.6437C50.0163 58.3518 47.7167 60.6514 42.4851 60.1915C40.6167 59.7315 39.5244 59.4441 38.001 58.4093Z" fill="#593085"/>
<path fill-rule="evenodd" clip-rule="evenodd" d="M64.7904 58.668C67.0325 56.8571 67.9811 53.6377 67.9811 49.9871C67.9811 44.3244 66.3714 39.754 59.9613 39.754C54.4136 39.754 51.9128 44.3244 51.9128 49.9871C51.9128 55.6211 53.7524 60.1915 59.9613 60.1915C60.8524 60.1915 61.6572 60.1053 62.4046 59.8753L67.1762 62.6923L68.3548 60.3927L64.7904 58.668ZM59.9613 57.7482C56.3682 57.7482 55.2759 54.2701 55.2759 49.9871C55.2759 45.6754 56.3107 42.1973 59.9613 42.1973C63.6694 42.1973 64.618 45.6754 64.618 49.9871C64.618 54.2701 63.6694 57.7482 59.9613 57.7482Z" fill="#593085"/>
<path fill-rule="evenodd" clip-rule="evenodd" d="M78.3012 57.4895C77.9563 58.3231 77.5538 59.1567 77.1227 59.9328H70.8276V40.0127H73.9895V57.4895H78.3012Z" fill="#593085"/>
</svg>
