<svg width="82" height="82" viewBox="0 0 82 82" fill="none" xmlns="http://www.w3.org/2000/svg">
<path fill-rule="evenodd" clip-rule="evenodd" d="M82 41C82 43.4779 81.7983 45.8981 81.3661 48.2607C77.9375 67.4498 61.1687 82 41 82C25.8159 82 12.5622 73.7309 5.47435 61.4568C3.74561 58.4603 2.39143 55.2333 1.44062 51.8335C0.48981 48.376 0 44.7456 0 41C0 18.3535 18.3535 0 41 0C59.6992 0 75.4596 12.5046 80.4153 29.5903C81.4526 33.2207 82 37.0527 82 41Z" fill="#F2F2F2"/>
<mask id="mask0" mask-type="alpha" maskUnits="userSpaceOnUse" x="0" y="0" width="82" height="82">
<path fill-rule="evenodd" clip-rule="evenodd" d="M81.8075 40.9781C81.8075 43.4789 81.5776 45.8935 81.1751 48.2505C77.7545 67.3658 61.0251 81.9106 40.9038 81.9106C25.7265 81.9106 12.504 73.6609 5.43276 61.4156C3.70807 58.4262 2.35707 55.2067 1.43724 51.7861C0.488661 48.3655 0 44.7437 0 40.9781C0 18.3847 18.3104 0.0743408 40.9038 0.0743408C59.5591 0.0743408 75.2825 12.5496 80.1978 29.6239C81.2614 33.217 81.8075 37.0401 81.8075 40.9781Z" fill="#593085"/>
</mask>
<g mask="url(#mask0)">
<path fill-rule="evenodd" clip-rule="evenodd" d="M33.1908 20.3538C33.778 19.7619 35.2928 20.0901 40.0493 20.0961L38.4267 28.4979C39.0209 28.4979 39.6314 28.4916 40.251 28.4852C43.0208 28.4565 45.9717 28.426 48.4563 28.9495C55.33 30.399 54.4049 34.6508 53.0927 40.6815C52.9313 41.4233 52.764 42.192 52.6047 42.9858C52.4954 43.5282 52.3835 44.0784 52.2706 44.6333C51.7869 47.0112 51.2855 49.4758 50.8981 51.7919H43.9246C44.1029 50.335 44.4457 48.73 44.7728 47.1988C44.8984 46.6108 45.0216 46.0337 45.1324 45.4801C45.3149 44.5626 45.4924 43.6289 45.6702 42.6937C45.8963 41.5038 46.123 40.3115 46.3611 39.1472C46.3848 39.0332 46.4086 38.9199 46.4323 38.8072C46.9138 36.5155 47.3348 34.5114 44.8173 33.8908C43.494 33.5652 39.0305 33.5705 37.5025 33.644L33.8687 51.7867L27.0947 51.7919C27.1104 50.3556 27.6861 47.7408 28.1479 45.6433C28.3057 44.9266 28.4502 44.2702 28.5545 43.7419L31.6422 27.936C31.79 27.1446 31.9487 26.3478 32.1054 25.5603C32.216 25.005 32.3256 24.4544 32.4299 23.9137C32.8361 21.8073 32.7395 20.8088 33.1908 20.3538ZM9.06226 33.6965C11.0262 33.3552 16.0935 33.5075 17.8317 34.2006C20.4205 35.2351 20.1894 38.181 19.47 40.9798C17.9464 46.9138 13.5481 46.859 7.38896 46.7823C7.09477 46.7787 6.79656 46.775 6.49446 46.7718L9.06226 33.6965ZM5.523 51.8287C7.09172 51.7034 8.64394 51.7152 10.1641 51.7269C13.9309 51.7556 17.5005 51.7829 20.6358 49.7177C23.6499 47.7328 26.496 44.2723 27.0264 38.9004C27.583 33.2869 24.7264 29.9 20.0161 28.8707C17.1963 28.2564 6.48396 28.3456 3.23351 28.5714C2.93419 29.0913 -3.05735 59.1278 -2.99959 60.22C-1.60278 60.2095 -0.200732 60.2147 1.19607 60.22C1.66501 60.22 2.05218 60.2275 2.37286 60.2338C3.2545 60.2509 3.63354 60.2583 3.82758 60.0725C3.97392 59.9324 4.01504 59.6823 4.08718 59.2438C4.10199 59.1538 4.1181 59.0558 4.1367 58.9492C4.43947 57.1978 4.787 55.4799 5.1364 53.7526L5.13641 53.7526C5.26574 53.1133 5.39533 52.4727 5.523 51.8287ZM61.7933 46.7456L64.3348 33.623C65.0922 33.6242 65.8453 33.6081 66.5813 33.5924C72.1631 33.4731 76.7601 33.3749 74.7373 41.0114C74.0547 43.5739 72.8417 45.228 70.5469 46.0944C68.4255 46.8979 64.2036 46.9451 61.7933 46.7456ZM52.357 60.2252L59.0784 60.2147L60.7851 51.7867C61.5185 51.789 62.2371 51.7972 62.9409 51.8053C70.1639 51.8878 75.8363 51.9526 80.1092 45.4643C83.2442 40.6963 84.3206 30.9554 75.3675 28.8865C73.33 28.4139 60.7273 28.2774 58.4378 28.6029C57.9337 29.7687 52.2677 59.5741 52.357 60.2252Z" fill="#593085"/>
</g>
</svg>
