<svg width="82" height="82" xmlns="http://www.w3.org/2000/svg" fill="none">

 <mask height="66" width="75" y="0" x="0" maskUnits="userSpaceOnUse" mask-type="alpha" id="mask0">
  <path id="svg_1" fill="#593085" d="m81.8075,40.9781c0,2.5008 -0.2299,4.9154 -0.6324,7.2724c-3.4206,19.1153 -20.15,33.6601 -40.2713,33.6601c-15.1773,0 -28.3998,-8.2497 -35.47104,-20.495c-1.72469,-2.9894 -3.07569,-6.2089 -3.99552,-9.6295c-0.94858,-3.4206 -1.43724,-7.0424 -1.43724,-10.808c0,-22.5934 18.3104,-40.90376 40.9038,-40.90376c18.6553,0 34.3787,12.47526 39.294,29.54956c1.0636,3.5931 1.6097,7.4162 1.6097,11.3542z" clip-rule="evenodd" fill-rule="evenodd"/>
 </mask>
 <g>
  <title>Layer 1</title>
  <path id="svg_2" fill="#F2F2F2" d="m82,41c0,2.4779 -0.2017,4.8981 -0.6339,7.2607c-7.19036,19.1891 -20.1974,33.7393 -40.3661,33.7393c-15.1841,0 -28.4378,-8.2691 -35.52565,-20.5432c-1.72874,-2.9965 -3.08292,-6.2235 -4.03373,-9.6233c-0.95081,-3.4575 -1.44062,-7.0879 -1.44062,-10.8335c0,-22.6465 18.3535,-41 41,-41c18.6992,0 34.4596,12.5046 39.4153,29.5903c1.0373,3.6304 1.5847,7.4624 1.5847,11.4097z" clip-rule="evenodd" fill-rule="evenodd"/>
  <g stroke="null" id="svg_3" mask="url(#mask0)">
   <path stroke="null" id="svg_4" fill="#593085" d="m36.5676,17.3538c0.45204,-0.5919 1.61816,-0.2637 5.27979,-0.2577l-1.2491,8.4018c0.45743,0 0.9274,-0.0063 1.40438,-0.0127c2.13224,-0.0287 4.40389,-0.0592 6.31658,0.4643c5.29149,1.4495 4.57933,5.7013 3.56918,11.732c-0.12425,0.7418 -0.25304,1.5105 -0.37567,2.3043c-0.08414,0.5424 -0.17028,1.0926 -0.2572,1.6475c-0.37236,2.3779 -0.75835,4.8425 -1.05657,7.1586l-5.36832,0c0.13726,-1.4569 0.40115,-3.0619 0.65296,-4.5931c0.09669,-0.588 0.19153,-1.1651 0.27683,-1.7187c0.14049,-0.9175 0.27713,-1.8512 0.41401,-2.7864c0.17406,-1.1899 0.34857,-2.3822 0.53187,-3.5465c0.01824,-0.114 0.03657,-0.2273 0.05481,-0.34c0.37067,-2.2917 0.69476,-4.2958 -1.24325,-4.9164c-1.0187,-0.3256 -4.45478,-0.3203 -5.63106,-0.2468l-2.79736,18.1427l-5.21474,0.0052c0.01209,-1.4363 0.45527,-4.0511 0.81077,-6.1486c0.12148,-0.7167 0.23272,-1.3731 0.31301,-1.9014l2.37696,-15.8059c0.11378,-0.7914 0.23595,-1.5882 0.35658,-2.3757c0.08514,-0.5553 0.16951,-1.1059 0.24981,-1.6466c0.3127,-2.1064 0.23834,-3.1049 0.58575,-3.5599zm-18.57456,13.3427c1.51187,-0.3413 5.41277,-0.189 6.75086,0.5041c1.9929,1.0345 1.815,3.9804 1.26119,6.7792c-1.17289,5.934 -4.55878,5.8792 -9.30019,5.8025c-0.22647,-0.0036 -0.45604,-0.0073 -0.6886,-0.0105l1.97674,-13.0753zm-2.72458,18.1322c1.20763,-0.1253 2.40255,-0.1135 3.5728,-0.1018c2.89975,0.0287 5.64768,0.056 8.06129,-2.0092c2.32031,-1.9849 4.51128,-5.4454 4.91959,-10.8173c0.42848,-5.6135 -1.77058,-9.0004 -5.39665,-10.0297c-2.17073,-0.6143 -10.41727,-0.5251 -12.91952,-0.2993c-0.23042,0.5199 -4.84281,30.5564 -4.79835,31.6486c1.07529,-0.0105 2.15461,-0.0053 3.22989,0c0.361,0 0.65905,0.0075 0.90591,0.0138c0.6787,0.0171 0.97049,0.0245 1.11987,-0.1613c0.11266,-0.1401 0.14431,-0.3902 0.19984,-0.8287c0.0114,-0.09 0.0238,-0.188 0.03812,-0.2946c0.23308,-1.7514 0.50061,-3.4693 0.76959,-5.1966l0.00001,0c0.09956,-0.6393 0.19932,-1.2799 0.2976,-1.9239zm43.31783,-5.0831l1.95649,-13.1226c0.58306,0.0012 1.16281,-0.0149 1.72939,-0.0306c4.29696,-0.1193 7.83581,-0.2175 6.27863,7.419c-0.52548,2.5625 -1.45926,4.2166 -3.22584,5.083c-1.63309,0.8035 -4.88318,0.8507 -6.73867,0.6512zm-7.26422,13.4796l5.17425,-0.0105l1.31385,-8.428c0.56458,0.0023 1.11777,0.0105 1.65957,0.0186c5.56039,0.0825 9.9271,0.1473 13.21645,-6.341c2.41338,-4.768 3.24201,-14.5089 -3.65024,-16.5778c-1.5685,-0.4726 -11.27027,-0.6091 -13.03277,-0.2836c-0.38806,1.1658 -4.74985,30.9712 -4.6811,31.6223z" clip-rule="evenodd" fill-rule="evenodd"/>
  </g>
 </g>
</svg>