<svg width="82" height="82" viewBox="0 0 82 82" fill="none" xmlns="http://www.w3.org/2000/svg">
<path fill-rule="evenodd" clip-rule="evenodd" d="M81 41C81 43.4174 80.8032 45.7786 80.3816 48.0836C77.0365 66.8046 60.6767 81 41 81C26.1862 81 13.2558 72.9325 6.34083 60.9578C4.65425 58.0344 3.3331 54.8862 2.40548 51.5692C1.47786 48.1961 1 44.6543 1 41C1 18.9058 18.9058 1 41 1C59.2431 1 74.6191 13.1996 79.454 29.8686C80.4659 33.4104 81 37.149 81 41Z" fill="#593085"/>
<path fill-rule="evenodd" clip-rule="evenodd" d="M81.8075 40.9741C81.8075 54.1104 75.5987 65.8383 65.9404 73.3119C59.0417 78.6872 50.332 81.8778 40.9038 81.8778C31.533 81.8778 22.9383 78.7447 16.0396 73.4556C10.3463 69.102 5.84315 63.2852 3.0755 56.5734L3.08534 56.5735C3.42999 56.5735 3.71456 56.579 3.95029 56.5836H3.95033L3.95063 56.5836H3.95067C4.59891 56.5962 4.8776 56.6016 5.02027 56.465C5.12787 56.362 5.15811 56.1782 5.21115 55.8557L5.21117 55.8556C5.22205 55.7894 5.2339 55.7174 5.24757 55.6391C5.47019 54.3513 5.72572 53.0881 5.98263 51.8181L5.98265 51.8181C6.07774 51.348 6.17303 50.877 6.2669 50.4034C7.42037 50.3113 8.5617 50.32 9.67944 50.3285C12.4491 50.3497 15.0739 50.3698 17.3792 48.8512C19.5955 47.3917 21.6882 44.8473 22.0782 40.8973C22.4875 36.7698 20.387 34.2794 16.9236 33.5226C14.8502 33.0708 6.97349 33.1365 4.58345 33.3025C4.43569 33.5592 2.40116 43.5995 1.09291 50.4132C0.377928 47.3819 0 44.2213 0 40.9741C0 18.3807 18.3104 0.0703125 40.9038 0.0703125C58.6188 0.0703125 73.7007 11.3272 79.3877 27.0792L64.0331 27.1247L64.037 31.1596L78.9332 31.1827C78.7652 31.5617 75.4829 35.8472 72.0906 40.2764C68.4659 45.009 64.7156 49.9057 64.5042 50.3764L70.7823 50.3339C71.0867 49.9884 71.3015 49.68 71.529 49.3532C71.6219 49.2198 71.7169 49.0833 71.821 48.94L81.4753 35.7355C81.6945 37.4507 81.8075 39.1992 81.8075 40.9741ZM8.8693 37.071C10.3134 36.82 14.0393 36.932 15.3174 37.4416C17.2209 38.2023 17.051 40.3684 16.522 42.4263C15.4018 46.7895 12.1677 46.7492 7.63893 46.6929L7.63707 46.6928L7.63493 46.6928C7.41991 46.6901 7.20197 46.6874 6.98121 46.6852L8.8693 37.071ZM49.5113 37.0169L47.6426 46.6658C49.4148 46.8126 52.5192 46.7778 54.079 46.1871C55.7664 45.55 56.6583 44.3337 57.1602 42.4495C58.6476 36.8345 55.2674 36.9067 51.1631 36.9944C50.622 37.006 50.0682 37.0178 49.5113 37.0169ZM45.6464 56.5696L40.7041 56.5773C40.6385 56.0986 44.8046 34.1828 45.1753 33.3257C46.8588 33.0863 56.1254 33.1867 57.6236 33.5342C64.2068 35.0555 63.4152 42.2178 61.1101 45.7237C57.9683 50.4945 53.7974 50.4469 48.4864 50.3862L48.4856 50.3862C47.9683 50.3803 47.4402 50.3742 46.9012 50.3725L45.6464 56.5696ZM28.9849 27.0239C27.5169 26.9812 26.9053 26.9634 26.6109 27.2602C26.4007 27.472 26.3522 27.8442 26.2689 28.4822C26.2207 28.8515 26.1609 29.3098 26.0514 29.8777C25.9748 30.2753 25.8942 30.6802 25.8129 31.0885L25.8128 31.0886C25.6976 31.6675 25.5809 32.2534 25.4722 32.8353L23.2019 44.4573C23.1252 44.8457 23.0189 45.3283 22.9029 45.8554L22.9029 45.8554C22.5633 47.3977 22.14 49.3203 22.1285 50.3764L27.1094 50.3725L29.7813 37.0323C30.9048 36.9783 34.1868 36.9744 35.1598 37.2138C37.0109 37.6702 36.7013 39.1437 36.3473 40.8288C36.3299 40.9116 36.3123 40.995 36.295 41.0788C36.1198 41.9349 35.9532 42.8117 35.7869 43.6866L35.7867 43.6878C35.656 44.375 35.5256 45.0611 35.3915 45.7353C35.31 46.1424 35.2194 46.5668 35.1271 46.9991L35.127 46.9991C34.8866 48.125 34.6345 49.3051 34.5034 50.3764H39.631C39.9158 48.6735 40.2844 46.8615 40.6401 45.1131L40.6402 45.1126C40.7232 44.7046 40.8055 44.3001 40.8858 43.9013C41.003 43.3176 41.126 42.7524 41.2447 42.2069C42.2095 37.7726 42.8897 34.6463 37.8356 33.5805C36.0087 33.1956 33.8388 33.218 31.8023 33.2391H31.8023H31.8021C31.3466 33.2438 30.8977 33.2484 30.4608 33.2484L31.6539 27.0707C30.5413 27.0693 29.6699 27.0439 28.9849 27.0239Z" fill="#F2F2F2"/>
</svg>
