<svg width="82" height="82" viewBox="0 0 82 82" fill="none" xmlns="http://www.w3.org/2000/svg">
<path fill-rule="evenodd" clip-rule="evenodd" d="M81.8075 40.9781C81.8075 54.4594 75.3112 66.4172 65.2506 73.8621C61.0251 76.9665 56.196 79.3236 50.9644 80.6459C47.745 81.4507 44.3819 81.8819 40.9038 81.8819C37.4257 81.8819 34.0625 81.4507 30.8431 80.6459C25.6116 79.3236 20.7824 76.9665 16.557 73.8621C6.52506 66.4172 0 54.4594 0 40.9781C0 18.3847 18.3104 0.0743408 40.9038 0.0743408C63.4971 0.0743408 81.8075 18.3847 81.8075 40.9781Z" fill="#F2F2F2"/>
<path fill-rule="evenodd" clip-rule="evenodd" d="M65.2791 64.0026C65.0779 62.7091 64.8479 61.3869 64.5317 60.0359C64.2443 58.8573 63.9281 57.6213 63.5544 56.414C62.6058 53.1659 61.3411 49.8027 59.7889 46.4109C59.1277 44.9161 58.4091 43.4214 57.633 41.9267C56.9431 40.6044 56.2245 39.3109 55.4771 37.9887C54.701 36.6951 53.9249 35.4016 53.1201 34.1656C52.229 32.7571 51.3092 31.3774 50.3606 30.0551C48.176 27.0082 45.9051 24.2487 43.5768 21.7766C42.6857 20.8568 41.7946 19.9657 40.9036 19.1321C39.8975 18.1835 38.8627 17.2924 37.8566 16.4876C31.1878 11.1986 25.2089 9.6176 21.0409 12.0034C16.873 14.418 15.2633 20.3969 16.528 28.7903C16.7292 30.0839 16.9592 31.4061 17.2754 32.7571C17.5628 33.9644 17.879 35.1717 18.2527 36.4077C19.2013 39.6271 20.4948 42.9902 22.0183 46.4109C22.6794 47.8768 23.4268 49.3716 24.1741 50.8663C24.864 52.1886 25.5826 53.5108 26.33 54.8043C27.1061 56.1266 27.8822 57.3914 28.687 58.6561C29.5781 60.0646 30.498 61.4444 31.4753 62.7666C33.6311 65.7848 35.902 68.5731 38.2303 71.0164C39.1214 71.9649 40.0125 72.8273 40.9036 73.6609C41.9096 74.6382 42.9444 75.5005 43.9505 76.3054C46.4225 78.26 48.7796 79.6973 50.9642 80.6459C56.1958 79.3236 61.0249 76.9665 65.2504 73.8621C65.8252 71.1601 65.854 67.8257 65.2791 64.0026ZM61.5423 73.2585C61.0536 75.3568 60.1625 76.7941 58.869 77.5414C57.6042 78.26 55.9083 78.3175 53.8387 77.6851C51.6253 76.9953 49.0096 75.5293 46.3076 73.3734C45.3877 72.6548 44.4967 71.8787 43.5768 71.0164C42.6857 70.1828 41.7946 69.3204 40.9036 68.3718C39.3801 66.7621 37.8854 65.0087 36.4194 63.1116C35.4421 61.8468 34.4647 60.5245 33.5449 59.1735C32.1652 57.1901 30.8429 55.0918 29.6069 52.9359C28.3421 50.7513 27.1923 48.5667 26.1575 46.4109C25.4389 44.9161 24.7778 43.4214 24.1741 41.9267C23.283 39.7133 22.5069 37.5287 21.8745 35.4304C21.5009 34.1943 21.1847 32.9583 20.926 31.7798C20.6385 30.5725 20.4086 29.394 20.2361 28.2442C19.7474 24.8236 19.7474 21.8341 20.2648 19.5633C20.7535 17.4649 21.6446 15.9989 22.9381 15.2803C23.628 14.8779 24.4328 14.6767 25.3527 14.6767C26.1575 14.6767 27.0199 14.8204 27.9684 15.1078C30.2105 15.7977 32.7975 17.2924 35.4995 19.4196C36.4194 20.1669 37.3392 20.943 38.2303 21.7766C39.1214 22.6102 40.0125 23.5013 40.9036 24.4211C42.427 26.0308 43.9218 27.813 45.3877 29.6814C46.3651 30.9462 47.3424 32.2685 48.291 33.6482C49.642 35.6316 50.9642 37.7012 52.2002 39.8858C53.465 42.0417 54.6148 44.2263 55.6496 46.4109C56.3682 47.9056 57.0294 49.4003 57.633 50.8663C58.5241 53.0796 59.3002 55.2642 59.9326 57.3914C60.3063 58.6274 60.6224 59.8347 60.8812 61.0132C61.1686 62.2205 61.3986 63.399 61.571 64.5488C62.0597 67.9694 62.0597 70.9876 61.5423 73.2585Z" fill="#593085"/>
<path fill-rule="evenodd" clip-rule="evenodd" d="M68.3547 34.0794C67.1186 33.6194 65.8539 33.1595 64.5316 32.7571C63.3531 32.4122 62.1458 32.0672 60.881 31.7798C57.6041 31.0037 54.0685 30.4 50.3605 30.0551C48.722 29.8826 47.0836 29.7677 45.3876 29.6814C43.9216 29.6239 42.4269 29.5952 40.9034 29.5952C39.4087 29.5952 37.8852 29.6239 36.4193 29.6814C34.7233 29.7677 33.0849 29.8826 31.4464 30.0551C27.7384 30.4 24.2028 31.0037 20.9259 31.7798C19.6611 32.0672 18.4538 32.4122 17.2753 32.7571C15.953 33.1595 14.6882 33.6194 13.481 34.0794C5.54742 37.2125 1.20697 41.5817 1.20697 46.4109C1.20697 51.2112 5.54742 55.5804 13.481 58.7136C14.6882 59.2023 15.953 59.6334 17.2753 60.0359C18.4538 60.3808 19.6611 60.7257 20.9259 61.0132C24.2028 61.818 27.7384 62.3929 31.4752 62.7666C33.0849 62.9103 34.7233 63.0253 36.4193 63.1115C37.8852 63.169 39.4087 63.2265 40.9034 63.2265C42.4269 63.2265 43.9216 63.169 45.3876 63.1115C47.0836 63.0253 48.722 62.9103 50.3605 62.7666C54.0685 62.3929 57.6041 61.818 60.881 61.0132C62.1458 60.7257 63.3531 60.3808 64.5316 60.0359C65.8539 59.6334 67.1186 59.2023 68.3547 58.7136C76.2595 55.5804 80.5999 51.2112 80.5999 46.4109C80.5999 41.5817 76.2595 37.2125 68.3547 34.0794ZM74.4773 50.8375C72.7526 52.4473 70.1656 53.942 66.9462 55.2067C65.8826 55.6379 64.7328 56.0403 63.5543 56.414C62.4045 56.759 61.1972 57.0752 59.9325 57.3913C57.7766 57.9088 55.5058 58.3112 53.12 58.6561C51.5677 58.8573 49.9293 59.0298 48.2908 59.1735C45.8763 59.346 43.4042 59.461 40.9034 59.461C38.4027 59.461 35.9306 59.346 33.5448 59.1735C31.8776 59.0298 30.2679 58.8573 28.6869 58.6561C26.3011 58.3112 24.0303 57.9088 21.8744 57.3913C20.6384 57.0752 19.4024 56.759 18.2526 56.414C17.0741 56.0403 15.9243 55.6379 14.8607 55.2067C11.6413 53.942 9.05428 52.4473 7.3296 50.8375C5.74863 49.3716 4.97253 47.8768 4.97253 46.4109C4.97253 44.9161 5.74863 43.4214 7.3296 41.9554C9.05428 40.3745 11.6413 38.851 14.8607 37.5862C15.9243 37.1551 17.0741 36.7814 18.2526 36.4077C19.4024 36.034 20.6384 35.7178 21.8744 35.4304C24.0303 34.913 26.3011 34.4818 28.6869 34.1656C30.2679 33.9356 31.8776 33.7632 33.5448 33.6482C35.9306 33.447 38.4027 33.3607 40.9034 33.3607C43.4042 33.3607 45.8763 33.447 48.2908 33.6482C49.9293 33.7632 51.5677 33.9356 53.12 34.1656C55.5058 34.4818 57.7766 34.913 59.9325 35.4304C61.1972 35.7178 62.4045 36.034 63.5543 36.4077C64.7328 36.7814 65.8826 37.1551 66.9462 37.5862C70.1656 38.851 72.7526 40.3745 74.4773 41.9554C76.0583 43.4214 76.8344 44.9161 76.8344 46.4109C76.8344 47.8768 76.0583 49.3716 74.4773 50.8375Z" fill="#593085"/>
<path fill-rule="evenodd" clip-rule="evenodd" d="M60.7663 12.0034C56.5984 9.6176 50.6195 11.1986 43.9507 16.4876C42.9446 17.2924 41.9098 18.1835 40.9037 19.1321C40.0126 19.9657 39.1216 20.8568 38.2305 21.7766C35.9022 24.2487 33.6313 27.0082 31.4467 30.0551C30.4981 31.3774 29.5783 32.7571 28.6872 34.1656C27.8824 35.4016 27.1063 36.6951 26.3302 37.9887C25.5828 39.3109 24.8642 40.6044 24.1743 41.9267C23.4269 43.4214 22.6796 44.9161 22.0184 46.4109C20.495 49.8027 19.2015 53.1659 18.2529 56.414C17.8792 57.6213 17.563 58.8573 17.2756 60.0359C16.9594 61.3869 16.7294 62.7091 16.5282 64.0026C15.9533 67.8257 15.982 71.1601 16.5569 73.8621C20.7824 76.9665 25.6115 79.3236 30.8431 80.6459C33.0564 79.6973 35.3847 78.26 37.8568 76.3054C38.8629 75.5005 39.8977 74.6095 40.9037 73.6609C41.7948 72.8273 42.6859 71.9649 43.577 71.0164C45.9053 68.5731 48.1762 65.7848 50.3608 62.7666C51.3093 61.4444 52.2292 60.0646 53.1202 58.6561C53.9251 57.3914 54.7012 56.1266 55.4773 54.8043C56.2247 53.5108 56.9433 52.1886 57.6332 50.8663C58.4093 49.3716 59.1279 47.8768 59.789 46.4109C61.3412 42.9902 62.606 39.6271 63.5546 36.4077C63.9283 35.1717 64.2445 33.9644 64.5319 32.7571C64.8481 31.4061 65.0781 30.0839 65.2793 28.7903C66.544 20.3969 64.9343 14.418 60.7663 12.0034ZM59.9328 35.4304C59.3004 37.5287 58.5243 39.7133 57.6332 41.9267C57.0295 43.4214 56.3684 44.9161 55.6498 46.4109C54.615 48.5667 53.4652 50.7513 52.2004 52.9359C50.9644 55.0918 49.6421 57.1901 48.2911 59.1735C47.3426 60.5245 46.3652 61.8468 45.3879 63.1116C43.9219 65.0087 42.4272 66.7621 40.9037 68.3718C40.0126 69.3204 39.1216 70.1828 38.2305 71.0164C37.3394 71.8787 36.4196 72.6548 35.4997 73.3734C32.7977 75.5293 30.2107 76.9953 27.9686 77.6851C25.899 78.3175 24.203 78.26 22.9383 77.5414C21.6448 76.7941 20.7537 75.3568 20.265 73.2585C19.7476 70.9876 19.7476 67.9694 20.2363 64.5488C20.4087 63.399 20.6387 62.2205 20.9261 61.0132C21.1848 59.8347 21.501 58.6274 21.8747 57.3914C22.5071 55.2642 23.2832 53.0796 24.1743 50.8663C24.7779 49.4003 25.4391 47.9056 26.1577 46.4109C27.1925 44.2263 28.3423 42.0417 29.6071 39.8858C30.8431 37.7012 32.1653 35.6028 33.5451 33.6482C34.4649 32.2685 35.4422 30.9462 36.4196 29.6814C37.8855 27.813 39.3803 26.0308 40.9037 24.4211C41.7948 23.5013 42.6859 22.6102 43.577 21.7766C44.4968 20.943 45.3879 20.1669 46.3077 19.4196C49.0098 17.2924 51.6255 15.7977 53.8389 15.1078C54.7874 14.8204 55.6785 14.6767 56.4546 14.6767C57.3745 14.6767 58.1793 14.8779 58.8692 15.2803C60.1627 15.9989 61.0538 17.4362 61.5425 19.5633C62.0599 21.8341 62.0599 24.8236 61.5712 28.2442C61.3987 29.394 61.1688 30.5725 60.8813 31.7798C60.6226 32.9583 60.3064 34.1943 59.9328 35.4304Z" fill="#593085"/>
<path d="M40.9033 53.8845C45.0309 53.8845 48.3769 50.5384 48.3769 46.4109C48.3769 42.2833 45.0309 38.9372 40.9033 38.9372C36.7757 38.9372 33.4297 42.2833 33.4297 46.4109C33.4297 50.5384 36.7757 53.8845 40.9033 53.8845Z" fill="#593085"/>
</svg>
