<svg width="82" height="82" xmlns="http://www.w3.org/2000/svg" fill="none">
 <g>
  <title>Layer 1</title>
  <path fill-rule="evenodd" clip-rule="evenodd" d="m82.58336,44.60762c0,13.4813 -6.4963,25.4391 -16.5569,32.884c-4.2255,3.1044 -9.0546,5.4615 -14.2862,6.7838c-3.2194,0.8048 -6.5825,1.236 -10.0606,1.236c-3.4781,0 -6.8413,-0.4312 -10.0607,-1.236c-5.2315,-1.3223 -10.0607,-3.6794 -14.2861,-6.7838c-10.03194,-7.4449 -16.557,-19.4027 -16.557,-32.884c0,-22.5934 18.3104,-40.90376 40.9038,-40.90376c22.5933,0 40.9037,18.31036 40.9037,40.90376z" fill="#F2F2F2" id="svg_1"/>
  <path fill-rule="evenodd" clip-rule="evenodd" d="m68.3547,33.36145c-1.2361,-0.46 -2.5008,-0.9199 -3.8231,-1.3223c-1.1785,-0.3449 -2.3858,-0.6899 -3.6506,-0.9773c-3.2769,-0.7761 -6.8125,-1.3798 -10.5205,-1.7247c-1.6385,-0.1725 -3.2769,-0.2874 -4.9729,-0.3737c-1.466,-0.0575 -2.9607,-0.0862 -4.4842,-0.0862c-1.4947,0 -3.0182,0.0287 -4.4841,0.0862c-1.696,0.0863 -3.3344,0.2012 -4.9729,0.3737c-3.708,0.3449 -7.2436,0.9486 -10.5205,1.7247c-1.2648,0.2874 -2.4721,0.6324 -3.6506,0.9773c-1.3223,0.4024 -2.5871,0.8623 -3.7943,1.3223c-7.93358,3.1331 -12.27403,7.5023 -12.27403,12.3315c0,4.8003 4.34045,9.1695 12.27403,12.3027c1.2072,0.4887 2.472,0.9198 3.7943,1.3223c1.1785,0.3449 2.3858,0.6898 3.6506,0.9773c3.2769,0.8048 6.8125,1.3797 10.5493,1.7534c1.6097,0.1437 3.2481,0.2587 4.9441,0.3449c1.4659,0.0575 2.9894,0.115 4.4841,0.115c1.5235,0 3.0182,-0.0575 4.4842,-0.115c1.696,-0.0862 3.3344,-0.2012 4.9729,-0.3449c3.708,-0.3737 7.2436,-0.9486 10.5205,-1.7534c1.2648,-0.2875 2.4721,-0.6324 3.6506,-0.9773c1.3223,-0.4025 2.587,-0.8336 3.8231,-1.3223c7.9048,-3.1332 12.2452,-7.5024 12.2452,-12.3027c0,-4.8292 -4.3404,-9.1984 -12.2452,-12.3315zm6.1226,16.7581c-1.7247,1.6098 -4.3117,3.1045 -7.5311,4.3692c-1.0636,0.4312 -2.2134,0.8336 -3.3919,1.2073c-1.1498,0.345 -2.3571,0.6612 -3.6218,0.9773c-2.1559,0.5175 -4.4267,0.9199 -6.8125,1.2648c-1.5523,0.2012 -3.1907,0.3737 -4.8292,0.5174c-2.4145,0.1725 -4.8866,0.2875 -7.3874,0.2875c-2.5007,0 -4.9728,-0.115 -7.3586,-0.2875c-1.6672,-0.1437 -3.2769,-0.3162 -4.8579,-0.5174c-2.3858,-0.3449 -4.6566,-0.7473 -6.8125,-1.2648c-1.236,-0.3161 -2.472,-0.6323 -3.6218,-0.9773c-1.1785,-0.3737 -2.3283,-0.7761 -3.3919,-1.2073c-3.2194,-1.2647 -5.80642,-2.7594 -7.5311,-4.3692c-1.58097,-1.4659 -2.35707,-2.9607 -2.35707,-4.4266c0,-1.4948 0.7761,-2.9895 2.35707,-4.4555c1.72468,-1.5809 4.3117,-3.1044 7.5311,-4.3692c1.0636,-0.4311 2.2134,-0.8048 3.3919,-1.1785c1.1498,-0.3737 2.3858,-0.6899 3.6218,-0.9773c2.1559,-0.5174 4.4267,-0.9486 6.8125,-1.2648c1.581,-0.23 3.1907,-0.4024 4.8579,-0.5174c2.3858,-0.2012 4.8579,-0.2875 7.3586,-0.2875c2.5008,0 4.9729,0.0863 7.3874,0.2875c1.6385,0.115 3.2769,0.2874 4.8292,0.5174c2.3858,0.3162 4.6566,0.7474 6.8125,1.2648c1.2647,0.2874 2.472,0.6036 3.6218,0.9773c1.1785,0.3737 2.3283,0.7474 3.3919,1.1785c3.2194,1.2648 5.8064,2.7883 7.5311,4.3692c1.581,1.466 2.3571,2.9607 2.3571,4.4555c0,1.4659 -0.7761,2.9607 -2.3571,4.4266z" fill="#593085" id="svg_3"/>
  <path d="m40.9033,52.85886c4.1276,0 7.4736,-3.3461 7.4736,-7.4736c0,-4.1276 -3.346,-7.4737 -7.4736,-7.4737c-4.1276,0 -7.4736,3.3461 -7.4736,7.4737c0,4.1275 3.346,7.4736 7.4736,7.4736z" fill="#593085" id="svg_5"/>
  <path fill-rule="evenodd" clip-rule="evenodd" d="m68.64721,32.37356c-1.2361,-0.46 -2.5008,-0.9199 -3.8231,-1.3223c-1.1785,-0.3449 -2.3858,-0.6899 -3.6506,-0.9773c-3.2769,-0.7761 -6.8125,-1.3798 -10.5205,-1.7247c-1.6385,-0.1725 -3.2769,-0.2874 -4.9729,-0.3737c-1.466,-0.0575 -2.9607,-0.0862 -4.4842,-0.0862c-1.4947,0 -3.0182,0.0287 -4.4841,0.0862c-1.696,0.0863 -3.3344,0.2012 -4.9729,0.3737c-3.708,0.3449 -7.2436,0.9486 -10.5205,1.7247c-1.2648,0.2874 -2.4721,0.6324 -3.6506,0.9773c-1.3223,0.4024 -2.5871,0.8623 -3.7943,1.3223c-7.93358,3.1331 -12.27403,7.5023 -12.27403,12.3315c0,4.8003 4.34045,9.1695 12.27403,12.3027c1.2072,0.4887 2.472,0.9198 3.7943,1.3223c1.1785,0.3449 2.3858,0.6898 3.6506,0.9773c3.2769,0.8048 6.8125,1.3797 10.5493,1.7534c1.6097,0.1437 3.2481,0.2587 4.9441,0.3449c1.4659,0.0575 2.9894,0.115 4.4841,0.115c1.5235,0 3.0182,-0.0575 4.4842,-0.115c1.696,-0.0862 3.3344,-0.2012 4.9729,-0.3449c3.708,-0.3737 7.2436,-0.9486 10.5205,-1.7534c1.2648,-0.2875 2.4721,-0.6324 3.6506,-0.9773c1.3223,-0.4025 2.587,-0.8336 3.8231,-1.3223c7.9048,-3.1332 12.2452,-7.5024 12.2452,-12.3027c0,-4.8292 -4.3404,-9.1984 -12.2452,-12.3315zm6.1226,16.7581c-1.7247,1.6098 -4.3117,3.1045 -7.5311,4.3692c-1.0636,0.4312 -2.2134,0.8336 -3.3919,1.2073c-1.1498,0.345 -2.3571,0.6612 -3.6218,0.9773c-2.1559,0.5175 -4.4267,0.9199 -6.8125,1.2648c-1.5523,0.2012 -3.1907,0.3737 -4.8292,0.5174c-2.4145,0.1725 -4.8866,0.2875 -7.3874,0.2875c-2.5007,0 -4.9728,-0.115 -7.3586,-0.2875c-1.6672,-0.1437 -3.2769,-0.3162 -4.8579,-0.5174c-2.3858,-0.3449 -4.6566,-0.7473 -6.8125,-1.2648c-1.236,-0.3161 -2.472,-0.6323 -3.6218,-0.9773c-1.1785,-0.3737 -2.3283,-0.7761 -3.3919,-1.2073c-3.2194,-1.2647 -5.80642,-2.7594 -7.5311,-4.3692c-1.58097,-1.4659 -2.35707,-2.9607 -2.35707,-4.4266c0,-1.4948 0.7761,-2.9895 2.35707,-4.4555c1.72468,-1.5809 4.3117,-3.1044 7.5311,-4.3692c1.0636,-0.4311 2.2134,-0.8048 3.3919,-1.1785c1.1498,-0.3737 2.3858,-0.6899 3.6218,-0.9773c2.1559,-0.5174 4.4267,-0.9486 6.8125,-1.2648c1.581,-0.23 3.1907,-0.4024 4.8579,-0.5174c2.3858,-0.2012 4.8579,-0.2875 7.3586,-0.2875c2.5008,0 4.9729,0.0863 7.3874,0.2875c1.6385,0.115 3.2769,0.2874 4.8292,0.5174c2.3858,0.3162 4.6566,0.7474 6.8125,1.2648c1.2647,0.2874 2.472,0.6036 3.6218,0.9773c1.1785,0.3737 2.3283,0.7474 3.3919,1.1785c3.2194,1.2648 5.8064,2.7883 7.5311,4.3692c1.581,1.466 2.3571,2.9607 2.3571,4.4555c0,1.4659 -0.7761,2.9607 -2.3571,4.4266z" fill="#593085" id="svg_6" transform="rotate(60 41.1959 44.705)"/>
  <path fill-rule="evenodd" clip-rule="evenodd" d="m68.74767,32.42887c-1.2361,-0.46 -2.5008,-0.9199 -3.8231,-1.3223c-1.1785,-0.3449 -2.3858,-0.6899 -3.6506,-0.9773c-3.2769,-0.7761 -6.8125,-1.3798 -10.5205,-1.7247c-1.6385,-0.1725 -3.2769,-0.2874 -4.9729,-0.3737c-1.466,-0.0575 -2.9607,-0.0862 -4.4842,-0.0862c-1.4947,0 -3.0182,0.0287 -4.4841,0.0862c-1.696,0.0863 -3.3344,0.2012 -4.9729,0.3737c-3.708,0.3449 -7.2436,0.9486 -10.5205,1.7247c-1.2648,0.2874 -2.4721,0.6324 -3.6506,0.9773c-1.3223,0.4024 -2.5871,0.8623 -3.7943,1.3223c-7.93358,3.1331 -12.27403,7.5023 -12.27403,12.3315c0,4.8003 4.34045,9.1695 12.27403,12.3027c1.2072,0.4887 2.472,0.9198 3.7943,1.3223c1.1785,0.3449 2.3858,0.6898 3.6506,0.9773c3.2769,0.8048 6.8125,1.3797 10.5493,1.7534c1.6097,0.1437 3.2481,0.2587 4.9441,0.3449c1.4659,0.0575 2.9894,0.115 4.4841,0.115c1.5235,0 3.0182,-0.0575 4.4842,-0.115c1.696,-0.0862 3.3344,-0.2012 4.9729,-0.3449c3.708,-0.3737 7.2436,-0.9486 10.5205,-1.7534c1.2648,-0.2875 2.4721,-0.6324 3.6506,-0.9773c1.3223,-0.4025 2.587,-0.8336 3.8231,-1.3223c7.9048,-3.1332 12.2452,-7.5024 12.2452,-12.3027c0,-4.8292 -4.3404,-9.1984 -12.2452,-12.3315zm6.1226,16.7581c-1.7247,1.6098 -4.3117,3.1045 -7.5311,4.3692c-1.0636,0.4312 -2.2134,0.8336 -3.3919,1.2073c-1.1498,0.345 -2.3571,0.6612 -3.6218,0.9773c-2.1559,0.5175 -4.4267,0.9199 -6.8125,1.2648c-1.5523,0.2012 -3.1907,0.3737 -4.8292,0.5174c-2.4145,0.1725 -4.8866,0.2875 -7.3874,0.2875c-2.5007,0 -4.9728,-0.115 -7.3586,-0.2875c-1.6672,-0.1437 -3.2769,-0.3162 -4.8579,-0.5174c-2.3858,-0.3449 -4.6566,-0.7473 -6.8125,-1.2648c-1.236,-0.3161 -2.472,-0.6323 -3.6218,-0.9773c-1.1785,-0.3737 -2.3283,-0.7761 -3.3919,-1.2073c-3.2194,-1.2647 -5.80642,-2.7594 -7.5311,-4.3692c-1.58097,-1.4659 -2.35707,-2.9607 -2.35707,-4.4266c0,-1.4948 0.7761,-2.9895 2.35707,-4.4555c1.72468,-1.5809 4.3117,-3.1044 7.5311,-4.3692c1.0636,-0.4311 2.2134,-0.8048 3.3919,-1.1785c1.1498,-0.3737 2.3858,-0.6899 3.6218,-0.9773c2.1559,-0.5174 4.4267,-0.9486 6.8125,-1.2648c1.581,-0.23 3.1907,-0.4024 4.8579,-0.5174c2.3858,-0.2012 4.8579,-0.2875 7.3586,-0.2875c2.5008,0 4.9729,0.0863 7.3874,0.2875c1.6385,0.115 3.2769,0.2874 4.8292,0.5174c2.3858,0.3162 4.6566,0.7474 6.8125,1.2648c1.2647,0.2874 2.472,0.6036 3.6218,0.9773c1.1785,0.3737 2.3283,0.7474 3.3919,1.1785c3.2194,1.2648 5.8064,2.7883 7.5311,4.3692c1.581,1.466 2.3571,2.9607 2.3571,4.4555c0,1.4659 -0.7761,2.9607 -2.3571,4.4266z" fill="#593085" id="svg_7" transform="rotate(-60 41.2964 44.7603)"/>
 </g>

</svg>